<svg width="211" height="160" viewBox="0 0 211 160" fill="none" xmlns="http://www.w3.org/2000/svg">
    <path d="M180.27 23.5107H167.979V27.3848H180.27V23.5107Z" fill="#F5F5F5"/>
    <path d="M190.242 88.2109H177.951V92.085H190.242V88.2109Z" fill="#F5F5F5"/>
    <path d="M106.416 49.2012H94.1252V53.0752H106.416V49.2012Z" fill="#F5F5F5"/>
    <path d="M141.327 77.2969H129.036V81.1709H141.327V77.2969Z" fill="#F5F5F5"/>
    <path d="M146.932 73.4053H134.641V77.2793H146.932V73.4053Z" fill="#EBEBEB"/>
    <path d="M177.467 53.1826H165.177V57.0566H177.467V53.1826Z" fill="#F5F5F5"/>
    <path d="M183.073 49.291H170.782V53.165H183.073V49.291Z" fill="#EBEBEB"/>
    <path d="M37.4136 50.248H25.1228V54.1221H37.4136V50.248Z" fill="#F5F5F5"/>
    <path d="M43.019 46.3564H30.7283V50.2304H43.019V46.3564Z" fill="#EBEBEB"/>
    <path d="M70.8824 7.74805H58.5916V11.6221H70.8824V7.74805Z" fill="#F0F0F0"/>
    <path d="M83.6568 28.6689H71.366V32.543H83.6568V28.6689Z" fill="#F0F0F0"/>
    <path d="M158.317 3.87402H146.027V7.74806H158.317V3.87402Z" fill="#F5F5F5"/>
    <path d="M77.1021 3.87402H64.8113V7.74806H77.1021V3.87402Z" fill="#F5F5F5"/>
    <path d="M30.6948 20.001H18.4041V23.875H30.6948V20.001Z" fill="#F0F0F0"/>
    <path d="M152.753 0H140.462V3.87403H152.753V0Z" fill="#EBEBEB"/>
    <path d="M27.1768 86.2744H14.886V90.1484H27.1768V86.2744Z" fill="#F0F0F0"/>
    <path d="M186.947 79.4274H111.033C109.676 79.4274 108.571 78.7489 108.571 77.9148V9.98131C108.571 9.14721 109.676 8.46875 111.033 8.46875H186.947C188.304 8.46875 189.409 9.14721 189.409 9.98131V77.9148C189.409 78.7489 188.304 79.4274 186.947 79.4274ZM111.033 8.53325C109.734 8.53325 108.676 9.18287 108.676 9.98131V77.9148C108.676 78.7133 109.734 79.3629 111.033 79.3629H186.947C188.247 79.3629 189.304 78.7133 189.304 77.9148V9.98131C189.304 9.18287 188.247 8.53325 186.947 8.53325H111.033Z" fill="#E0E0E0"/>
    <path d="M99.4068 79.4274H23.4932C22.1356 79.4274 21.0312 78.7489 21.0312 77.9148V9.98131C21.0312 9.14721 22.1356 8.46875 23.4932 8.46875H99.4068C100.764 8.46875 101.869 9.14721 101.869 9.98131V77.9148C101.869 78.7489 100.764 79.4274 99.4068 79.4274ZM23.4932 8.53325C22.1936 8.53325 21.1362 9.18287 21.1362 9.98131V77.9148C21.1362 78.7133 22.1936 79.3629 23.4932 79.3629H99.4068C100.707 79.3629 101.764 78.7133 101.764 77.9148V9.98131C101.764 9.18287 100.707 8.53325 99.4068 8.53325H23.4932Z" fill="#E0E0E0"/>
    <path d="M210.5 95.1855H0.5V95.2501H210.5V95.1855Z" fill="#E0E0E0"/>
    <path d="M28.9478 98.8652H22.2026V98.9297H28.9478V98.8652Z" fill="#E0E0E0"/>
    <path d="M94.5305 98.166H72.0479V98.2305H94.5305V98.166Z" fill="#E0E0E0"/>
    <path d="M44.5927 101.263H29.3677V101.327H44.5927V101.263Z" fill="#E0E0E0"/>
    <path d="M177.548 98.1328H159.408V98.1973H177.548V98.1328Z" fill="#E0E0E0"/>
    <path d="M183.949 98.1328H181.29V98.1973H183.949V98.1328Z" fill="#E0E0E0"/>
    <path d="M155.943 99.7402H133.309V99.8047H155.943V99.7402Z" fill="#E0E0E0"/>
    <path d="M194.105 130.665C194.105 142.154 154.828 151.467 106.377 151.467C57.9268 151.467 18.6499 142.154 18.6499 130.665C18.6499 119.177 57.9268 109.863 106.377 109.863C154.828 109.863 194.105 119.177 194.105 130.665Z" fill="#F5F5F5"/>
    <path d="M94.2616 150.497C94.2616 155.745 83.9672 159.999 71.2684 159.999C58.5696 159.999 48.2752 155.745 48.2752 150.497C48.2752 149.339 48.0219 145.072 48.2752 144.835C51.8663 141.474 61.3716 140.995 71.2684 140.995C81.1347 140.995 92.1696 140.643 94.1345 144.914C94.4867 145.679 94.2616 149.327 94.2616 150.497Z" fill="#E6E6E6"/>
    <path d="M71.2686 155.418C83.9674 155.418 94.2619 151.164 94.2619 145.916C94.2619 140.668 83.9674 136.414 71.2686 136.414C58.5698 136.414 48.2754 140.668 48.2754 145.916C48.2754 151.164 58.5698 155.418 71.2686 155.418Z" fill="#EBEBEB"/>
    <path d="M71.2687 152.675C62.1571 152.675 54.7441 149.568 54.7441 145.748C54.7441 141.928 62.1571 138.821 71.2687 138.821C80.3803 138.821 87.7935 141.928 87.7935 145.748C87.7935 149.568 80.3806 152.675 71.2687 152.675ZM71.2687 139.19C62.3886 139.19 55.1641 142.132 55.1641 145.748C55.1641 149.364 62.3886 152.306 71.2687 152.306C80.1488 152.306 87.3735 149.364 87.3735 145.748C87.3735 142.132 80.149 139.19 71.2687 139.19Z" fill="#E0E0E0"/>
    <path d="M71.693 148.088C75.6522 148.088 78.8617 146.762 78.8617 145.126C78.8617 143.489 75.6522 142.163 71.693 142.163C67.7339 142.163 64.5244 143.489 64.5244 145.126C64.5244 146.762 67.7339 148.088 71.693 148.088Z" fill="#E6E6E6"/>
    <path d="M71.6932 146.224C73.1617 146.224 74.3522 145.732 74.3522 145.125C74.3522 144.518 73.1617 144.026 71.6932 144.026C70.2247 144.026 69.0342 144.518 69.0342 145.125C69.0342 145.732 70.2247 146.224 71.6932 146.224Z" fill="#E0E0E0"/>
    <path d="M97.9765 141.629C97.9765 146.877 87.682 151.131 74.9832 151.131C62.2844 151.131 51.99 146.877 51.99 141.629C51.99 140.471 51.7368 136.204 51.99 135.967C55.5812 132.606 65.0864 132.127 74.9832 132.127C84.8496 132.127 95.8844 131.775 97.8494 136.046C98.2016 136.811 97.9765 140.459 97.9765 141.629Z" fill="#E6E6E6"/>
    <path d="M74.9835 146.55C87.6823 146.55 97.9767 142.296 97.9767 137.048C97.9767 131.8 87.6823 127.546 74.9835 127.546C62.2847 127.546 51.9902 131.8 51.9902 137.048C51.9902 142.296 62.2847 146.55 74.9835 146.55Z" fill="#EBEBEB"/>
    <path d="M74.9836 143.806C65.8719 143.806 58.459 140.699 58.459 136.879C58.459 133.06 65.8719 129.953 74.9836 129.953C84.0952 129.953 91.5084 133.06 91.5084 136.879C91.5084 140.699 84.0954 143.806 74.9836 143.806ZM74.9836 130.322C66.1035 130.322 58.879 133.264 58.879 136.879C58.879 140.495 66.1035 143.437 74.9836 143.437C83.8637 143.437 91.0884 140.495 91.0884 136.879C91.0884 133.264 83.8639 130.322 74.9836 130.322Z" fill="#E0E0E0"/>
    <path d="M75.4079 139.22C79.367 139.22 82.5765 137.893 82.5765 136.257C82.5765 134.621 79.367 133.295 75.4079 133.295C71.4488 133.295 68.2393 134.621 68.2393 136.257C68.2393 137.893 71.4488 139.22 75.4079 139.22Z" fill="#E6E6E6"/>
    <path d="M78.067 136.257C78.067 136.864 76.8766 137.356 75.408 137.356C73.9395 137.356 72.749 136.864 72.749 136.257C72.749 135.65 73.9395 135.158 75.408 135.158C76.8766 135.158 78.067 135.65 78.067 136.257Z" fill="#E0E0E0"/>
    <path d="M194.034 121.14C194.034 126.388 183.74 130.642 171.041 130.642C158.342 130.642 148.048 126.388 148.048 121.14C148.048 119.982 147.795 115.714 148.048 115.477C151.639 112.117 161.144 111.638 171.041 111.638C180.907 111.638 191.942 111.285 193.907 115.557C194.259 116.322 194.034 119.969 194.034 121.14Z" fill="#E6E6E6"/>
    <path d="M171.041 126.061C183.74 126.061 194.034 121.807 194.034 116.559C194.034 111.311 183.74 107.057 171.041 107.057C158.342 107.057 148.048 111.311 148.048 116.559C148.048 121.807 158.342 126.061 171.041 126.061Z" fill="#EBEBEB"/>
    <path d="M171.041 123.317C161.93 123.317 154.516 120.21 154.516 116.39C154.516 112.571 161.93 109.464 171.041 109.464C180.153 109.464 187.566 112.571 187.566 116.39C187.566 120.21 180.153 123.317 171.041 123.317ZM171.041 109.833C162.161 109.833 154.936 112.774 154.936 116.39C154.936 120.006 162.161 122.948 171.041 122.948C179.921 122.948 187.146 120.006 187.146 116.39C187.146 112.774 179.921 109.833 171.041 109.833Z" fill="#E0E0E0"/>
    <path d="M171.466 118.731C175.425 118.731 178.634 117.404 178.634 115.768C178.634 114.132 175.425 112.806 171.466 112.806C167.507 112.806 164.297 114.132 164.297 115.768C164.297 117.404 167.507 118.731 171.466 118.731Z" fill="#E6E6E6"/>
    <path d="M174.125 115.768C174.125 116.375 172.934 116.867 171.466 116.867C169.997 116.867 168.807 116.375 168.807 115.768C168.807 115.161 169.997 114.669 171.466 114.669C172.934 114.669 174.125 115.161 174.125 115.768Z" fill="#E0E0E0"/>
    <path d="M80.5025 35.5591C79.19 30.8559 73.7841 27.9774 68.4281 29.13C63.0721 30.2826 59.7941 35.0295 61.1066 39.7328C62.12 43.3637 65.5753 45.8976 69.5616 46.3382L71.264 48.5062L73.0185 46.1892C73.0727 46.1784 73.1269 46.1734 73.1812 46.1618C78.5372 45.0093 81.815 40.2622 80.5025 35.5591Z" fill="#86C240"/>
    <path d="M82.1402 38.867C82.1283 38.867 82.1164 38.8661 82.1043 38.8643C81.9899 38.847 81.9134 38.7516 81.9331 38.6513C82.472 35.9137 81.3098 32.9351 78.9724 31.0631C78.8866 30.9944 78.8805 30.8778 78.9586 30.8026C79.0363 30.7267 79.1698 30.7219 79.2554 30.7905C81.6962 32.7453 82.9096 35.8555 82.3469 38.7139C82.3293 38.8038 82.2405 38.867 82.1402 38.867Z" fill="#86C240"/>
    <path d="M81.3939 41.3832C81.3593 41.3832 81.3242 41.3756 81.2916 41.3598C81.1905 41.3101 81.1542 41.1977 81.2108 41.1087C81.4374 40.7527 81.581 40.3502 81.6257 39.9449C81.6368 39.8435 81.7374 39.7695 81.855 39.7792C81.9704 39.7889 82.0549 39.8791 82.0436 39.9805C81.9934 40.4361 81.8322 40.8885 81.5775 41.2888C81.5389 41.3491 81.4676 41.3832 81.3939 41.3832Z" fill="#86C240"/>
    <path opacity="0.7" d="M80.5025 35.5591C79.19 30.8559 73.7841 27.9774 68.4281 29.13C63.0721 30.2826 59.7941 35.0295 61.1066 39.7328C62.12 43.3637 65.5753 45.8976 69.5616 46.3382L71.264 48.5062L73.0185 46.1892C73.0727 46.1784 73.1269 46.1734 73.1812 46.1618C78.5372 45.0093 81.815 40.2622 80.5025 35.5591Z" fill="white"/>
    <path d="M70.8694 41.7035L65.7939 38.3847L67.1128 36.8296L70.5161 39.0549L75.1925 34.1562L76.8846 35.4018L70.8694 41.7035Z" fill="white"/>
    <path d="M68.1716 116.552C68.5244 116.61 92.3986 124.054 92.3986 124.054L96.6001 121.577L96.4903 121.159L72.7394 114.383L68.0747 116.087L68.1716 116.552Z" fill="#263238"/>
    <path d="M68.0747 116.086C68.4275 116.144 92.3279 123.479 92.3279 123.479L96.4903 121.159L72.6425 113.917L68.0747 116.086Z" fill="#263238"/>
    <path opacity="0.3" d="M68.0747 116.086C68.4275 116.144 92.3279 123.479 92.3279 123.479L96.4903 121.159L72.6425 113.917L68.0747 116.086Z" fill="white"/>
    <path d="M79.7432 79.1721V118.716H84.944V78.4004L79.7432 79.1721Z" fill="#263238"/>
    <path opacity="0.3" d="M79.7432 79.1721V118.716H84.944V78.4004L79.7432 79.1721Z" fill="white"/>
    <path d="M80.2172 118.308C81.6333 119.225 83.5659 119.171 84.9366 118.216C85.0954 118.106 84.8712 117.911 84.7139 118.021C83.4476 118.902 81.6695 118.906 80.3762 118.069C80.2129 117.964 80.0556 118.204 80.2172 118.308Z" fill="#263238"/>
    <path d="M43.0361 102.247C43.5744 102.562 108.709 85.3242 108.709 85.3242L107.991 90.4647L44.4716 107.447L43.0361 102.247Z" fill="#263238"/>
    <path opacity="0.3" d="M43.0361 102.247C43.5744 102.562 108.709 85.3242 108.709 85.3242L107.991 90.4647L44.4716 107.447L43.0361 102.247Z" fill="white"/>
    <path opacity="0.3" d="M46.0567 107.041L44.4717 107.447V101.973L45.8376 101.652L46.0567 107.041Z" fill="black"/>
    <path d="M28.1259 123.1C28.4767 123.166 52.0974 131.242 52.0974 131.242L56.3841 128.877L56.2886 128.455L32.7684 121.051L28.0449 122.632L28.1259 123.1Z" fill="#263238"/>
    <path d="M28.0449 122.632C28.3958 122.699 52.0463 130.666 52.0463 130.666L56.2886 128.456L32.6874 120.583L28.0449 122.632Z" fill="#263238"/>
    <path opacity="0.3" d="M28.0449 122.632C28.3958 122.699 52.0463 130.666 52.0463 130.666L56.2886 128.456L32.6874 120.583L28.0449 122.632Z" fill="white"/>
    <path d="M39.4009 81.7441V125.916H44.6045V80.4551L39.4009 81.7441Z" fill="#263238"/>
    <path opacity="0.3" d="M39.4009 81.7441V125.916H44.6045V80.4551L39.4009 81.7441Z" fill="white"/>
    <path d="M39.8759 125.509C41.2927 126.426 43.2262 126.372 44.5977 125.417C44.7564 125.307 44.5322 125.112 44.3749 125.222C43.1079 126.104 41.3289 126.108 40.0349 125.271C39.8716 125.165 39.7143 125.405 39.8759 125.509Z" fill="#263238"/>
    <path opacity="0.3" d="M39.4008 87.0232L44.6043 88.8976L44.6173 84.0408L39.3291 83.1299L39.4008 87.0232Z" fill="black"/>
    <path opacity="0.3" d="M74.3725 94.3545L73.8984 94.4782L84.9438 100.23V97.7135L74.3725 94.3545Z" fill="black"/>
    <path d="M97.661 107.63C98.0119 107.697 121.633 115.772 121.633 115.772L125.919 113.407L125.824 112.986L102.304 105.581L97.5801 107.162L97.661 107.63Z" fill="#263238"/>
    <path d="M97.5801 107.162C97.9309 107.229 121.581 115.197 121.581 115.197L125.824 112.986L102.223 105.113L97.5801 107.162Z" fill="#263238"/>
    <path opacity="0.3" d="M97.5801 107.162C97.9309 107.229 121.581 115.197 121.581 115.197L125.824 112.986L102.223 105.113L97.5801 107.162Z" fill="white"/>
    <path d="M108.937 61.8809V110.447H114.14V64.9855L108.937 61.8809Z" fill="#263238"/>
    <path opacity="0.3" d="M108.937 61.8809V110.447H114.14V64.9855L108.937 61.8809Z" fill="white"/>
    <path d="M109.411 110.04C110.828 110.956 112.761 110.903 114.133 109.948C114.292 109.837 114.067 109.643 113.91 109.752C112.643 110.634 110.864 110.638 109.57 109.801C109.407 109.695 109.249 109.935 109.411 110.04Z" fill="#263238"/>
    <path opacity="0.3" d="M108.937 106.133L114.14 108.503V106.995L108.937 105.341V106.133Z" fill="black"/>
    <path d="M128.21 136.268C128.563 136.326 152.45 143.773 152.45 143.773L156.654 141.296L156.544 140.877L132.78 134.098L128.113 135.803L128.21 136.268Z" fill="#263238"/>
    <path d="M128.113 135.802C128.466 135.86 152.379 143.199 152.379 143.199L156.544 140.877L132.684 133.632L128.113 135.802Z" fill="#263238"/>
    <path opacity="0.3" d="M128.113 135.802C128.466 135.86 152.379 143.199 152.379 143.199L156.544 140.877L132.684 133.632L128.113 135.802Z" fill="white"/>
    <path d="M139.788 98.8687V138.433H144.991V98.0967L139.788 98.8687Z" fill="#263238"/>
    <path opacity="0.3" d="M139.788 98.8687V138.433H144.991V98.0967L139.788 98.8687Z" fill="white"/>
    <path d="M140.262 138.025C141.679 138.942 143.612 138.888 144.984 137.933C145.143 137.822 144.918 137.628 144.761 137.737C143.494 138.62 141.715 138.624 140.421 137.786C140.258 137.68 140.101 137.92 140.262 138.025Z" fill="#263238"/>
    <path opacity="0.3" d="M144.991 116.801L139.788 115.147V117.831L144.991 122.287V116.801Z" fill="black"/>
    <path d="M133.599 45.1924C133.14 45.1924 132.718 44.9262 132.588 44.519C132.431 44.0289 132.757 43.52 133.316 43.3824L141.871 41.2758C142.431 41.138 143.009 41.4245 143.165 41.9147C143.322 42.4049 142.996 42.9138 142.438 43.0514L133.882 45.158C133.788 45.1812 133.692 45.1924 133.599 45.1924Z" fill="#263238"/>
    <path opacity="0.3" d="M133.599 45.1924C133.14 45.1924 132.718 44.9262 132.588 44.519C132.431 44.0289 132.757 43.52 133.316 43.3824L141.871 41.2758C142.431 41.138 143.009 41.4245 143.165 41.9147C143.322 42.4049 142.996 42.9138 142.438 43.0514L133.882 45.158C133.788 45.1812 133.692 45.1924 133.599 45.1924Z" fill="white"/>
    <path d="M139.737 42.3213C137.414 32.9492 130.439 26.3248 124.156 27.5253C123.594 27.6327 123.058 27.8014 122.547 28.0221C118.569 29.285 108.579 32.533 108.245 32.6887L118.387 66.1041L132.493 61.4756C132.517 61.4712 132.542 61.4691 132.566 61.4644C138.849 60.264 142.059 51.6933 139.737 42.3213Z" fill="#86C240"/>
    <path opacity="0.3" d="M139.737 42.3213C137.414 32.9492 130.439 26.3248 124.156 27.5253C123.594 27.6327 123.058 27.8014 122.547 28.0221C118.569 29.285 108.579 32.533 108.245 32.6887L118.387 66.1041L132.493 61.4756C132.517 61.4712 132.542 61.4691 132.566 61.4644C138.849 60.264 142.059 51.6933 139.737 42.3213Z" fill="black"/>
    <path d="M123.317 64.6107C123.22 64.6107 123.133 64.5518 123.112 64.4656C123.087 64.366 123.159 64.2679 123.272 64.2461C129.431 63.0692 132.576 54.58 130.282 45.3223C127.988 36.065 121.112 29.4877 114.951 30.6674C114.839 30.6892 114.726 30.6264 114.701 30.5264C114.677 30.4268 114.749 30.3287 114.862 30.3069C121.25 29.0896 128.349 35.7877 130.692 45.2438C133.035 54.7003 129.747 63.3864 123.361 64.6066C123.346 64.6095 123.331 64.6107 123.317 64.6107Z" fill="#86C240"/>
    <path d="M128.631 62.9593C128.535 62.9593 128.448 62.9005 128.426 62.8142C128.402 62.7146 128.474 62.6165 128.587 62.5947C131.55 62.0285 133.916 59.7705 135.251 56.2365C136.597 52.6689 136.728 48.2387 135.619 43.7622C133.338 34.5546 126.47 28.02 120.311 29.1983C120.2 29.2197 120.086 29.1572 120.061 29.0573C120.037 28.9577 120.108 28.8596 120.222 28.8378C126.607 27.6165 133.699 34.2777 136.029 43.6837C137.155 48.224 137.02 52.7231 135.649 56.3525C134.267 60.0152 131.79 62.3602 128.676 62.9552C128.661 62.9581 128.646 62.9593 128.631 62.9593Z" fill="#86C240"/>
    <path d="M118.283 66.125C124.565 64.9245 127.776 56.3539 125.453 46.9818C123.131 37.6098 116.155 30.9854 109.873 32.1858C103.59 33.3862 100.38 41.9569 102.702 51.329C105.025 60.701 112 67.3254 118.283 66.125Z" fill="#86C240"/>
    <path d="M116.639 64.9681C114.271 64.9681 111.801 63.8067 109.556 61.6099C106.915 59.0268 104.893 55.3121 103.861 51.1498C102.83 46.9874 102.911 42.8706 104.091 39.5576C105.283 36.2084 107.456 34.0743 110.21 33.5481C115.851 32.4723 122.176 38.6138 124.314 47.2417C125.346 51.4039 125.264 55.5208 124.084 58.8339C122.892 62.1829 120.719 64.3171 117.965 64.8433C117.528 64.9267 117.085 64.9681 116.639 64.9681ZM111.53 33.7928C111.117 33.7928 110.707 33.8306 110.3 33.9086C107.7 34.4053 105.637 36.4505 104.492 39.6676C103.334 42.9206 103.256 46.9705 104.272 51.0713C105.288 55.1721 107.275 58.8273 109.868 61.3636C112.432 63.8717 115.276 64.9798 117.876 64.4828C120.476 63.9861 122.539 61.9409 123.684 58.7237C124.842 55.4707 124.92 51.4209 123.904 47.3202C121.972 39.5252 116.607 33.7928 111.53 33.7928Z" fill="#263238"/>
    <path d="M117.77 48.7998C118.507 51.7735 117.488 54.4929 115.495 54.8738C113.501 55.2547 111.288 53.1528 110.551 50.1791C109.814 47.2054 110.833 44.486 112.826 44.1051C114.82 43.7243 117.033 45.8261 117.77 48.7998Z" fill="white"/>
    <path d="M37.9399 80.6963V82.7723L168.99 124.428L195.236 110.988L195.124 108.172L37.9399 80.6963Z" fill="#263238"/>
    <path opacity="0.3" d="M37.9399 80.6963V82.7723L168.99 124.428L195.236 110.988L195.124 108.172L37.9399 80.6963Z" fill="black"/>
    <path d="M37.9399 80.6961L168.755 121.228C168.755 121.228 194.463 107.979 195.124 108.172C195.784 108.365 77.3458 68.7451 77.3458 68.7451L37.9399 80.6961Z" fill="#263238"/>
    <path opacity="0.3" d="M75.375 85.3233C75.375 85.3233 89.1277 89.6765 93.9595 90.4884C98.7912 91.3004 100.956 92.2526 101.423 92.9327C101.889 93.6128 108.251 101.319 116.533 102.907C124.815 104.495 135.658 106.168 138.292 104.719C140.925 103.271 142.329 98.095 142.329 98.095C142.329 98.095 153.627 100.978 157.345 102.124C161.063 103.271 184.474 112.682 187.808 112.174C191.143 111.665 186.857 109.895 186.857 109.895L137.208 89.9869C137.208 89.9869 81.1486 80.1016 80.2884 80.3961C79.4282 80.6906 75.375 85.3233 75.375 85.3233Z" fill="black"/>
    <path d="M103.506 56.0156L100.308 57.6846L103.343 65.382C98.1195 66.8868 89.3911 70.459 89.3911 70.459L100.025 74.7042C100.025 74.7042 106.762 72.057 110.536 69.5562C113.593 67.5306 103.506 56.0156 103.506 56.0156Z" fill="#B97964"/>
    <path d="M103.277 55.3309C103.277 55.3309 101.708 51.497 100.837 50.9108C99.9651 50.3247 96.1508 53.6637 96.1796 53.6843C96.2085 53.7048 99.2295 55.0565 99.3317 55.092C99.4339 55.1275 102.655 54.7481 102.655 54.7481" fill="#B97964"/>
    <path d="M100.641 50.5144C100.739 50.578 101.831 52.5144 101.083 52.8389C100.47 53.1045 99.9013 52.3298 99.9013 52.3298C99.9013 52.3298 100.958 53.8962 99.8602 53.9121C98.7622 53.9281 98.4145 52.7955 98.4145 52.7955C98.4145 52.7955 99.2128 53.7823 98.4223 54.1444C97.6318 54.5065 96.7667 53.3052 96.6357 53.0755C96.3626 52.5964 95.8782 51.6167 96.5553 51.37C97.0669 51.1836 97.4027 51.4429 97.4027 51.4429C97.4027 51.4429 98.0458 50.4557 98.8423 50.8685C98.8423 50.8685 99.4981 49.7728 100.641 50.5144Z" fill="#B97964"/>
    <path d="M100.429 57.6102C100.261 57.3396 98.161 56.2071 96.9055 55.5061C95.6499 54.805 94.3637 52.7909 94.867 52.1052C95.3703 51.4194 96.0752 51.849 96.4635 52.3101C96.8519 52.7712 97.6338 53.8463 98.2322 54.1221C98.5839 54.2841 101.674 53.4942 102.829 54.6011C103.984 55.7079 103.199 56.8683 103.199 56.8683L100.429 57.6102Z" fill="#B97964"/>
    <path d="M100.467 50.4553C100.443 50.4364 100.474 50.4628 100.49 50.4873C100.517 50.5279 100.542 50.5695 100.567 50.6115C100.636 50.7298 100.698 50.8512 100.756 50.9739C100.904 51.2875 101.037 51.619 101.092 51.9563C101.132 52.2035 101.153 52.5649 100.792 52.6173C100.446 52.6674 100.083 52.3675 99.9144 52.1651C99.794 52.0203 99.56 52.1416 99.6424 52.3047C99.7639 52.5455 100.216 53.6429 99.5805 53.6989C99.2635 53.7268 98.9661 53.3659 98.8063 53.1722C98.6712 53.0082 98.5474 52.8338 98.4434 52.653C98.3642 52.5153 98.0913 52.6119 98.1555 52.7596C98.2695 53.0216 98.3656 53.3129 98.3683 53.5947C98.3697 53.7392 98.3475 53.9125 98.1515 53.9348C97.9856 53.9537 97.8198 53.8565 97.6966 53.7707C97.1075 53.36 96.7151 52.6939 96.387 52.111C96.2972 51.9515 96.0254 52.0914 96.115 52.2506C96.4242 52.8 96.7859 53.3616 97.2744 53.8039C97.5007 54.0088 97.8056 54.2289 98.1515 54.2114C98.5466 54.1915 98.6914 53.8827 98.6827 53.5745C98.6742 53.2741 98.581 52.9659 98.4593 52.686L98.1714 52.7926C98.4282 53.2392 99.0272 54.1434 99.7309 53.9523C100.548 53.7303 100.152 52.6365 99.9144 52.1651L99.6424 52.3047C99.8798 52.5904 100.249 52.8759 100.669 52.8973C101.151 52.9218 101.412 52.6079 101.425 52.2202C101.44 51.8034 101.274 51.3749 101.102 50.9926C101.029 50.8286 100.949 50.6661 100.86 50.5083C100.814 50.4284 100.767 50.3212 100.689 50.2597C100.539 50.1408 100.316 50.3358 100.467 50.4553Z" fill="#A24E3F"/>
    <path d="M98.1657 54.3353C99.1217 54.1993 100.132 54.621 100.63 55.3462C100.735 55.4984 101.007 55.3595 100.902 55.2066C100.326 54.367 99.1803 53.9123 98.082 54.0686C97.8824 54.097 97.9671 54.3635 98.1657 54.3353Z" fill="#A24E3F"/>
    <path d="M99.9481 52.1954C99.7319 51.7563 99.4556 51.3421 99.1251 50.9618C99.0736 50.9025 98.9894 50.8712 98.9096 50.9122C98.8431 50.9463 98.8012 51.0416 98.8531 51.1014C99.1836 51.4817 99.4599 51.8959 99.6761 52.335C99.7099 52.4035 99.8245 52.419 99.8916 52.3846C99.9723 52.3431 99.982 52.2642 99.9481 52.1954Z" fill="#A24E3F"/>
    <path d="M98.4431 52.653C98.176 52.2433 97.909 51.8335 97.642 51.4237C97.5413 51.2693 97.269 51.4084 97.37 51.5633C97.637 51.9731 97.904 52.3829 98.1711 52.7927C98.2718 52.9471 98.544 52.8079 98.4431 52.653Z" fill="#A24E3F"/>
    <path d="M103.403 55.5401C103.505 55.5221 105.381 58.1146 105.381 58.1146L101.069 60.0381L99.8252 57.1654L103.403 55.5401Z" fill="#86C240"/>
    <path d="M137.329 82.7734C137.329 82.7734 152.48 89.2059 161.156 92.5576C170.18 96.0499 191.168 106.859 191.168 106.859L186.857 109.896C186.857 109.896 161.147 102.161 156.197 98.9363C146.231 95.7875 122.172 91.9128 122.172 91.9128L137.329 82.7734Z" fill="#B97964"/>
    <path d="M185.31 109.646L178.7 107.355L181.787 102.126L189.224 105.886L187.924 109.465L185.31 109.646Z" fill="#E0E0E0"/>
    <path d="M188.248 104.213C187.55 104.794 187.379 105.312 187.945 105.743C187.686 106.061 187.618 106.47 187.737 106.841C188.252 108.442 187.313 108.753 185.492 108.893C184.967 109.407 185.527 110.017 185.673 110.186L188.873 113.965C189.138 114.284 189.641 114.337 189.997 114.082C190.061 114.037 190.117 113.984 190.164 113.924C191.552 112.216 192.208 111.408 193.936 109.282L199.219 102.78C200.66 101.008 199.064 99.3671 198.296 99.9793C194.859 102.745 191.946 104.381 190.109 104.714C189.779 104.783 188.963 104.378 188.248 104.213Z" fill="#86C240"/>
    <path opacity="0.3" d="M198.786 102.328C198.116 103.723 195.569 104.678 194.32 106.212C193.071 107.746 193.747 108.165 191.793 110.981C189.839 113.798 188.471 113.491 188.471 113.491L188.472 113.491L188.873 113.965C189.137 114.284 189.641 114.337 189.997 114.082C190.06 114.037 190.117 113.984 190.164 113.924C191.552 112.216 192.208 111.408 193.936 109.282L199.219 102.78C199.988 101.835 199.889 100.93 199.516 100.382C199.46 100.642 199.286 101.286 198.786 102.328Z" fill="black"/>
    <path d="M189.755 110.741C190.617 109.887 191.141 108.811 191.254 107.674C191.271 107.496 190.956 107.497 190.939 107.674C190.834 108.734 190.335 109.749 189.532 110.546C189.398 110.679 189.62 110.875 189.755 110.741Z" fill="white"/>
    <path d="M188.248 104.213C187.55 104.794 187.379 105.312 187.945 105.743C187.686 106.061 187.618 106.47 187.737 106.841C188.252 108.442 187.313 108.753 185.492 108.893C184.967 109.407 185.527 110.017 185.673 110.186L188.873 113.965C189.138 114.284 189.641 114.337 189.997 114.082C190.061 114.037 190.117 113.984 190.164 113.924C191.552 112.216 192.208 111.408 193.936 109.282L199.219 102.78C200.66 101.008 199.064 99.3671 198.296 99.9793C194.859 102.745 191.946 104.381 190.109 104.714C189.779 104.783 188.963 104.378 188.248 104.213Z" fill="black"/>
    <path d="M191.994 105.255C191.884 104.924 191.775 104.593 191.665 104.262C191.641 104.191 191.554 104.146 191.471 104.166C191.39 104.186 191.337 104.264 191.361 104.336C191.471 104.667 191.581 104.998 191.69 105.328C191.714 105.4 191.801 105.445 191.884 105.425C191.965 105.405 192.018 105.327 191.994 105.255Z" fill="black"/>
    <path d="M193.143 104.744C193.071 104.401 192.926 104.07 192.72 103.772C192.676 103.708 192.579 103.684 192.504 103.722C192.432 103.76 192.403 103.848 192.448 103.912C192.642 104.193 192.771 104.492 192.839 104.817C192.855 104.891 192.956 104.933 193.033 104.914C193.121 104.893 193.159 104.818 193.143 104.744Z" fill="black"/>
    <path d="M194.319 104.144C194.247 103.801 194.102 103.47 193.895 103.172C193.851 103.109 193.754 103.085 193.68 103.123C193.607 103.16 193.579 103.248 193.624 103.312C193.818 103.593 193.947 103.892 194.015 104.218C194.03 104.291 194.132 104.333 194.209 104.314C194.297 104.293 194.334 104.218 194.319 104.144Z" fill="black"/>
    <path opacity="0.3" d="M63.2998 73.0062L66.3267 73.4601C66.3267 73.4601 68.6977 75.3902 70.8236 75.2649C72.9495 75.1396 73.9772 75.2708 73.9772 75.2708L75.119 76.2927C75.119 76.2927 77.574 74.4878 77.4884 74.4627C77.4027 74.4377 67.0404 71.8057 67.0404 71.8057L63.2998 73.0062Z" fill="black"/>
    <path d="M79.332 76.4053C79.332 76.4053 76.8579 73.9457 71.3218 73.0387C71.2794 72.3917 69.6675 72.663 69.1646 72.4605L76.5769 68.4648C78.0436 69.2844 82.1273 70.4763 83.6243 70.8459L84.0081 73.3733L79.332 76.4053Z" fill="#B97964"/>
    <path opacity="0.2" d="M78.8063 69.3262L76.0332 72.2863C77.3897 72.5065 79.3606 72.3233 80.8082 70.0501C80.8082 70.0501 79.3098 69.5805 78.8063 69.3262Z" fill="black"/>
    <path d="M67.4173 58.8008C69.3377 58.7941 72.9212 60.8219 70.994 62.6497C69.0668 64.4776 64.1162 58.8123 67.4173 58.8008Z" fill="#263238"/>
    <path d="M65.9289 71.0839C70.3425 72.5457 72.7981 73.4484 75.9587 72.4012C87.7344 66.9407 70.7003 55.8968 63.6313 61.6232C60.1235 64.619 61.5154 69.622 65.9289 71.0839Z" fill="#B97964"/>
    <path d="M60.0063 71.1234C60.0063 71.1234 61.637 67.6592 61.9515 67.0968C62.266 66.5344 64.8152 67.1132 65.4747 67.5561C66.1342 67.9991 65.8812 69.0039 66.571 69.3297C67.1666 69.6009 69.4219 69.6211 69.9978 70.3259C70.0783 70.8324 67.5105 72.0671 67.5105 72.0671L65.5023 71.9849C65.5023 71.9849 60.2151 74.0997 60.0063 71.1234Z" fill="#263238"/>
    <path d="M60.3622 71.2282C59.7944 71.3882 58.9611 71.4413 58.1162 70.4738C58.4178 70.6294 59.0009 70.4775 59.2669 70.3369C58.4901 69.6582 57.6156 67.7999 58.8339 64.4791C60.3373 60.3935 62.8012 60.0104 62.8887 58.6364C62.9761 57.2623 61.1778 58.4902 61.1778 58.4902C61.1778 58.4902 61.917 56.4198 63.8797 56.6416C65.8427 56.8634 68.2584 58.7925 65.9277 61.9257C63.597 65.0589 64.3725 66.3047 62.9886 67.7765C62.0278 68.8752 61.1504 70.0283 60.3622 71.2282Z" fill="#263238"/>
    <path d="M68.7477 73.9853C71.2721 74.4511 74.579 71.8191 71.1547 70.6071C67.9315 69.2628 64.4989 72.8765 68.7477 73.9853Z" fill="#B97964"/>
    <path d="M69.9541 66.1208C70.9886 66.537 71.4453 65.5971 70.4115 65.2018C69.377 64.7856 68.9206 65.7254 69.9541 66.1208Z" fill="#263238"/>
    <path d="M71.9497 62.4254C72.9842 62.8417 73.4409 61.9018 72.4073 61.5065C71.3726 61.0902 70.9163 62.0302 71.9497 62.4254Z" fill="#263238"/>
    <path d="M71.0776 63.5588C71.0776 63.5588 73.8863 63.1982 74.9759 63.1572C75.2538 63.9123 74.5257 64.7372 74.5257 64.7372L71.0776 63.5588Z" fill="#A24E3F"/>
    <path d="M67.3753 66.301C67.4322 66.2534 67.4594 66.1808 67.439 66.1083C67.1987 65.247 67.7549 64.7053 67.7605 64.6998C67.8842 63.7581 66.5805 64.9441 67.0039 66.2039C67.0395 66.3493 67.2573 66.405 67.3753 66.301Z" fill="#263238"/>
    <path opacity="0.2" d="M68.0009 72.7485C67.9607 72.7485 67.9222 72.728 67.905 72.6936C67.7175 72.3211 67.7786 71.968 68.0772 71.6991C68.5399 71.2832 69.5556 71.1195 70.208 71.3563C70.2617 71.3757 70.2871 71.4296 70.265 71.4766C70.2431 71.5239 70.1821 71.5464 70.128 71.5266C69.554 71.319 68.6305 71.4652 68.2278 71.8279C67.9862 72.0453 67.9423 72.3114 68.0969 72.619C68.1205 72.6656 68.0965 72.72 68.0434 72.7406C68.0296 72.746 68.0151 72.7485 68.0009 72.7485Z" fill="black"/>
    <path d="M70.9502 60.0233C70.9906 59.8756 70.8079 59.7352 70.6467 59.7956C69.4874 60.1913 69.2784 61.0831 69.2632 61.1219C69.2014 61.3699 69.6472 61.458 69.7043 61.2058C69.6335 61.0163 70.2129 60.4351 70.9502 60.0233Z" fill="#263238"/>
    <path d="M75.5843 65.9336C75.8183 66.4874 76.0977 67.0256 76.4205 67.5439C76.3279 67.6076 76.2348 67.6748 76.1385 67.7346C74.8576 68.5913 73.9415 68.6204 73.3156 68.3844C73.0117 68.2643 72.7442 68.0834 72.5346 67.8559C72.4131 67.7302 72.312 67.5903 72.2344 67.4402C73.2233 67.3422 74.4844 66.627 75.1411 66.2178C75.4146 66.0301 75.5843 65.9336 75.5843 65.9336Z" fill="#263238"/>
    <path d="M75.1431 66.2002L75.375 66.6817C74.1694 67.4839 73.2012 67.9094 72.5366 67.8383C72.4151 67.7126 72.314 67.5727 72.2363 67.4226C73.2334 67.3252 74.4864 66.6093 75.1431 66.2002Z" fill="white"/>
    <path d="M76.1403 67.7169C74.8594 68.5735 73.9433 68.6026 73.3174 68.3666C73.8107 68.0489 74.3643 67.8102 74.9523 67.6618C75.3452 67.5711 75.7605 67.5903 76.1403 67.7169Z" fill="#D7504D"/>
    <path d="M120.312 101.289C120.312 101.289 132.215 104.481 135.76 104.036C139.556 103.56 141.694 100.084 139.92 97.7269C138.571 95.9343 133.658 93.5332 133.658 93.5332L120.312 101.289Z" fill="#B97964"/>
    <path d="M40.7328 68.8013C40.273 68.8013 39.8509 68.5341 39.7217 68.1262C39.5665 67.6357 39.8934 67.1273 40.452 66.9908L113.662 49.111C114.219 48.9748 114.799 49.2617 114.955 49.7523C115.11 50.2428 114.783 50.7512 114.225 50.8877L41.0147 68.7675C40.9206 68.7903 40.8259 68.8013 40.7328 68.8013Z" fill="#263238"/>
    <path opacity="0.3" d="M40.7328 68.8013C40.273 68.8013 39.8509 68.5341 39.7217 68.1262C39.5665 67.6357 39.8934 67.1273 40.452 66.9908L113.662 49.111C114.219 48.9748 114.799 49.2617 114.955 49.7523C115.11 50.2428 114.783 50.7512 114.225 50.8877L41.0147 68.7675C40.9206 68.7903 40.8259 68.8013 40.7328 68.8013Z" fill="white"/>
    <path d="M73.105 76.9083C73.105 76.9083 83.6834 65.8926 99.4685 68.9302C100.587 69.1454 101.651 69.5306 102.645 70.0284C107.447 72.4308 122.951 80.1856 123.273 80.3032C124.421 80.7229 131.947 83.6662 131.947 83.6662L133.053 90.7939L111.075 97.3421C111.075 97.3421 107.158 92.175 104.526 91.3656C97.0094 89.0539 86.2683 87.5347 79.996 85.9148" fill="#86C240"/>
    <path d="M101.441 89.6429C101.01 89.5295 107.935 101.599 126.983 103.169C128.576 99.1635 131.2 95.9459 135.976 94.3755C135.976 94.3755 120.573 86.3192 120.204 86.3192C119.835 86.3192 103.532 83.2481 101.441 89.6429Z" fill="#86C240"/>
    <path d="M127.09 103.092C127.084 103.092 127.078 103.091 127.072 103.091C113.017 102 106.097 93.788 103.493 90.696C103.016 90.1302 102.639 89.6828 102.453 89.5665C101.426 88.9225 89.9596 87.0223 85.6282 86.3445C85.5141 86.3265 85.4381 86.231 85.4584 86.1305C85.4785 86.0304 85.5857 85.9634 85.702 85.9814C86.3416 86.0816 101.383 88.4424 102.697 89.2661C102.937 89.4167 103.273 89.8157 103.83 90.4766C106.404 93.5319 113.242 101.648 127.108 102.724C127.224 102.733 127.309 102.822 127.299 102.924C127.289 103.019 127.198 103.092 127.09 103.092Z" fill="white"/>
    <path d="M118.604 78.499C118.604 78.499 131.793 79.7142 144.024 85.5019C142.288 85.2927 135.329 92.9375 135.977 94.3762C136.093 94.6349 120.809 86.626 120.44 86.6253C120.071 86.6246 119.385 78.6479 118.604 78.499Z" fill="#86C240"/>
    <path d="M135.95 94.0911C132.759 92.4217 129.543 90.7479 126.214 89.297C126.033 89.2181 125.873 89.4566 126.055 89.5359C129.384 90.9868 132.6 92.6605 135.791 94.33C135.966 94.4213 136.125 94.1822 135.95 94.0911Z" fill="#263238"/>
    <path d="M128.266 90.0254C128.515 88.9763 128.63 87.9062 128.605 86.8347C128.601 86.657 128.286 86.6564 128.29 86.8347C128.315 87.882 128.206 88.9264 127.962 89.9518C127.921 90.1255 128.225 90.1998 128.266 90.0254Z" fill="#263238"/>
    <path opacity="0.5" d="M89.0268 75.9021C89.0268 75.9021 102.641 82.6734 104.366 81.9577C106.09 81.2421 114.365 76.9715 113.687 76.4067C113.008 75.842 101.046 69.92 99.8252 69.974C98.6041 70.028 88.6637 75.1849 89.0268 75.9021Z" fill="white"/>
    <path opacity="0.3" d="M135.871 94.0175L136.28 93.1005L129.412 89.8176C129.412 89.8176 128.453 86.8676 128.452 86.9642C128.451 87.0609 128.114 90.4563 128.114 90.4563L135.871 94.0175Z" fill="black"/>
    <path opacity="0.5" d="M104.904 71.9912L93.3462 77.9837L98.5291 80.2629L109.754 74.322L104.904 71.9912Z" fill="white"/>
    <path d="M126.119 79.4971C107.848 84.9018 100.504 99.8792 100.504 99.8792L107.833 102.126C112.017 90.7324 132.803 81.3401 132.803 81.3401C130.736 80.486 128.485 79.9561 126.119 79.4971Z" fill="#263238"/>
    <path opacity="0.3" d="M126.119 79.4971C107.848 84.9018 100.504 99.8792 100.504 99.8792L107.833 102.126C112.017 90.7324 132.803 81.3401 132.803 81.3401C130.736 80.486 128.485 79.9561 126.119 79.4971Z" fill="black"/>
    <path d="M77.8465 85.7904C77.8465 85.7904 85.8053 87.1809 85.789 86.6409C85.7275 84.598 76.9601 77.0304 74.3129 76.6296C71.6656 76.2288 68.3603 80.4561 67.9039 80.6164C67.4474 80.7768 60.798 70.4346 60.798 70.4346L56.328 71.6211C56.2367 71.8616 60.7957 80.7771 63.0047 84.8781C63.0047 84.8781 65.2222 89.9599 70.1825 89.0961C75.1428 88.2322 77.8465 85.7904 77.8465 85.7904Z" fill="#B97964"/>
    <path d="M78.1602 85.781C78.6958 84.306 77.9557 82.5946 76.448 81.7962C76.2739 81.704 76.1154 81.9431 76.289 82.035C77.6805 82.7719 78.3494 84.3499 77.8565 85.7074C77.7948 85.8774 78.0988 85.9502 78.1602 85.781Z" fill="#263238"/>
    <path d="M67.9386 80.7677C68.4665 81.6639 69.2896 82.3915 69.8175 83.2876C69.9107 83.4457 70.1826 83.306 70.0895 83.148C69.5615 82.2519 68.7385 81.5242 68.2106 80.6281C68.1174 80.47 67.8455 80.6097 67.9386 80.7677Z" fill="#263238"/>
    <path d="M55.231 69.717C55.231 69.717 52.5985 65.529 52.6857 64.3998C52.7729 63.2706 59.0833 62.9068 59.0816 62.9451C59.0798 62.9834 58.0943 66.3705 58.0507 66.4771C58.0071 66.5837 55.1284 68.7834 55.1284 68.7834" fill="#B97964"/>
    <path d="M52.4391 63.9415C52.4269 64.0666 53.5244 66.4136 54.4303 66.0861C55.1718 65.818 54.8353 64.7766 54.8353 64.7766C54.8353 64.7766 55.5884 66.8095 56.4559 65.9718C57.3234 65.134 56.4559 63.9866 56.4559 63.9866C56.4559 63.9866 56.8276 65.3699 57.8042 65.0387C58.7807 64.7075 58.2454 63.1062 58.1163 62.8266C57.8471 62.2436 57.239 61.1089 56.4664 61.4418C55.8824 61.6934 55.8824 62.1544 55.8824 62.1544C55.8824 62.1544 54.3926 61.8868 54.1894 62.8236C54.1894 62.8236 52.5806 62.4815 52.4391 63.9415Z" fill="#B97964"/>
    <path d="M59.7278 69.2794C59.5861 68.94 60.0775 66.4358 60.3472 64.9202C60.6169 63.4045 59.5921 60.8468 58.5132 60.7047C57.4345 60.5626 57.3191 61.4415 57.481 62.0996C57.6428 62.7579 58.1159 64.1969 57.9288 64.8742C57.8188 65.2721 54.6297 67.0516 54.8454 68.8041C55.0612 70.5566 56.835 70.8486 56.835 70.8486L59.7278 69.2794Z" fill="#B97964"/>
    <path d="M52.1724 63.7706C52.1747 63.9773 52.3454 64.221 52.4415 64.4018C52.6393 64.7739 52.8686 65.1378 53.1529 65.4646C53.3726 65.7172 53.6585 66.004 54.0309 66.0715C54.4366 66.145 54.7966 65.8755 54.9374 65.5598C55.0736 65.2543 55.0678 64.888 54.9869 64.5706L54.699 64.6772C54.9807 65.2133 55.7798 66.3472 56.6075 65.8673C57.2954 65.4684 56.857 64.3339 56.6174 63.8101L56.3295 63.9167C56.5886 64.3487 57.276 65.3488 57.9611 64.9373C58.2836 64.7436 58.3423 64.3616 58.334 64.045C58.3227 63.6108 58.201 63.1773 58.0596 62.7633C57.9478 62.436 57.816 62.1138 57.6679 61.7978C57.5918 61.6354 57.2869 61.7065 57.3641 61.8713C57.6948 62.5769 58.046 63.3838 58.019 64.1569C58.0062 64.5256 57.7746 64.9472 57.3229 64.6249C57.0161 64.4059 56.7843 64.0819 56.6015 63.7771C56.5201 63.6413 56.2463 63.7363 56.3137 63.8836C56.4123 64.0994 56.4894 64.3249 56.5492 64.5512C56.6258 64.8408 56.7649 65.3629 56.4807 65.6034C55.9154 66.0817 55.153 64.884 54.971 64.5375C54.8933 64.3896 54.6459 64.498 54.6831 64.6441C54.7562 64.9311 54.7656 65.2994 54.5912 65.5587C54.3217 65.9596 53.9087 65.7843 53.6194 65.5223C53.2899 65.2237 53.047 64.8479 52.834 64.4795C52.7445 64.3247 52.6596 64.1672 52.585 64.0063C52.5585 63.949 52.5344 63.8912 52.5106 63.8331C52.4996 63.8064 52.487 63.7408 52.4874 63.7706C52.4854 63.5927 52.1704 63.5922 52.1724 63.7706Z" fill="#A24E3F"/>
    <path d="M57.9817 64.7545C56.9979 65.4665 56.5872 66.7018 56.9709 67.7681C57.0317 67.9372 57.3359 67.865 57.2746 67.6945C56.9217 66.7137 57.3017 65.6034 58.2045 64.9501C58.361 64.8368 58.1371 64.6421 57.9817 64.7545Z" fill="#A24E3F"/>
    <path d="M54.9753 64.5871C54.7081 64.09 54.5139 63.5652 54.3908 63.0264C54.351 62.852 54.0473 62.9258 54.0871 63.0999C54.2156 63.6627 54.4243 64.2077 54.7033 64.7267C54.7396 64.7942 54.85 64.8117 54.9188 64.7763C54.9976 64.7359 55.0118 64.6549 54.9753 64.5871Z" fill="#A24E3F"/>
    <path d="M56.6175 63.8102C56.4131 63.2858 56.2088 62.7613 56.0044 62.2368C55.9392 62.0693 55.6348 62.1412 55.7007 62.3103C55.905 62.8348 56.1094 63.3593 56.3137 63.8838C56.379 64.0512 56.6833 63.9793 56.6175 63.8102Z" fill="#A24E3F"/>
    <path d="M55.6115 70.3506C55.5136 70.4163 56.735 73.76 56.735 73.76L62.014 71.9335L59.7168 68.7832L55.6115 70.3506Z" fill="#86C240"/>
    <path d="M51.9047 68.1955C50.1685 58.7261 43.615 51.7772 37.2672 52.6747C36.6994 52.755 36.1533 52.8978 35.6293 53.0936C31.5786 54.164 21.4017 56.9282 21.0586 57.0677L29.1083 90.9195L43.4806 86.974C43.5053 86.9708 43.5301 86.9699 43.5548 86.9664C49.9026 86.0689 53.641 77.6649 51.9047 68.1955Z" fill="#86C240"/>
    <path opacity="0.3" d="M51.9047 68.1955C50.1685 58.7261 43.615 51.7772 37.2672 52.6747C36.6994 52.755 36.1533 52.8978 35.6293 53.0936C31.5786 54.164 21.4017 56.9282 21.0586 57.0677L29.1083 90.9195L43.4806 86.974C43.5053 86.9708 43.5301 86.9699 43.5548 86.9664C49.9026 86.0689 53.641 77.6649 51.9047 68.1955Z" fill="black"/>
    <path d="M34.1347 89.6643C34.0334 89.6643 33.9442 89.5998 33.9276 89.509C33.9091 89.4086 33.9871 89.3138 34.1015 89.298C40.3248 88.4177 43.9926 80.0922 42.2776 70.7384C40.5623 61.3845 34.1029 54.4903 27.8807 55.3704C27.7656 55.3862 27.6582 55.318 27.6399 55.2176C27.6215 55.117 27.6994 55.0224 27.8138 55.0062C34.2672 54.095 40.9403 61.1251 42.6922 70.6797C44.444 80.2343 40.6201 88.7498 34.1684 89.6618C34.1571 89.6636 34.1458 89.6643 34.1347 89.6643Z" fill="#86C240"/>
    <path d="M39.5441 88.2703C39.4427 88.2703 39.3535 88.2058 39.3369 88.1151C39.3185 88.0146 39.3964 87.9199 39.5108 87.904C45.7341 87.0238 49.4095 78.7395 47.7039 69.4364C46.8746 64.9133 44.9101 60.8312 42.1723 57.9421C39.4602 55.0801 36.3186 53.7367 33.324 54.1604C33.21 54.1763 33.1017 54.108 33.0833 54.0077C33.0648 53.907 33.1427 53.8125 33.2572 53.7963C36.4049 53.3513 39.6841 54.7399 42.4951 57.7062C45.2803 60.6454 47.2773 64.7905 48.1186 69.3777C49.8609 78.8815 46.0294 87.3558 39.5777 88.2678C39.5664 88.2696 39.5551 88.2703 39.5441 88.2703Z" fill="#86C240"/>
    <path d="M29.003 90.9352C35.3508 90.0377 39.0892 81.6337 37.3529 72.1643C35.6166 62.6949 29.0632 55.746 22.7154 56.6435C16.3676 57.541 12.6292 65.945 14.3655 75.4144C16.1018 84.8838 22.6553 91.8327 29.003 90.9352Z" fill="#86C240"/>
    <path d="M27.7948 89.7086C22.4088 89.7086 17.0417 83.5149 15.5338 75.2916C13.9356 66.5738 17.2704 58.8262 22.9679 58.0205C28.6617 57.2132 34.6007 63.6518 36.1995 72.3696C36.9706 76.5751 36.6333 80.6818 35.2494 83.9338C33.8506 87.2206 31.5479 89.2473 28.7657 89.6406C28.4424 89.6863 28.1186 89.7086 27.7948 89.7086ZM23.9504 58.3205C23.6448 58.3205 23.3395 58.3416 23.0347 58.3846C17.5659 59.1579 14.387 66.7161 15.9485 75.2329C17.5103 83.7497 23.2294 90.0465 28.6988 89.2768C31.3256 88.9051 33.5124 86.962 34.8561 83.8045C36.2147 80.6118 36.5447 76.5716 35.7849 72.4283C34.3101 64.386 29.128 58.3205 23.9504 58.3205Z" fill="#263238"/>
    <path d="M26.9183 79.5671C28.9325 79.2823 30.1186 76.6158 29.5677 73.6112C29.0168 70.6066 26.9374 68.4018 24.9233 68.6865C22.9091 68.9713 21.723 71.6378 22.2739 74.6424C22.8248 77.647 24.9042 79.8519 26.9183 79.5671Z" fill="white"/>
    <path d="M17.3651 77.2896C16.9061 77.2896 16.4847 77.0234 16.3547 76.6163C16.1982 76.1261 16.5238 75.6172 17.0823 75.4796L25.6377 73.373C26.1951 73.2365 26.7757 73.5216 26.9322 74.0119C27.0886 74.5021 26.763 75.011 26.2046 75.1486L17.6491 77.2552C17.5544 77.2784 17.459 77.2896 17.3651 77.2896Z" fill="#263238"/>
    <path opacity="0.3" d="M17.3651 77.2896C16.9061 77.2896 16.4847 77.0234 16.3547 76.6163C16.1982 76.1261 16.5238 75.6172 17.0823 75.4796L25.6377 73.373C26.1951 73.2365 26.7757 73.5216 26.9322 74.0119C27.0886 74.5021 26.763 75.011 26.2046 75.1486L17.6491 77.2552C17.5544 77.2784 17.459 77.2896 17.3651 77.2896Z" fill="white"/>
    <path d="M168.598 121.05L168.803 123.848L168.833 124.25C168.846 124.427 169.161 124.428 169.148 124.25L168.943 121.453L168.913 121.05C168.9 120.873 168.585 120.872 168.598 121.05Z" fill="#263238"/>
    </svg>
    