<svg width="211" height="160" viewBox="0 0 211 160" fill="none" xmlns="http://www.w3.org/2000/svg">
    <path d="M186.947 113.129H111.032C110.379 113.128 109.754 112.895 109.292 112.481C108.831 112.067 108.571 111.505 108.57 110.92V11.6671C108.571 11.0815 108.831 10.5202 109.292 10.1061C109.754 9.69207 110.379 9.459 111.032 9.45801H186.947C187.599 9.459 188.224 9.69207 188.686 10.1061C189.147 10.5202 189.407 11.0815 189.408 11.6671V110.92C189.407 111.505 189.147 112.067 188.686 112.481C188.224 112.895 187.599 113.128 186.947 113.129ZM111.032 9.55225C110.407 9.55325 109.808 9.77639 109.367 10.1728C108.925 10.5692 108.676 11.1065 108.675 11.6671V110.92C108.676 111.48 108.925 112.018 109.367 112.414C109.808 112.811 110.407 113.034 111.032 113.035H186.947C187.571 113.035 188.171 112.812 188.613 112.415C189.054 112.019 189.303 111.481 189.303 110.92V11.6671C189.303 11.1062 189.054 10.5683 188.613 10.1717C188.171 9.77507 187.571 9.55225 186.947 9.55225H111.032Z" fill="#E0E0E0"/>
    <path d="M99.4057 113.129H23.4949C22.8418 113.129 22.2154 112.896 21.7531 112.482C21.2909 112.068 21.0307 111.506 21.0295 110.92V11.6671C21.0307 11.0809 21.2909 10.519 21.7531 10.1048C22.2154 9.69063 22.8418 9.45801 23.4949 9.45801H99.4057C100.058 9.45801 100.685 9.69076 101.146 10.105C101.608 10.5193 101.867 11.0812 101.867 11.6671V110.92C101.867 111.506 101.608 112.068 101.146 112.482C100.685 112.896 100.058 113.129 99.4057 113.129ZM23.4949 9.55225C22.8697 9.55225 22.2699 9.77495 21.8274 10.1715C21.3848 10.568 21.1357 11.1059 21.1345 11.6671V110.92C21.1323 111.199 21.1917 111.476 21.3094 111.735C21.427 111.994 21.6005 112.229 21.8199 112.428C22.0393 112.626 22.3003 112.783 22.5878 112.891C22.8752 112.998 23.1835 113.054 23.4949 113.054H99.4057C99.7152 113.054 100.022 112.999 100.307 112.893C100.593 112.786 100.853 112.63 101.072 112.434C101.291 112.238 101.464 112.005 101.583 111.748C101.701 111.491 101.762 111.216 101.762 110.939V11.6671C101.762 11.3894 101.701 11.1144 101.583 10.8578C101.464 10.6012 101.291 10.3681 101.072 10.1717C100.853 9.9753 100.593 9.81952 100.307 9.71324C100.022 9.60696 99.7152 9.55225 99.4057 9.55225H23.4949Z" fill="#E0E0E0"/>
    <path d="M210.5 136.151H0.5V136.246H210.5V136.151Z" fill="#E0E0E0"/>
    <path d="M28.9466 141.527H22.2014V141.622H28.9466V141.527Z" fill="#E0E0E0"/>
    <path d="M94.5295 140.506H72.0469V140.6H94.5295V140.506Z" fill="#E0E0E0"/>
    <path d="M44.5917 145.03H29.3667V145.125H44.5917V145.03Z" fill="#E0E0E0"/>
    <path d="M177.547 140.457H159.407V140.551H177.547V140.457Z" fill="#E0E0E0"/>
    <path d="M183.948 140.457H181.289V140.551H183.948V140.457Z" fill="#E0E0E0"/>
    <path d="M155.942 142.806H133.308V142.9H155.942V142.806Z" fill="#E0E0E0"/>
    <path d="M51.2191 37.3101C50.7078 36.9745 50.0995 36.7783 49.4671 36.7448C48.8348 36.7114 48.205 36.8422 47.6533 37.1216C46.2085 34.4827 42.1933 33.3517 39.3121 34.724C38.8978 33.3157 37.9805 32.0683 36.7007 31.1729C35.4209 30.2775 33.8493 29.7835 32.2267 29.7666C30.6053 29.8194 29.0479 30.348 27.7931 31.2713C26.5384 32.1946 25.6555 33.4617 25.2799 34.8785C25.2355 35.3386 25.0494 35.7785 24.7423 36.149C24.1543 36.6843 23.1799 36.5033 22.3483 36.4468C21.0321 36.384 19.7301 36.7174 18.649 37.3942C17.5678 38.0709 16.7693 39.0523 16.3801 40.1827L52.4539 40.0658C52.7689 38.9726 52.2271 37.9924 51.2191 37.3101Z" fill="#EBEBEB"/>
    <path d="M83.8867 19.701C83.4404 19.4067 82.9087 19.2344 82.3558 19.205C81.8029 19.1755 81.2523 19.2902 80.7703 19.5352C79.5103 17.2431 75.9865 16.2328 73.4749 17.4391C73.1347 16.2003 72.3377 15.1011 71.2135 14.3203C70.0893 13.5394 68.7039 13.1228 67.2825 13.1381C65.8611 13.1534 64.4873 13.5997 63.3842 14.4045C62.2812 15.2093 61.5138 16.3253 61.2067 17.5711C61.1732 17.98 61.0116 18.372 60.7405 18.702C60.2281 19.1695 59.3755 19.0149 58.6405 18.9621C57.4937 18.907 56.3589 19.195 55.4141 19.7811C54.4693 20.3671 53.7679 21.2181 53.4199 22.2004L84.9577 22.0987C85.0732 21.6487 85.0325 21.1777 84.841 20.7491C84.6496 20.3205 84.3166 19.9548 83.8867 19.701Z" fill="#F5F5F5"/>
    <path d="M177.392 18.9319C176.659 18.4503 175.787 18.1689 174.88 18.1214C173.973 18.0739 173.07 18.2624 172.28 18.6643C170.21 14.8944 164.443 13.2545 160.327 15.23C159.784 13.1889 158.484 11.3743 156.64 10.0842C154.796 8.79406 152.519 8.10513 150.181 8.13056C147.843 8.156 145.585 8.89428 143.777 10.2241C141.968 11.554 140.718 13.3964 140.23 15.4486C140.075 16.0932 139.974 16.802 139.457 17.2732C138.617 18.0272 137.223 17.7859 136.034 17.703C134.149 17.6129 132.284 18.0902 130.735 19.0592C129.186 20.0282 128.041 21.4335 127.483 23.0524L179.143 22.8865C179.613 21.3145 178.836 19.9121 177.392 18.9319Z" fill="#EBEBEB"/>
    <path d="M189.181 36.7557C188.791 36.5008 188.327 36.3518 187.846 36.3264C187.364 36.301 186.884 36.4003 186.464 36.6124C185.867 35.6315 184.873 34.8943 183.688 34.5539C182.502 34.2134 181.216 34.2958 180.096 34.784C179.81 33.6947 179.118 32.7256 178.136 32.0363C177.153 31.3471 175.938 30.9789 174.691 30.9926C173.444 31.0062 172.24 31.4007 171.276 32.1112C170.313 32.8217 169.648 33.8056 169.391 34.9009C169.353 35.2536 169.208 35.5902 168.971 35.8735C168.525 36.2807 167.782 36.145 167.144 36.0997C166.144 36.0594 165.158 36.3177 164.34 36.8341C163.521 37.3504 162.916 38.0958 162.62 38.9535L190.147 38.863C190.248 38.4652 190.21 38.0491 190.037 37.6717C189.864 37.2944 189.565 36.9744 189.181 36.7557Z" fill="#F5F5F5"/>
    <path d="M147.87 44.672L148.966 44.1593C149.005 44.1408 149.049 44.1312 149.094 44.1312C149.139 44.1312 149.182 44.1408 149.222 44.1593L150.314 44.6796C150.36 44.7057 150.413 44.7192 150.468 44.7182C150.522 44.7173 150.575 44.702 150.62 44.6742C150.665 44.6465 150.699 44.6076 150.72 44.5623C150.74 44.517 150.745 44.4673 150.734 44.4195L150.532 43.3262C150.524 43.2867 150.527 43.2459 150.541 43.2076C150.555 43.1694 150.579 43.1349 150.612 43.1076L151.503 42.3347C151.539 42.3024 151.565 42.2617 151.577 42.2171C151.589 42.1725 151.587 42.1257 151.571 42.082C151.556 42.0383 151.527 41.9993 151.488 41.9694C151.449 41.9395 151.402 41.9198 151.351 41.9125L150.129 41.7466C150.085 41.7407 150.042 41.7253 150.006 41.7017C149.969 41.6781 149.94 41.647 149.919 41.6109L149.377 40.6119C149.354 40.5706 149.319 40.5359 149.275 40.5117C149.231 40.4875 149.181 40.4746 149.13 40.4746C149.078 40.4746 149.028 40.4875 148.984 40.5117C148.94 40.5359 148.905 40.5706 148.882 40.6119L148.332 41.6034C148.311 41.6391 148.281 41.6699 148.244 41.6934C148.208 41.717 148.166 41.7326 148.122 41.7391L146.895 41.8937C146.844 41.9004 146.797 41.9197 146.757 41.9494C146.718 41.979 146.689 42.018 146.672 42.0618C146.656 42.1056 146.654 42.1525 146.666 42.1974C146.678 42.2423 146.703 42.2833 146.74 42.3159L147.622 43.0925C147.655 43.1206 147.679 43.1557 147.693 43.1946C147.707 43.2334 147.71 43.2748 147.702 43.3149L147.487 44.4081C147.481 44.4517 147.487 44.4961 147.505 44.5368C147.524 44.5776 147.554 44.6132 147.593 44.64C147.632 44.6668 147.678 44.6839 147.726 44.6895C147.775 44.6952 147.824 44.6891 147.87 44.672Z" fill="#F0F0F0"/>
    <path d="M38.5017 10.8903L39.9087 10.2344C39.9598 10.2103 40.0168 10.1977 40.0746 10.1977C40.1324 10.1977 40.1893 10.2103 40.2405 10.2344L41.6601 10.8903C41.7183 10.9188 41.7843 10.932 41.8504 10.9284C41.9166 10.9248 41.9803 10.9045 42.0343 10.8698C42.0882 10.8352 42.1302 10.7876 42.1553 10.7326C42.1805 10.6775 42.1879 10.6172 42.1767 10.5586L41.9163 9.15618C41.9062 9.10494 41.9105 9.05224 41.9289 9.00287C41.9472 8.9535 41.9789 8.90902 42.0213 8.87345L43.1385 7.87443C43.1865 7.83344 43.2206 7.78114 43.237 7.72353C43.2535 7.66593 43.2515 7.60533 43.2313 7.54868C43.2112 7.49204 43.1736 7.44163 43.123 7.40324C43.0725 7.36484 43.0108 7.34001 42.9453 7.33158L41.3787 7.12046C41.3213 7.11249 41.2669 7.09223 41.2201 7.06138C41.1733 7.03054 41.1355 6.99003 41.1099 6.94328L40.4001 5.66907C40.3711 5.61574 40.326 5.57078 40.2699 5.53933C40.2139 5.50789 40.1491 5.49121 40.083 5.49121C40.0169 5.49121 39.9521 5.50789 39.896 5.53933C39.8399 5.57078 39.7948 5.61574 39.7659 5.66907L39.0561 6.94328C39.0308 6.98992 38.993 7.03018 38.9461 7.06045C38.8991 7.09072 38.8446 7.11005 38.7873 7.11669L37.2207 7.31273C37.1578 7.32453 37.0997 7.35132 37.0524 7.39027C37.0051 7.42923 36.9704 7.47892 36.9519 7.5341C36.9334 7.58928 36.9318 7.64792 36.9474 7.70383C36.9629 7.75974 36.9949 7.81087 37.0401 7.85181L38.1699 8.85083C38.2114 8.88678 38.2424 8.93143 38.26 8.98078C38.2776 9.03013 38.2813 9.08263 38.2707 9.13356L37.9935 10.5322C37.9783 10.5915 37.9822 10.6534 38.0048 10.7107C38.0273 10.7681 38.0676 10.8185 38.1209 10.856C38.1742 10.8936 38.2383 10.9168 38.3057 10.9228C38.3732 10.9289 38.4411 10.9176 38.5017 10.8903Z" fill="#F0F0F0"/>
    <path d="M171.579 5.39441L172.986 4.73846C173.036 4.71436 173.092 4.70176 173.149 4.70176C173.207 4.70176 173.263 4.71436 173.313 4.73846L174.712 5.40572C174.77 5.43422 174.836 5.44741 174.902 5.44379C174.968 5.44017 175.032 5.41988 175.086 5.38525C175.14 5.35062 175.182 5.30305 175.207 5.24799C175.232 5.19294 175.24 5.13263 175.228 5.07397L174.968 3.67159C174.959 3.62036 174.964 3.56794 174.982 3.51875C175 3.46955 175.032 3.425 175.073 3.38885L176.211 2.40115C176.264 2.36104 176.303 2.30768 176.323 2.24777C176.343 2.18787 176.342 2.12409 176.321 2.06446C176.301 2.00484 176.261 1.95202 176.207 1.91265C176.153 1.87329 176.087 1.84913 176.018 1.84321L174.451 1.6321C174.395 1.62386 174.341 1.60345 174.295 1.57261C174.249 1.54176 174.212 1.50139 174.187 1.45492L173.494 0.176935C173.464 0.123761 173.419 0.0790475 173.362 0.047799C173.306 0.0165506 173.241 0 173.175 0C173.108 0 173.043 0.0165506 172.987 0.047799C172.931 0.0790475 172.885 0.123761 172.855 0.176935L172.146 1.46622C172.121 1.51238 172.084 1.55233 172.037 1.58257C171.991 1.61281 171.938 1.63241 171.881 1.63964L170.31 1.83567C170.245 1.84483 170.184 1.86997 170.134 1.90829C170.084 1.94661 170.047 1.99662 170.026 2.05281C170.006 2.10899 170.003 2.16915 170.018 2.22663C170.034 2.28412 170.066 2.33669 170.113 2.37853L171.238 3.37754C171.28 3.41291 171.31 3.45692 171.328 3.50561C171.346 3.5543 171.349 3.60615 171.339 3.65651L171.066 5.05889C171.056 5.11698 171.064 5.17641 171.089 5.23069C171.114 5.28497 171.156 5.332 171.209 5.36664C171.262 5.40128 171.324 5.42219 171.389 5.42709C171.455 5.43199 171.52 5.42068 171.579 5.39441Z" fill="#F0F0F0"/>
    <path d="M59.972 62.7001L61.1102 62.2666C61.1512 62.2499 61.1962 62.2429 61.2411 62.2462C61.2859 62.2495 61.329 62.263 61.3664 62.2855L62.408 62.8811C62.4518 62.9049 62.502 62.9174 62.5532 62.9172C62.6043 62.917 62.6544 62.904 62.6979 62.8798C62.7414 62.8556 62.7765 62.8211 62.7995 62.7801C62.8225 62.739 62.8324 62.6931 62.828 62.6474L62.7188 61.5428C62.7148 61.5023 62.7219 61.4616 62.7395 61.4241C62.757 61.3866 62.7846 61.3536 62.8196 61.3279L63.7688 60.6192C63.8088 60.5901 63.8388 60.5515 63.8554 60.5079C63.872 60.4642 63.8745 60.4172 63.8627 60.3723C63.8508 60.3274 63.8251 60.2864 63.7884 60.2541C63.7517 60.2217 63.7057 60.1993 63.6554 60.1894L62.45 59.9406C62.4067 59.9313 62.3665 59.9127 62.3329 59.8864C62.2993 59.8602 62.2732 59.827 62.2568 59.7898L61.82 58.7682C61.8007 58.7251 61.7684 58.6878 61.7267 58.6604C61.685 58.633 61.6355 58.6166 61.584 58.613C61.5324 58.6095 61.4808 58.619 61.4349 58.6404C61.3891 58.6618 61.3508 58.6943 61.3244 58.7343L60.6902 59.6843C60.6682 59.7193 60.6366 59.7488 60.5984 59.7699C60.5602 59.791 60.5166 59.803 60.4718 59.8049L59.237 59.8765C59.1858 59.88 59.1367 59.8961 59.0951 59.9231C59.0535 59.9502 59.021 59.9871 59.0014 60.0297C58.9818 60.0723 58.9758 60.119 58.984 60.1645C58.9923 60.21 59.0144 60.2526 59.048 60.2874L59.8586 61.1243C59.8885 61.154 59.9095 61.1899 59.9198 61.2288C59.9301 61.2677 59.9293 61.3082 59.9174 61.3468L59.6108 62.4212C59.6025 62.4636 59.6066 62.5073 59.6228 62.548C59.639 62.5886 59.6666 62.6247 59.7031 62.6529C59.7395 62.681 59.7834 62.7001 59.8306 62.7084C59.8777 62.7167 59.9265 62.7139 59.972 62.7001Z" fill="#F0F0F0"/>
    <path d="M43.6887 53.211L44.3817 52.7963C44.4085 52.7844 44.4379 52.7782 44.4678 52.7782C44.4977 52.7782 44.5272 52.7844 44.5539 52.7963L45.3267 53.0715C45.3589 53.0834 45.3942 53.0869 45.4285 53.0816C45.4628 53.0763 45.4947 53.0624 45.5206 53.0415C45.5465 53.0207 45.5653 52.9937 45.5748 52.9636C45.5844 52.9336 45.5843 52.9017 45.5745 52.8717L45.3435 52.1517C45.3361 52.1256 45.3356 52.0984 45.3422 52.0722C45.3487 52.046 45.3622 52.0215 45.3813 52.0009L45.9105 51.4241C45.9324 51.4003 45.9465 51.3715 45.9512 51.3409C45.9559 51.3104 45.9509 51.2792 45.937 51.251C45.923 51.2228 45.9006 51.1987 45.8721 51.1813C45.8437 51.1639 45.8105 51.154 45.7761 51.1527L44.9361 51.1263C44.9058 51.1244 44.8764 51.1163 44.8502 51.1026C44.824 51.0888 44.8016 51.0699 44.7849 51.0471L44.3397 50.4175C44.3216 50.3908 44.2954 50.3692 44.2641 50.3553C44.2329 50.3413 44.1979 50.3356 44.1632 50.3387C44.1285 50.3419 44.0955 50.3538 44.068 50.3731C44.0405 50.3924 44.0197 50.4182 44.0079 50.4477L43.7181 51.1489C43.7082 51.1744 43.6916 51.1973 43.6697 51.2157C43.6477 51.2341 43.6211 51.2474 43.5921 51.2545L42.7857 51.4392C42.7527 51.4478 42.7229 51.4643 42.6995 51.487C42.6762 51.5097 42.6602 51.5377 42.6533 51.568C42.6464 51.5983 42.6488 51.6296 42.6603 51.6588C42.6718 51.6879 42.6919 51.7136 42.7185 51.7332L43.3737 52.1931C43.3964 52.211 43.4145 52.2331 43.4268 52.2578C43.4391 52.2825 43.4454 52.3093 43.4451 52.3364L43.3905 53.0904C43.3926 53.1205 43.4038 53.1496 43.4229 53.1745C43.442 53.1994 43.4683 53.2191 43.499 53.2315C43.5297 53.2439 43.5636 53.2486 43.5971 53.245C43.6305 53.2413 43.6622 53.2296 43.6887 53.211Z" fill="#F0F0F0"/>
    <path d="M195.435 46.6439L196.123 46.2255C196.15 46.2135 196.18 46.2073 196.209 46.2073C196.239 46.2073 196.269 46.2135 196.296 46.2255L197.068 46.5007C197.101 46.5115 197.136 46.514 197.17 46.508C197.204 46.502 197.236 46.4877 197.261 46.4667C197.287 46.4456 197.306 46.4187 197.315 46.3888C197.325 46.3589 197.325 46.3272 197.316 46.2971L197.089 45.5808C197.081 45.5543 197.08 45.5262 197.086 45.4992C197.093 45.4723 197.107 45.4472 197.127 45.4263L197.656 44.8533C197.678 44.8288 197.692 44.7995 197.696 44.7685C197.7 44.7375 197.695 44.7061 197.681 44.6776C197.666 44.6492 197.644 44.6248 197.615 44.6072C197.586 44.5897 197.552 44.5796 197.518 44.5781L196.678 44.5517C196.647 44.5501 196.618 44.5421 196.592 44.5283C196.565 44.5146 196.543 44.4954 196.527 44.4725L196.081 43.8429C196.063 43.8163 196.036 43.7949 196.005 43.7812C195.973 43.7675 195.938 43.7622 195.903 43.7657C195.869 43.7693 195.836 43.7816 195.809 43.8013C195.781 43.8209 195.761 43.8472 195.75 43.8769L195.464 44.5781C195.454 44.6035 195.437 44.6264 195.415 44.6448C195.394 44.6632 195.367 44.6765 195.338 44.6836L194.532 44.8683C194.498 44.8765 194.468 44.8927 194.444 44.9152C194.42 44.9377 194.404 44.9656 194.396 44.9959C194.389 45.0262 194.391 45.0578 194.402 45.0871C194.414 45.1165 194.434 45.1425 194.46 45.1624L195.115 45.6223C195.14 45.6388 195.159 45.6606 195.172 45.6857C195.184 45.7107 195.189 45.7382 195.187 45.7656L195.136 46.5195C195.139 46.5494 195.15 46.5782 195.17 46.6028C195.189 46.6274 195.215 46.6471 195.245 46.6597C195.275 46.6723 195.309 46.6776 195.342 46.6748C195.375 46.672 195.407 46.6614 195.435 46.6439Z" fill="#F0F0F0"/>
    <path d="M122.275 54.4247L122.968 54.0062C122.995 53.9943 123.024 53.9881 123.054 53.9881C123.084 53.9881 123.113 53.9943 123.14 54.0062L123.913 54.2814C123.945 54.2922 123.981 54.2947 124.015 54.2887C124.049 54.2827 124.08 54.2684 124.106 54.2474C124.131 54.2264 124.15 54.1994 124.16 54.1695C124.169 54.1396 124.17 54.1079 124.161 54.0779L123.93 53.3616C123.922 53.3356 123.922 53.3083 123.928 53.2821C123.935 53.2559 123.948 53.2314 123.967 53.2108L124.497 52.634C124.518 52.6096 124.532 52.5803 124.536 52.5493C124.541 52.5183 124.535 52.4868 124.521 52.4584C124.507 52.4299 124.484 52.4056 124.455 52.388C124.426 52.3704 124.393 52.3603 124.358 52.3588L123.518 52.3324C123.488 52.3322 123.458 52.3252 123.432 52.312C123.405 52.2988 123.383 52.2799 123.367 52.257L122.93 51.6048C122.912 51.5779 122.886 51.5562 122.855 51.5423C122.824 51.5284 122.789 51.5229 122.754 51.5265C122.719 51.53 122.687 51.5426 122.66 51.5625C122.633 51.5824 122.613 51.6089 122.602 51.6388L122.3 52.3588C122.29 52.3843 122.274 52.4072 122.252 52.4256C122.23 52.444 122.203 52.4573 122.174 52.4644L121.368 52.6491C121.334 52.6565 121.303 52.6724 121.278 52.6951C121.254 52.7177 121.237 52.7461 121.23 52.777C121.223 52.8078 121.226 52.8398 121.238 52.8692C121.251 52.8986 121.272 52.9243 121.3 52.9431L121.956 53.4031C121.979 53.4208 121.997 53.4428 122.009 53.4675C122.021 53.4923 122.028 53.5192 122.027 53.5463L121.972 54.3003C121.975 54.3308 121.986 54.3603 122.005 54.3855C122.025 54.4107 122.051 54.4307 122.082 54.4435C122.113 54.4562 122.148 54.4612 122.181 54.4579C122.215 54.4546 122.248 54.4431 122.275 54.4247Z" fill="#F0F0F0"/>
    <path d="M117.924 20.5497L118.612 20.1351C118.639 20.1222 118.668 20.1154 118.698 20.1154C118.728 20.1154 118.758 20.1222 118.785 20.1351L119.562 20.4065C119.594 20.4184 119.629 20.4219 119.663 20.4166C119.698 20.4113 119.73 20.3974 119.755 20.3765C119.781 20.3556 119.8 20.3286 119.81 20.2986C119.819 20.2685 119.819 20.2367 119.809 20.2067L119.578 19.4866C119.57 19.4607 119.569 19.4332 119.575 19.4068C119.582 19.3804 119.596 19.356 119.616 19.3358L120.145 18.7591C120.167 18.735 120.182 18.7059 120.186 18.675C120.191 18.6441 120.185 18.6127 120.171 18.5844C120.156 18.556 120.133 18.5319 120.104 18.5148C120.075 18.4977 120.041 18.4883 120.007 18.4876L119.167 18.4612C119.137 18.4594 119.108 18.4512 119.083 18.4375C119.057 18.4237 119.036 18.4047 119.02 18.3821L118.57 17.7525C118.552 17.7258 118.526 17.7042 118.495 17.6902C118.464 17.6763 118.429 17.6705 118.394 17.6737C118.359 17.6769 118.326 17.6888 118.299 17.708C118.271 17.7273 118.25 17.7532 118.239 17.7827L117.953 18.4876C117.943 18.5126 117.926 18.5349 117.904 18.5526C117.882 18.5704 117.856 18.583 117.827 18.5894L117.021 18.7779C116.987 18.7858 116.957 18.8019 116.934 18.8242C116.91 18.8465 116.894 18.8743 116.887 18.9044C116.88 18.9346 116.883 18.9658 116.894 18.9947C116.906 19.0237 116.926 19.0491 116.953 19.0682L117.609 19.5319C117.631 19.5486 117.649 19.57 117.661 19.5943C117.673 19.6186 117.678 19.645 117.676 19.6714L117.625 20.4253C117.627 20.4558 117.637 20.4854 117.656 20.5108C117.675 20.5362 117.701 20.5564 117.732 20.5693C117.763 20.5821 117.797 20.5871 117.831 20.5837C117.865 20.5802 117.897 20.5685 117.924 20.5497Z" fill="#F0F0F0"/>
    <path d="M82.2699 5.46228L82.9629 5.04759C82.9893 5.03472 83.0189 5.02798 83.049 5.02798C83.0791 5.02798 83.1087 5.03472 83.1351 5.04759L83.9079 5.32279C83.9401 5.33469 83.9754 5.33819 84.0097 5.33289C84.044 5.32759 84.0759 5.31369 84.1018 5.29282C84.1277 5.27194 84.1465 5.24492 84.156 5.21488C84.1656 5.18483 84.1655 5.15298 84.1557 5.12299L83.9289 4.40295C83.9205 4.37725 83.9192 4.3501 83.9251 4.32384C83.9309 4.29759 83.9438 4.27299 83.9625 4.25215L84.5001 3.65652C84.522 3.63273 84.5361 3.60393 84.5408 3.57336C84.5455 3.54278 84.5405 3.51164 84.5266 3.48344C84.5126 3.45524 84.4902 3.43109 84.4617 3.41371C84.4333 3.39634 84.4001 3.38643 84.3657 3.38509L83.5257 3.35493C83.4955 3.35472 83.4658 3.34771 83.4394 3.33453C83.413 3.32136 83.3907 3.30245 83.3745 3.27953L82.9293 2.64997C82.9112 2.62322 82.885 2.60162 82.8538 2.58767C82.8225 2.57373 82.7875 2.568 82.7528 2.57116C82.7181 2.57431 82.6851 2.58622 82.6576 2.6055C82.6301 2.62478 82.6093 2.65066 82.5975 2.68013L82.3119 3.38132C82.301 3.40689 82.2836 3.42978 82.2609 3.44813C82.2383 3.46647 82.2112 3.47975 82.1817 3.48687L81.3753 3.6716C81.3423 3.68021 81.3125 3.69676 81.2891 3.71947C81.2658 3.74217 81.2498 3.77016 81.2429 3.80042C81.236 3.83068 81.2384 3.86207 81.2499 3.89118C81.2614 3.9203 81.2815 3.94605 81.3081 3.96565L81.9801 4.42557C82.0037 4.44272 82.0225 4.46464 82.0349 4.48953C82.0473 4.51442 82.053 4.54159 82.0515 4.56882L81.9969 5.32279C81.9981 5.35101 82.0073 5.37848 82.0236 5.40262C82.0399 5.42676 82.0628 5.44676 82.0902 5.46073C82.1175 5.4747 82.1484 5.48217 82.1798 5.48244C82.2113 5.48271 82.2423 5.47577 82.2699 5.46228Z" fill="#F0F0F0"/>
    <path d="M131.061 35.1948L131.616 34.8631C131.637 34.8529 131.661 34.8475 131.685 34.8475C131.709 34.8475 131.733 34.8529 131.754 34.8631L132.376 35.0855C132.402 35.0939 132.43 35.0957 132.457 35.0909C132.484 35.086 132.509 35.0746 132.529 35.0579C132.549 35.0412 132.564 35.0199 132.572 34.9962C132.58 34.9725 132.58 34.9473 132.573 34.9234L132.393 34.3466C132.385 34.3257 132.383 34.3033 132.387 34.2815C132.392 34.2598 132.402 34.2394 132.418 34.2222L132.838 33.7623C132.856 33.7429 132.867 33.7194 132.871 33.6943C132.875 33.6693 132.871 33.6438 132.86 33.6207C132.849 33.5976 132.83 33.5778 132.807 33.5635C132.784 33.5492 132.757 33.541 132.729 33.5399L132.061 33.521C132.036 33.5197 132.012 33.5133 131.991 33.5021C131.97 33.491 131.952 33.4755 131.939 33.4569L131.578 32.9518C131.563 32.9304 131.542 32.9132 131.517 32.9021C131.492 32.8911 131.464 32.8867 131.436 32.8895C131.408 32.8922 131.382 32.9021 131.36 32.9178C131.338 32.9335 131.322 32.9544 131.313 32.9782L131.082 33.5399C131.074 33.56 131.061 33.5781 131.043 33.5925C131.026 33.607 131.004 33.6174 130.981 33.6228L130.335 33.7736C130.307 33.7794 130.283 33.792 130.263 33.8099C130.244 33.8279 130.23 33.8504 130.225 33.8749C130.219 33.8994 130.221 33.9249 130.231 33.9484C130.241 33.9718 130.258 33.9923 130.28 34.0073L130.805 34.3843C130.824 34.3975 130.839 34.4148 130.848 34.4346C130.858 34.4544 130.862 34.476 130.86 34.4974L130.822 35.0968C130.823 35.1213 130.831 35.1451 130.846 35.1655C130.862 35.1859 130.883 35.2022 130.908 35.2123C130.932 35.2225 130.96 35.2263 130.987 35.2232C131.014 35.2201 131.04 35.2103 131.061 35.1948Z" fill="#F0F0F0"/>
    <path d="M128.898 6.31007L129.44 5.98964C129.461 5.97941 129.485 5.97406 129.509 5.97406C129.533 5.97406 129.557 5.97941 129.579 5.98964L130.2 6.20829C130.226 6.2176 130.255 6.22019 130.282 6.21577C130.31 6.21134 130.336 6.20008 130.357 6.18324C130.378 6.1664 130.393 6.14466 130.401 6.12045C130.409 6.09623 130.409 6.07052 130.402 6.04619L130.217 5.4694C130.21 5.44869 130.209 5.42678 130.214 5.40569C130.22 5.3846 130.231 5.36502 130.246 5.34876L130.7 4.85868C130.717 4.83924 130.727 4.81605 130.731 4.79161C130.734 4.76717 130.73 4.74238 130.719 4.71992C130.707 4.69745 130.69 4.67815 130.667 4.66408C130.644 4.65001 130.618 4.64169 130.591 4.64003L129.923 4.61741C129.899 4.61717 129.875 4.61153 129.854 4.601C129.832 4.59048 129.814 4.57539 129.801 4.55709L129.44 4.04816C129.424 4.02815 129.402 4.01231 129.377 4.00228C129.352 3.99225 129.324 3.98838 129.297 3.99106C129.27 3.99374 129.244 4.00288 129.222 4.01755C129.199 4.03222 129.182 4.05189 129.171 4.07455L128.944 4.64003C128.936 4.66059 128.922 4.67895 128.904 4.69343C128.885 4.70791 128.863 4.71806 128.839 4.72297L128.18 4.85868C128.153 4.86446 128.128 4.87706 128.109 4.895C128.089 4.91293 128.076 4.93548 128.07 4.95999C128.064 4.9845 128.066 5.00997 128.076 5.03342C128.086 5.05687 128.103 5.07733 128.125 5.09241L128.65 5.4694C128.669 5.48397 128.684 5.50194 128.694 5.5221C128.704 5.54226 128.709 5.56414 128.709 5.58626L128.667 6.1819C128.663 6.20765 128.666 6.23406 128.679 6.25779C128.691 6.28152 128.71 6.30151 128.735 6.31523C128.76 6.32894 128.788 6.33578 128.817 6.33486C128.847 6.33394 128.875 6.32532 128.898 6.31007Z" fill="#F0F0F0"/>
    <path d="M69.9175 46.2633L70.3711 45.9919C70.3882 45.9825 70.4078 45.9776 70.4278 45.9776C70.4478 45.9776 70.4674 45.9825 70.4845 45.9919L70.9927 46.1728C71.014 46.1808 71.0373 46.1832 71.06 46.1798C71.0828 46.1763 71.1039 46.1671 71.1211 46.1533C71.1382 46.1395 71.1507 46.1216 71.1569 46.1017C71.1632 46.0818 71.1631 46.0607 71.1565 46.0409L71.0053 45.5659C71.0008 45.5489 71.0007 45.5312 71.0051 45.5142C71.0095 45.4972 71.0182 45.4813 71.0305 45.4679L71.3791 45.0909C71.393 45.0752 71.4018 45.0564 71.4046 45.0365C71.4074 45.0167 71.4041 44.9965 71.395 44.9782C71.3859 44.9599 71.3714 44.9443 71.353 44.9329C71.3347 44.9215 71.3132 44.9149 71.2909 44.9137L70.7407 44.8948C70.718 44.8914 70.6967 44.8826 70.6789 44.8694C70.6612 44.8561 70.6478 44.8389 70.6399 44.8194L70.3459 44.4048C70.3337 44.3873 70.3162 44.3732 70.2955 44.3643C70.2747 44.3554 70.2516 44.3519 70.2288 44.3542C70.2059 44.3566 70.1843 44.3647 70.1664 44.3777C70.1484 44.3906 70.135 44.4078 70.1275 44.4274L69.9385 44.8873C69.9316 44.9042 69.9204 44.9195 69.9059 44.932C69.8913 44.9444 69.8737 44.9536 69.8545 44.9589L69.3253 45.0796C69.3031 45.0844 69.2829 45.0948 69.2669 45.1095C69.251 45.1242 69.24 45.1427 69.2352 45.1627C69.2303 45.1828 69.2319 45.2036 69.2397 45.2229C69.2474 45.2422 69.2611 45.2592 69.2791 45.2718L69.6991 45.5772C69.714 45.5881 69.7259 45.6019 69.7339 45.6176C69.7419 45.6333 69.7458 45.6504 69.7453 45.6677L69.7117 46.1577C69.704 46.1813 69.7053 46.2066 69.7156 46.2294C69.7258 46.2523 69.7443 46.2713 69.7681 46.2835C69.7919 46.2958 69.8196 46.3004 69.8467 46.2967C69.8738 46.293 69.8988 46.2813 69.9175 46.2633Z" fill="#F0F0F0"/>
    <path d="M29.9253 22.2423L30.3831 21.9709C30.3995 21.9619 30.4184 21.9572 30.4377 21.9572C30.457 21.9572 30.4758 21.9619 30.4923 21.9709L31.0047 22.1519C31.0257 22.1589 31.0485 22.1605 31.0706 22.1566C31.0926 22.1527 31.113 22.1434 31.1295 22.1297C31.146 22.1161 31.158 22.0986 31.1641 22.0792C31.1703 22.0598 31.1703 22.0393 31.1643 22.0199L31.0173 21.5449C31.0081 21.5299 31.0033 21.513 31.0033 21.4959C31.0033 21.4788 31.0081 21.4619 31.0173 21.4469L31.3659 21.0699C31.3815 21.0547 31.3918 21.0358 31.3956 21.0154C31.3993 20.995 31.3963 20.9741 31.3869 20.9552C31.3775 20.9363 31.3622 20.9204 31.3427 20.9093C31.3233 20.8982 31.3007 20.8924 31.2777 20.8927H30.7317C30.7116 20.8913 30.692 20.8858 30.6746 20.8767C30.6571 20.8675 30.6422 20.855 30.6309 20.8399L30.3369 20.4253C30.3247 20.4078 30.3072 20.3937 30.2865 20.3848C30.2657 20.3759 30.2426 20.3724 30.2197 20.3747C30.1969 20.3771 30.1753 20.3852 30.1573 20.3982C30.1394 20.4111 30.126 20.4284 30.1185 20.4479L29.9295 20.9078C29.9232 20.9251 29.9123 20.9407 29.8976 20.9532C29.8829 20.9657 29.865 20.9747 29.8455 20.9794L29.3373 21.0699C29.3154 21.0753 29.2956 21.086 29.2802 21.1009C29.2647 21.1159 29.2542 21.1344 29.2498 21.1543C29.2455 21.1743 29.2474 21.195 29.2554 21.2141C29.2635 21.2331 29.2773 21.2498 29.2953 21.2622L29.7153 21.5675C29.7316 21.5772 29.7446 21.5909 29.7528 21.6068C29.761 21.6228 29.764 21.6406 29.7615 21.658L29.7279 22.1481C29.726 22.1694 29.731 22.1907 29.7424 22.2094C29.7539 22.2281 29.7711 22.2434 29.7921 22.2534C29.8131 22.2634 29.8369 22.2677 29.8605 22.2658C29.8842 22.2638 29.9067 22.2556 29.9253 22.2423Z" fill="#F0F0F0"/>
    <path d="M101.644 18.6304L102.904 18.0121C102.951 17.9906 103.002 17.9794 103.054 17.9794C103.105 17.9794 103.157 17.9906 103.203 18.0121L104.484 18.5964C104.537 18.6205 104.598 18.6305 104.658 18.6256C104.717 18.6206 104.775 18.6007 104.823 18.5682C104.87 18.5357 104.907 18.4919 104.929 18.4416C104.951 18.3913 104.957 18.3366 104.946 18.2835L104.681 17.0169C104.671 16.9709 104.674 16.9235 104.69 16.8788C104.705 16.8342 104.732 16.7935 104.769 16.7605L105.781 15.8482C105.823 15.8099 105.852 15.762 105.865 15.7098C105.879 15.6575 105.876 15.603 105.856 15.5523C105.837 15.5016 105.803 15.4566 105.757 15.4223C105.711 15.3881 105.656 15.3658 105.597 15.3581L104.173 15.1922C104.121 15.1865 104.071 15.1694 104.028 15.1425C103.984 15.1156 103.949 15.0796 103.925 15.0377L103.27 13.9067C103.243 13.8592 103.201 13.8194 103.151 13.7916C103.1 13.7637 103.042 13.749 102.982 13.749C102.923 13.749 102.864 13.7637 102.814 13.7916C102.763 13.8194 102.722 13.8592 102.694 13.9067L102.081 15.0716C102.059 15.1142 102.026 15.1512 101.984 15.1795C101.942 15.2077 101.894 15.2264 101.842 15.2337L100.422 15.4373C100.364 15.4468 100.309 15.4705 100.265 15.506C100.22 15.5414 100.188 15.5872 100.17 15.6382C100.153 15.6892 100.152 15.7436 100.166 15.7953C100.181 15.8469 100.212 15.8939 100.254 15.9311L101.3 16.8057C101.339 16.837 101.368 16.8766 101.385 16.9208C101.402 16.965 101.406 17.0123 101.397 17.0583L101.178 18.3325C101.169 18.3853 101.176 18.4393 101.199 18.4886C101.222 18.5379 101.26 18.5804 101.308 18.6114C101.357 18.6423 101.414 18.6605 101.473 18.6639C101.533 18.6672 101.592 18.6556 101.644 18.6304Z" fill="#F0F0F0"/>
    <path d="M193.23 157.686C193.23 158.964 153.951 160.001 105.5 160.001C57.0489 160.001 17.7705 158.964 17.7705 157.686C17.7705 156.408 57.0489 155.375 105.5 155.375C153.951 155.375 193.23 156.408 193.23 157.686Z" fill="#F5F5F5"/>
    <path d="M187.648 151.314C187.228 150.428 184.561 152.128 184.561 152.128C184.561 152.128 188.74 147.743 187.123 147.065C185.506 146.386 183.238 150.673 183.238 150.673C183.238 150.673 187.068 141.866 184.611 141.685C182.154 141.504 181.352 150.428 181.352 150.428C181.352 150.428 181.381 143.861 179.794 144.505C178.206 145.15 179.344 151.129 179.344 151.129C179.344 151.129 177.564 148.637 177.198 149.745C176.833 150.854 180.919 155.815 180.919 155.815C183.62 154.661 188.051 152.203 187.648 151.314Z" fill="#86C240"/>
    <path opacity="0.3" d="M180.903 155.954C180.889 155.951 180.876 155.946 180.865 155.939C180.853 155.932 180.844 155.923 180.836 155.912C180.829 155.902 180.824 155.89 180.822 155.878C180.819 155.865 180.82 155.853 180.823 155.841C180.823 155.799 181.835 151.784 182.599 149.115C182.603 149.103 182.609 149.092 182.617 149.082C182.626 149.071 182.636 149.063 182.648 149.057C182.661 149.05 182.674 149.046 182.688 149.045C182.702 149.043 182.716 149.044 182.73 149.047C182.743 149.05 182.755 149.056 182.766 149.063C182.776 149.071 182.785 149.08 182.792 149.09C182.799 149.101 182.803 149.113 182.804 149.125C182.806 149.137 182.805 149.149 182.801 149.161C182.041 151.83 181.037 155.841 181.029 155.882C181.026 155.894 181.02 155.906 181.012 155.916C181.004 155.926 180.994 155.935 180.982 155.942C180.97 155.948 180.957 155.953 180.944 155.955C180.93 155.957 180.916 155.957 180.903 155.954Z" fill="black"/>
    <path opacity="0.3" d="M181.57 153.296C181.547 153.297 181.524 153.291 181.505 153.279C181.486 153.266 181.472 153.249 181.465 153.229L180.739 150.684C180.732 150.659 180.737 150.634 180.751 150.612C180.765 150.59 180.788 150.574 180.814 150.567C180.841 150.561 180.869 150.565 180.893 150.578C180.916 150.591 180.933 150.611 180.94 150.635L181.671 153.18C181.678 153.204 181.674 153.23 181.659 153.252C181.645 153.273 181.623 153.289 181.596 153.296H181.57Z" fill="black"/>
    <path d="M51.8282 149.508C51.257 149.037 50.0768 150.892 50.0768 150.892C50.0768 150.892 51.3368 146.862 50.0306 146.858C48.7244 146.854 48.7076 150.3 48.7076 150.3C48.7076 150.3 48.2204 143.461 46.5446 144.015C44.8688 144.57 47.3846 150.658 47.3846 150.658C47.3846 150.658 45.1628 146.334 44.3354 147.193C43.508 148.053 46.301 151.664 46.301 151.664C46.301 151.664 44.2808 150.515 44.4194 151.344C44.558 152.173 48.9344 154.307 48.9344 154.307C50.3162 152.814 52.3952 149.998 51.8282 149.508Z" fill="#86C240"/>
    <path opacity="0.3" d="M48.947 154.442C48.9232 154.442 48.9002 154.434 48.8819 154.421C48.8636 154.407 48.851 154.388 48.8462 154.367C48.8462 154.341 48.128 151.427 47.7164 149.466C47.7126 149.442 47.7191 149.417 47.7346 149.397C47.7502 149.377 47.7737 149.362 47.8004 149.357C47.8277 149.353 47.8558 149.358 47.8786 149.372C47.9014 149.386 47.9171 149.408 47.9222 149.432C48.3422 151.396 49.0436 154.307 49.052 154.333C49.0572 154.358 49.0518 154.383 49.037 154.404C49.0222 154.425 48.999 154.44 48.9722 154.446L48.947 154.442Z" fill="black"/>
    <path opacity="0.3" d="M48.4765 152.512C48.4612 152.512 48.4462 152.509 48.4324 152.503C48.4186 152.497 48.4064 152.489 48.3967 152.478L47.0485 151.008C47.0306 150.988 47.0222 150.963 47.0249 150.938C47.0277 150.913 47.0414 150.89 47.0632 150.874C47.0849 150.858 47.1128 150.851 47.1407 150.853C47.1687 150.855 47.1944 150.868 47.2123 150.887L48.5605 152.361C48.5797 152.379 48.5905 152.403 48.5905 152.427C48.5905 152.452 48.5797 152.476 48.5605 152.493C48.5489 152.502 48.5354 152.508 48.5208 152.511C48.5063 152.514 48.4911 152.515 48.4765 152.512Z" fill="black"/>
    <path d="M105.303 78.9325L111.04 81.8014C111.04 81.8014 109.394 85.6202 109.049 87.4185C108.335 91.1695 108.377 100.99 108.377 100.99L111.342 101.171C111.342 101.171 117.004 85.2734 117.756 82.9512C118.487 80.6893 119.016 79.023 117.873 77.6018C116.731 76.1805 109.427 73.9639 109.427 73.9639L105.303 78.9325Z" fill="#B97964"/>
    <path d="M111.8 100.119L110.805 100.101C110.686 100.105 110.571 100.137 110.471 100.194C110.371 100.251 110.289 100.331 110.234 100.425C109.641 101.299 109.217 100.956 108.612 100.112C108.213 100.055 108.096 100.568 108.062 100.704L107.252 103.75C107.213 103.864 107.219 103.986 107.269 104.096C107.32 104.206 107.412 104.297 107.529 104.353C107.568 104.365 107.609 104.371 107.651 104.372L110.935 104.432L115.53 104.511C116.79 104.534 117.176 103.162 116.349 102.909C114.043 102.291 112.628 101.544 111.926 100.768C111.8 100.632 111.926 100.534 111.8 100.119Z" fill="#263238"/>
    <path d="M113.93 101.028C113.987 100.98 114.033 100.922 114.063 100.857C114.094 100.792 114.108 100.722 114.106 100.651C114.113 100.615 114.11 100.577 114.097 100.543C114.084 100.508 114.061 100.476 114.03 100.451C113.724 100.195 112.468 100.828 112.325 100.907C112.317 100.91 112.309 100.914 112.303 100.92C112.297 100.926 112.293 100.934 112.292 100.941C112.286 100.956 112.285 100.972 112.291 100.987C112.296 101.002 112.307 101.015 112.321 101.024C112.623 101.11 112.937 101.16 113.253 101.175C113.491 101.207 113.734 101.154 113.93 101.028ZM113.951 100.568C113.964 100.578 113.973 100.591 113.978 100.606C113.984 100.621 113.984 100.636 113.98 100.651C113.975 100.752 113.929 100.847 113.85 100.919C113.564 101.153 112.884 101.036 112.518 100.953C113.06 100.704 113.783 100.429 113.951 100.568Z" fill="#86C240"/>
    <path d="M112.363 101.051C112.741 100.881 113.539 100.199 113.505 99.8331C113.505 99.7539 113.455 99.6635 113.287 99.6333C112.606 99.5315 112.283 100.911 112.283 100.972C112.277 100.982 112.273 100.994 112.273 101.006C112.273 101.017 112.277 101.029 112.283 101.039H112.325L112.363 101.051ZM113.262 99.7464C113.388 99.7652 113.388 99.8142 113.383 99.8331C113.417 100.059 112.833 100.625 112.426 100.858C112.514 100.538 112.783 99.7275 113.215 99.7275L113.262 99.7464Z" fill="#86C240"/>
    <path d="M111.607 101.691C111.59 101.694 111.573 101.694 111.557 101.691C111.532 101.679 111.514 101.659 111.505 101.635C111.496 101.611 111.498 101.585 111.51 101.563C111.6 101.397 111.731 101.252 111.893 101.139C112.056 101.027 112.246 100.95 112.447 100.914C112.461 100.911 112.475 100.911 112.489 100.914C112.503 100.917 112.516 100.922 112.528 100.929C112.539 100.937 112.549 100.946 112.556 100.957C112.563 100.968 112.567 100.981 112.569 100.993C112.572 101.018 112.565 101.043 112.549 101.062C112.532 101.082 112.508 101.095 112.481 101.099C112.312 101.13 112.153 101.195 112.017 101.291C111.882 101.386 111.773 101.509 111.699 101.649C111.689 101.663 111.675 101.674 111.659 101.681C111.643 101.688 111.625 101.692 111.607 101.691Z" fill="#86C240"/>
    <path d="M112.22 102.231H112.17C112.157 102.225 112.146 102.217 112.137 102.208C112.128 102.198 112.121 102.187 112.117 102.175C112.113 102.163 112.112 102.15 112.114 102.138C112.116 102.125 112.12 102.113 112.128 102.102C112.214 101.935 112.344 101.787 112.506 101.673C112.668 101.558 112.858 101.479 113.06 101.443C113.074 101.441 113.087 101.441 113.101 101.444C113.114 101.447 113.127 101.452 113.138 101.459C113.149 101.467 113.158 101.476 113.165 101.487C113.172 101.498 113.176 101.51 113.178 101.522C113.18 101.534 113.18 101.547 113.176 101.559C113.173 101.571 113.167 101.582 113.159 101.592C113.151 101.602 113.14 101.61 113.128 101.616C113.116 101.622 113.103 101.626 113.089 101.627C112.92 101.659 112.762 101.726 112.626 101.822C112.491 101.918 112.382 102.041 112.308 102.182C112.299 102.196 112.287 102.208 112.271 102.217C112.256 102.225 112.238 102.23 112.22 102.231Z" fill="#86C240"/>
    <path d="M112.972 102.686H112.922C112.897 102.674 112.879 102.654 112.87 102.63C112.861 102.607 112.863 102.581 112.875 102.558C112.965 102.392 113.097 102.248 113.259 102.135C113.422 102.023 113.611 101.946 113.812 101.91C113.826 101.907 113.84 101.908 113.854 101.911C113.867 101.913 113.88 101.919 113.891 101.926C113.903 101.933 113.912 101.943 113.92 101.954C113.927 101.964 113.932 101.976 113.934 101.989C113.937 102.014 113.93 102.039 113.914 102.059C113.898 102.08 113.873 102.093 113.846 102.098C113.676 102.128 113.517 102.194 113.382 102.289C113.246 102.385 113.137 102.508 113.064 102.648C113.054 102.661 113.039 102.671 113.023 102.678C113.007 102.684 112.99 102.687 112.972 102.686Z" fill="#86C240"/>
    <path d="M109.234 81.6813C106.815 81.3344 101.871 80.5201 98.0787 80.2789L93.6645 80.0037C83.8407 79.3628 103.53 71.6572 103.53 71.6572C103.53 71.6572 110.007 73.4328 115.11 75.3705C112.388 77.6174 111.275 79.834 109.234 81.6813Z" fill="#86C240"/>
    <path d="M47.9349 74.1826C45.2343 72.9687 41.9793 72.6746 38.9637 72.7312C35.6373 72.8028 32.9955 73.504 30.3999 75.3701C25.8513 78.6423 21.9999 83.2264 21.7101 88.4515C21.5631 91.0112 22.2771 93.5445 22.4829 96.1043C22.6887 98.664 22.2813 101.457 20.3073 103.312C19.2447 104.311 17.7033 105.107 17.4555 106.471C17.2455 107.64 18.1947 108.812 19.4253 109.235C20.0534 109.419 20.7166 109.488 21.3749 109.436C22.0332 109.384 22.673 109.213 23.2557 108.933C24.4162 108.368 25.4858 107.664 26.4351 106.841C25.4817 108.285 24.5283 110.136 25.5615 111.534C26.2251 112.435 27.5733 112.793 28.7661 112.628C29.9548 112.404 31.0587 111.907 31.9707 111.187C34.8005 109.162 36.856 106.394 37.8507 103.271C38.7411 100.432 38.6907 97.4426 38.9175 94.5021C39.1443 91.5616 39.6147 88.5269 41.3871 86.0463C43.1595 83.5657 47.9685 83.1624 51.1689 83.8183L55.7385 80.5197C54.6381 77.4246 51.1563 75.6302 47.9349 74.1826Z" fill="#86C240"/>
    <g opacity="0.2">
    <path d="M34.9905 80.5876C37.8423 78.9439 41.9919 78.2804 45.2259 79.204C48.1365 80.0334 50.6439 80.8477 52.8741 82.5667L55.7217 80.5122C54.6381 77.4246 51.1563 75.6113 47.9349 74.1826C45.2343 72.9687 41.9793 72.6746 38.9637 72.7312C35.6373 72.8028 32.9955 73.504 30.3999 75.3701C25.8513 78.6423 21.9999 83.2264 21.7101 88.4515C21.5631 91.0112 22.2771 93.5445 22.4829 96.1043C22.6887 98.664 22.2813 101.457 20.3073 103.312C19.2447 104.311 17.7033 105.107 17.4555 106.471C17.2455 107.64 18.1947 108.812 19.4253 109.235C20.0534 109.419 20.7166 109.488 21.3749 109.436C22.0332 109.384 22.673 109.213 23.2557 108.933C24.2794 108.448 25.2258 107.842 26.0697 107.131C26.6031 105.71 27.7035 104.338 27.7791 102.875C28.0857 97.107 27.3045 92.3193 29.7699 87.0001C31.0215 84.3009 32.2479 82.1671 34.9905 80.5876Z" fill="white"/>
    </g>
    <g opacity="0.2">
    <path d="M25.2507 109.223C25.5331 108.769 25.7437 108.282 25.8765 107.775C25.6095 108.236 25.3996 108.721 25.2507 109.223Z" fill="white"/>
    </g>
    <path d="M25.9143 85.673C26.322 85.678 26.7132 85.8183 27.0126 86.0668C27.3119 86.3153 27.4982 86.6544 27.5355 87.0189H27.7413C27.7413 87.0189 27.6237 85.7446 29.2449 85.624V85.4204C28.8471 85.4231 28.4632 85.2891 28.1719 85.0459C27.8806 84.8027 27.704 84.4686 27.6783 84.1123H27.4725C27.4725 84.1123 27.6615 85.2885 25.9227 85.5298L25.9143 85.673Z" fill="white"/>
    <path d="M30.8494 96.089C31.257 96.0923 31.6487 96.2314 31.9483 96.4795C32.2479 96.7275 32.4341 97.0667 32.4706 97.4311H32.6764C32.6764 97.4311 32.563 96.1569 34.1842 96.0363V95.8365C33.7866 95.8382 33.4033 95.7039 33.1122 95.4609C32.8212 95.2178 32.6443 94.8843 32.6176 94.5283H32.4118C32.4118 94.5283 32.6008 95.7007 30.8662 95.9458L30.8494 96.089Z" fill="white"/>
    <path d="M32.4746 82.4385C32.715 82.452 32.9415 82.5444 33.1111 82.698C33.2807 82.8516 33.3815 83.0557 33.3944 83.2716H33.5162C33.5204 83.1656 33.5484 83.0614 33.5987 82.9654C33.649 82.8694 33.7205 82.7835 33.8089 82.7131C33.8972 82.6426 34.0006 82.5889 34.1127 82.5553C34.2249 82.5217 34.3434 82.5089 34.4612 82.5177V82.397C34.2246 82.3874 34.0009 82.297 33.8362 82.1442C33.6714 81.9914 33.578 81.7878 33.575 81.5752H33.4532C33.4532 81.5752 33.5246 82.2802 32.4788 82.3744L32.4746 82.4385Z" fill="white"/>
    <path d="M25.9312 100.183C26.1732 100.197 26.4009 100.291 26.5701 100.447C26.7393 100.603 26.8379 100.81 26.8468 101.028H26.9602C26.9584 100.918 26.9826 100.808 27.0311 100.707C27.0797 100.606 27.1514 100.515 27.2418 100.44C27.3322 100.365 27.4391 100.309 27.5556 100.273C27.672 100.238 27.7955 100.226 27.9178 100.236V100.116C27.6807 100.105 27.4571 100.014 27.2924 99.8604C27.1278 99.707 27.0345 99.503 27.0316 99.29H26.9098C26.9098 99.29 26.977 99.995 25.9354 100.089L25.9312 100.183Z" fill="white"/>
    <path d="M141.2 126.546C139.436 123.217 134.627 117.216 134.228 114.483C133.829 111.749 132.876 108.115 132.876 108.115L117.924 114.192L134.724 129.11L136.127 133.045L128.109 137.946C128.109 137.946 124.178 138.391 123.711 138.591L119.931 140.17L116.714 138.775L109.767 145.474C109.767 145.474 117.227 145.787 120.935 144.37C124.644 142.952 125.135 144.125 126.563 144.472C127.298 144.649 132.053 140.325 136.001 138.414C139.949 136.502 142.754 134.267 142.91 132.435C143.065 130.602 142.964 129.879 141.2 126.546Z" fill="#86C240"/>
    <path opacity="0.4" d="M141.2 126.546C139.436 123.217 134.627 117.216 134.228 114.483C133.829 111.749 132.876 108.115 132.876 108.115L117.924 114.192L134.724 129.11L136.127 133.045L128.109 137.946C128.109 137.946 124.178 138.391 123.711 138.591L119.931 140.17L116.714 138.775L109.767 145.474C109.767 145.474 117.227 145.787 120.935 144.37C124.644 142.952 125.135 144.125 126.563 144.472C127.298 144.649 132.053 140.325 136.001 138.414C139.949 136.502 142.754 134.267 142.91 132.435C143.065 130.602 142.964 129.879 141.2 126.546Z" fill="white"/>
    <path d="M119.91 140.197L115.778 145.35C115.778 145.35 110.612 145.897 109.767 145.482L116.693 138.802L119.91 140.197Z" fill="#263238"/>
    <path opacity="0.2" d="M141.2 126.546C139.436 123.217 134.627 117.216 134.228 114.483C133.829 111.749 132.876 108.115 132.876 108.115L117.924 114.192L134.724 129.11L136.127 133.045L128.109 137.946C128.109 137.946 124.178 138.391 123.711 138.591L119.931 140.17L116.714 138.775L109.767 145.474C109.767 145.474 117.227 145.787 120.935 144.37C124.644 142.952 125.135 144.125 126.563 144.472C127.298 144.649 132.053 140.325 136.001 138.414C139.949 136.502 142.754 134.267 142.91 132.435C143.065 130.602 142.964 129.879 141.2 126.546Z" fill="black"/>
    <path d="M59.405 119.171C59.405 119.171 55.9148 121.765 55.625 124.626C55.3352 127.488 54.6128 127.476 56.8388 128.581C59.0648 129.685 63.3236 129.757 65.4992 132.984C67.6748 136.211 73.5086 140.147 74.0798 141.21C74.651 142.273 73.5716 144.071 75.1466 144.418C76.0898 144.619 76.9583 145.038 77.6666 145.632L77.633 147.117L76.52 148.799L82.7906 154.54C82.9711 152.291 83.0201 150.035 82.9376 147.781C82.7486 145.296 82.5806 142.318 81.1988 140.486C79.817 138.654 67.8218 129.931 67.4984 128.449C67.175 126.967 67.826 124.419 67.826 124.419L72.1562 121.053L69.6362 115.379L59.405 119.171Z" fill="#86C240"/>
    <path opacity="0.4" d="M59.405 119.171C59.405 119.171 55.9148 121.765 55.625 124.626C55.3352 127.488 54.6128 127.476 56.8388 128.581C59.0648 129.685 63.3236 129.757 65.4992 132.984C67.6748 136.211 73.5086 140.147 74.0798 141.21C74.651 142.273 73.5716 144.071 75.1466 144.418C76.0898 144.619 76.9583 145.038 77.6666 145.632L77.633 147.117L76.52 148.799L82.7906 154.54C82.9711 152.291 83.0201 150.035 82.9376 147.781C82.7486 145.296 82.5806 142.318 81.1988 140.486C79.817 138.654 67.8218 129.931 67.4984 128.449C67.175 126.967 67.826 124.419 67.826 124.419L72.1562 121.053L69.6362 115.379L59.405 119.171Z" fill="white"/>
    <path d="M82.8788 154.843L82.9754 150.553L77.6078 147.118L75.6548 149.433" fill="#263238"/>
    <path opacity="0.3" d="M59.405 119.171C59.405 119.171 55.9148 121.765 55.625 124.626C55.3352 127.488 54.6128 127.476 56.8388 128.581C59.0648 129.685 63.3236 129.757 65.4992 132.984C67.6748 136.211 73.5086 140.147 74.0798 141.21C74.651 142.273 73.5716 144.071 75.1466 144.418C76.0898 144.619 76.9583 145.038 77.6666 145.632L77.633 147.117L75.68 149.432L82.904 154.842C82.904 154.842 83.1392 150.269 82.9502 147.781C82.7612 145.293 82.5932 142.318 81.2114 140.486C79.8296 138.654 67.8344 129.931 67.511 128.449C67.1876 126.967 67.8386 124.419 67.8386 124.419L72.1688 121.053L69.6488 115.379L59.405 119.171Z" fill="black"/>
    <path d="M156.45 52.9997C154.308 53.0864 152.292 53.8819 150.381 54.7452C148.47 55.6085 146.568 56.5547 144.48 56.9769C141.678 57.5337 138.744 57.1103 136.278 55.7932C136.129 57.1429 136.434 58.5015 137.151 59.695C133.649 59.122 129.885 58.564 126.651 59.9099C123.984 61.0107 122.136 63.2123 120.141 65.1424C118.146 67.0726 115.605 68.9123 112.674 68.8595C111.725 68.8595 110.456 68.8029 110.183 69.6135C110.036 70.0508 110.305 70.5069 110.578 70.8914C111.627 72.3669 112.899 73.7041 114.358 74.8649L106.848 73.7829C106.684 73.7384 106.511 73.7245 106.341 73.742C106.171 73.7595 106.006 73.8081 105.857 73.8847C105.664 74.0565 105.542 74.2828 105.513 74.5256C104.761 77.9524 107.151 81.5563 110.616 83.151C114.081 84.7456 118.327 84.5383 121.931 83.2151C125.576 81.9357 129.059 80.3118 132.321 78.3708C136.828 75.5887 139.461 74.0958 143.099 71.3099C149.159 66.6466 154.103 62.0926 161.016 59.3595L161.973 55.3295C160.89 53.6858 158.588 52.913 156.45 52.9997Z" fill="#86C240"/>
    <g opacity="0.2">
    <path d="M161.973 55.3408C160.89 53.6858 158.588 52.913 156.45 52.9997C154.313 53.0864 152.292 53.8819 150.381 54.7452C148.47 55.6085 146.568 56.5547 144.48 56.9769C141.678 57.5337 138.745 57.1103 136.278 55.7932C136.124 57.1299 136.417 58.4774 137.118 59.6648C138.122 60.9579 139.602 61.8922 141.297 62.3037C144.611 63.0577 148.017 61.7156 151.062 60.2944C154.107 58.8732 157.303 57.2785 160.722 57.5763L161.427 57.6517L161.973 55.3408Z" fill="white"/>
    </g>
    <g opacity="0.2">
    <path d="M126.84 72.4596C123.699 73.7074 120.381 74.974 116.958 74.6988C115.487 74.5718 114.065 74.1575 112.791 73.485C113.286 73.9696 113.807 74.4313 114.354 74.8685C111.834 74.4915 106.655 72.4294 106.655 72.4294C106.315 72.3804 106.122 73.6961 105.853 73.8883C105.66 74.0601 105.538 74.2864 105.509 74.5292C104.757 77.956 107.147 81.56 110.612 83.1546C111.405 83.5153 112.244 83.7899 113.111 83.9727C113.497 83.8897 113.879 83.7955 114.257 83.7013C126.164 80.6306 137.209 75.325 146.66 68.1355C139.831 67.3778 133.145 69.9564 126.84 72.4596Z" fill="black"/>
    </g>
    <path d="M126.32 77.052C126.32 77.052 121.225 80.3393 116.42 81.3873C114.219 81.8623 107.974 81.7304 107.974 81.7304C107.974 81.7304 80.254 80.9764 74.5252 79.3554C68.7964 77.7343 55.6882 76.2867 47.725 85.5756C39.7618 94.8645 48.2164 111.546 48.2164 111.546L69.4978 113.295C69.4978 113.295 72.7402 111.437 78.9394 113.461C85.1386 115.486 102.833 120.861 109.532 120.971C116.231 121.08 133.472 122.426 144.581 109.499C144.581 109.499 148.395 103.618 148.475 100.074C148.554 96.5308 151.667 94.4913 153.935 90.8987C153.935 90.8987 155.56 88.4256 158.584 82.9518C160.561 79.2906 162.289 75.5251 163.758 71.6762C166.354 61.573 163.099 58.2291 155.661 59.7182C152.797 60.3082 150.1 61.4236 147.74 62.9942L126.32 77.052Z" fill="#86C240"/>
    <path opacity="0.4" d="M126.32 77.052C126.32 77.052 121.225 80.3393 116.42 81.3873C114.219 81.8623 107.974 81.7304 107.974 81.7304C107.974 81.7304 80.254 80.9764 74.5252 79.3554C68.7964 77.7343 55.6882 76.2867 47.725 85.5756C39.7618 94.8645 48.2164 111.546 48.2164 111.546L69.4978 113.295C69.4978 113.295 72.7402 111.437 78.9394 113.461C85.1386 115.486 102.833 120.861 109.532 120.971C116.231 121.08 133.472 122.426 144.581 109.499C144.581 109.499 148.395 103.618 148.475 100.074C148.554 96.5308 151.667 94.4913 153.935 90.8987C153.935 90.8987 155.56 88.4256 158.584 82.9518C160.561 79.2906 162.289 75.5251 163.758 71.6762C166.354 61.573 163.099 58.2291 155.661 59.7182C152.797 60.3082 150.1 61.4236 147.74 62.9942L126.32 77.052Z" fill="white"/>
    <path opacity="0.6" d="M64.1384 91.3738L65.9066 90.9968C65.9704 90.9815 66.0374 90.9811 66.1014 90.9956C66.1653 91.0101 66.2241 91.0391 66.272 91.0798L67.6286 92.1655C67.6868 92.2066 67.756 92.2332 67.8293 92.2426C67.9025 92.252 67.9773 92.2439 68.0459 92.219C68.1146 92.1941 68.1747 92.1534 68.2201 92.101C68.2656 92.0486 68.2948 91.9863 68.3048 91.9204L68.4434 90.2956C68.4492 90.2364 68.4704 90.1792 68.5055 90.1288C68.5405 90.0784 68.5883 90.036 68.645 90.0054L70.2158 89.1873C70.2782 89.1506 70.3286 89.0996 70.3618 89.0397C70.3949 88.9797 70.4097 88.9129 70.4046 88.8461C70.3995 88.7793 70.3746 88.7149 70.3326 88.6596C70.2905 88.6043 70.2328 88.56 70.1654 88.5314L68.4854 87.9131C68.4238 87.8915 68.3692 87.8564 68.3266 87.811C68.2841 87.7655 68.2549 87.7112 68.2418 87.653L67.8554 86.0583C67.8357 85.9944 67.7975 85.9364 67.7447 85.8899C67.6919 85.8435 67.6265 85.8104 67.5549 85.794C67.4833 85.7776 67.4082 85.7784 67.3371 85.7963C67.266 85.8142 67.2014 85.8487 67.1498 85.8962L65.9738 87.1403C65.9304 87.1851 65.8759 87.22 65.8145 87.2423C65.7532 87.2646 65.6869 87.2735 65.621 87.2684L63.8108 87.1026C63.737 87.1001 63.6638 87.1151 63.5985 87.1461C63.5332 87.1771 63.4782 87.2231 63.439 87.2793C63.3998 87.3355 63.3778 87.4 63.3753 87.4663C63.3727 87.5325 63.3897 87.5982 63.4244 87.6567L64.3778 89.0478C64.412 89.0983 64.4325 89.1554 64.4376 89.2143C64.4427 89.2733 64.4323 89.3324 64.4072 89.3871L63.6722 90.895C63.6524 90.9559 63.6499 91.0202 63.6651 91.0821C63.6802 91.144 63.7126 91.2015 63.759 91.2492C63.8055 91.2969 63.8646 91.3334 63.9309 91.3552C63.9973 91.3769 64.0686 91.3833 64.1384 91.3738Z" fill="white"/>
    <path opacity="0.6" d="M59.3842 93.413L59.926 92.8589C59.9452 92.8384 59.97 92.8228 59.998 92.8136C60.026 92.8043 60.0561 92.8017 60.0856 92.8061L60.8962 92.889C60.9303 92.8926 60.9649 92.8875 60.996 92.8744C61.0271 92.8613 61.0535 92.8407 61.0723 92.8148C61.091 92.789 61.1014 92.7589 61.1022 92.7281C61.103 92.6972 61.0942 92.6668 61.0768 92.6402L60.6568 92.0107C60.6434 91.9866 60.6365 91.9602 60.6365 91.9334C60.6365 91.9066 60.6434 91.8801 60.6568 91.8561L60.9802 91.1888C60.9944 91.1607 60.9995 91.1295 60.995 91.0988C60.9905 91.0682 60.9765 91.0392 60.9547 91.0153C60.9329 90.9914 60.904 90.9735 60.8714 90.9635C60.8388 90.9535 60.8037 90.9519 60.7702 90.9589L59.9722 91.1247C59.9432 91.1301 59.9131 91.1292 59.8846 91.1219C59.8561 91.1147 59.83 91.1015 59.8084 91.0833L59.2036 90.5857C59.178 90.5653 59.1466 90.5517 59.1129 90.5464C59.0792 90.5411 59.0446 90.5443 59.0128 90.5557C58.981 90.567 58.9534 90.586 58.9329 90.6106C58.9125 90.6352 58.9 90.6644 58.897 90.695L58.8256 91.4263C58.8234 91.453 58.8139 91.4787 58.7977 91.5011C58.7816 91.5235 58.7593 91.5419 58.7332 91.5545L58.0192 91.9315C57.9892 91.9455 57.9642 91.9666 57.9467 91.9926C57.9292 92.0185 57.9199 92.0482 57.9199 92.0785C57.9199 92.1088 57.9292 92.1385 57.9467 92.1645C57.9642 92.1904 57.9892 92.2115 58.0192 92.2255L58.7752 92.5121C58.802 92.5234 58.8254 92.5402 58.8437 92.5611C58.8619 92.5821 58.8744 92.6066 58.8802 92.6327L59.044 93.3527C59.0474 93.3877 59.0634 93.4207 59.0895 93.4468C59.1157 93.4728 59.1505 93.4906 59.1889 93.4974C59.2272 93.5042 59.267 93.4997 59.3022 93.4845C59.3374 93.4692 59.3662 93.4442 59.3842 93.413Z" fill="white"/>
    <g opacity="0.2">
    <path d="M61.3413 83.7647C61.1271 82.7808 59.5773 81.2351 56.7549 82.532C53.7386 84.2504 51.284 86.6562 49.6415 89.5039C47.9991 92.3517 47.2276 95.5396 47.4057 98.7423C47.4012 99.4799 47.6173 100.205 48.0315 100.842C48.4935 101.449 49.3965 101.841 50.1315 101.562C51.1857 101.185 51.2907 99.9072 51.3621 98.8856C51.501 96.9773 52.0804 95.1158 53.0638 93.4193C54.0471 91.7228 55.4128 90.2285 57.0741 89.0312C57.9477 88.4054 58.9095 87.8625 59.6361 87.101C60.3627 86.3395 61.7613 85.7288 61.3413 83.7647Z" fill="white"/>
    </g>
    <path d="M46.5111 107.433C46.5111 107.433 49.0311 117.397 48.1911 117.958C43.3401 121.181 39.3291 118.331 37.4601 123.198C35.5911 128.065 39.2871 128.073 34.5747 134.331C34.5747 134.331 31.1559 138.199 28.6317 138.949C26.1075 139.699 25.9101 144.125 25.9101 144.125L21.0801 143.326L22.0461 151.94C23.6285 150.592 25.5926 149.66 27.7245 149.244C31.1307 148.641 32.6511 146.681 35.2593 142.225C37.8675 137.769 42.4707 129.897 49.4763 126.712C56.4819 123.526 64.6761 125.728 73.3029 124.51C80.0229 123.56 80.3253 110.92 81.9591 103.795C83.5929 96.6699 46.5111 107.433 46.5111 107.433Z" fill="#86C240"/>
    <path opacity="0.4" d="M46.5111 107.433C46.5111 107.433 49.0311 117.397 48.1911 117.958C43.3401 121.181 39.3291 118.331 37.4601 123.198C35.5911 128.065 39.2871 128.073 34.5747 134.331C34.5747 134.331 31.1559 138.199 28.6317 138.949C26.1075 139.699 25.9101 144.125 25.9101 144.125L21.0801 143.326L22.0461 151.94C23.6285 150.592 25.5926 149.66 27.7245 149.244C31.1307 148.641 32.6511 146.681 35.2593 142.225C37.8675 137.769 42.4707 129.897 49.4763 126.712C56.4819 123.526 64.6761 125.728 73.3029 124.51C80.0229 123.56 80.3253 110.92 81.9591 103.795C83.5929 96.6699 46.5111 107.433 46.5111 107.433Z" fill="white"/>
    <path d="M22.0544 151.939L21.0884 143.325L25.9016 144.124L26.7164 149.489L22.0544 151.939Z" fill="#263238"/>
    <g opacity="0.3">
    <path d="M86.9234 115.911C86.4488 111.553 85.6634 107.071 83.072 103.357C80.4806 99.6439 75.68 96.8655 70.8584 97.5969C74.3791 99.2095 77.1702 101.865 78.7586 105.114C80.321 108.337 80.573 110.671 80.0942 113.86L86.9234 115.911Z" fill="black"/>
    </g>
    <path opacity="0.3" d="M48.1952 117.955C48.1952 117.955 50.9 116.164 51.5552 114.883C52.2104 113.601 46.553 108.127 46.553 108.127C47.54 112.033 48.5774 116.025 48.1952 117.955Z" fill="black"/>
    <path d="M193.528 44.793C194.49 44.793 179.618 63.8722 179.618 63.8722L174.25 59.4652C174.25 59.4652 192.562 44.8194 193.528 44.793Z" fill="#86C240"/>
    <g opacity="0.1">
    <path d="M178.076 56.42C179.126 55.5906 180.319 54.6481 181.571 53.668C181.797 53.9658 182.02 54.2636 182.238 54.569C183.078 55.7527 183.788 57.091 183.776 58.4896C182.205 60.5404 180.865 62.2595 180.155 63.1831C180.037 61.5519 179.648 59.9458 179 58.418C178.698 57.7507 178.362 57.091 178.076 56.42Z" fill="white"/>
    </g>
    <g opacity="0.4">
    <path d="M181.571 53.6665C182.831 52.6864 184.12 51.6685 185.388 50.6846C186.363 51.4468 187.108 52.4182 187.551 53.5082C186.291 55.2046 184.96 56.935 183.771 58.4882C183.771 57.0895 183.074 55.7513 182.234 54.5675C182.02 54.2622 181.797 53.9643 181.571 53.6665Z" fill="white"/>
    </g>
    <g opacity="0.6">
    <path d="M185.388 50.6851C186.879 49.5315 188.328 48.4232 189.588 47.4883C190.047 48.1878 190.299 48.9804 190.323 49.7917C189.483 50.949 188.538 52.2194 187.568 53.5087C187.119 52.4171 186.369 51.4455 185.388 50.6851Z" fill="white"/>
    </g>
    <g opacity="0.8">
    <path d="M193.528 44.793C193.851 44.793 192.39 46.938 190.307 49.7918C190.283 48.9805 190.03 48.1879 189.572 47.4884C191.701 45.8938 193.28 44.793 193.528 44.793Z" fill="white"/>
    </g>
    <path d="M190.302 67.2227C190.735 68.0244 190.932 68.912 190.875 69.8013C190.819 70.6906 190.51 71.5522 189.979 72.3045C189.423 73.0416 188.628 73.6078 187.702 73.9267C186.776 74.2455 185.763 74.3017 184.8 74.0876C182.969 73.6164 181.713 72.1537 180.462 70.8644C177.219 67.5168 173.217 64.8326 169.508 61.9185C168.756 61.3229 167.988 60.6858 167.639 59.8413C167.439 59.2894 167.405 58.7 167.539 58.1323C167.673 57.5645 167.971 57.0385 168.403 56.6068C169.291 55.7515 170.506 55.229 171.805 55.1441C173.094 55.0697 174.385 55.2525 175.585 55.6794C180.378 57.2628 183.885 61.3832 184.8 65.8919C185.002 66.8834 185.124 67.9578 185.863 68.7118C186.178 69.0322 186.585 69.2692 187.04 69.3972C187.495 69.5251 187.98 69.5393 188.443 69.438C188.906 69.3367 189.329 69.1239 189.667 68.8226C190.005 68.5212 190.245 68.1427 190.361 67.7279" fill="#86C240"/>
    <g opacity="0.2">
    <path d="M168.404 56.6078C169.291 55.7524 170.507 55.2299 171.806 55.1451C173.094 55.0707 174.385 55.2535 175.586 55.6804C180.378 57.2637 183.885 61.3842 184.8 65.8929C185.002 66.8844 185.124 67.9588 185.863 68.7128C186.179 69.0332 186.586 69.2702 187.04 69.3981C187.495 69.5261 187.98 69.5402 188.443 69.439C188.906 69.3377 189.329 69.1249 189.667 68.8235C190.005 68.5222 190.245 68.1437 190.361 67.7288L190.294 67.2237C190.557 67.723 190.733 68.2558 190.815 68.8032C190.725 69.3149 190.461 69.789 190.059 70.1604C189.197 70.853 188.069 71.2168 186.913 71.1745C185.111 71.1745 183.23 70.5072 182.23 69.1614C181.348 67.9777 181.243 66.481 180.747 65.1314C179.875 62.95 178.119 61.1437 175.829 60.0723C173.545 59.0175 170.995 58.5135 168.429 58.6096C168.103 58.6293 167.777 58.6166 167.454 58.5719C167.535 57.8444 167.867 57.1578 168.404 56.6078Z" fill="white"/>
    </g>
    <path d="M168.105 59.6391C168.727 59.8992 186.829 74.9258 188.068 79.5854C189.307 84.2449 187.518 85.9941 186.107 86.1261C184.695 86.258 184.275 87.6943 181.869 87.0308C179.462 86.3673 180.361 85.7152 177.568 84.1695C174.775 82.6239 173.595 82.1828 164.884 81.7191C156.173 81.2554 155.148 76.1096 156.366 72.5697C157.584 69.0298 157.58 59.624 157.58 59.624L168.105 59.6391Z" fill="#86C240"/>
    <path opacity="0.4" d="M168.021 59.6833C168.643 59.9397 186.816 74.9738 188.055 79.6371C189.294 84.3004 187.505 86.0459 186.094 86.1778C184.683 86.3098 184.263 87.7461 181.856 87.0826C179.449 86.4191 180.348 85.7632 177.555 84.2213C174.762 82.6794 173.582 82.2308 164.871 81.7709C156.16 81.311 155.136 76.1387 156.354 72.6214C157.572 69.1042 157.551 59.6758 157.551 59.6758L168.021 59.6833Z" fill="white"/>
    <g opacity="0.6">
    <path d="M176.824 83.7692C177.664 82.02 178.555 80.2858 179.92 78.842C181.415 77.2662 183.561 76.0712 185.859 76.0674C187.026 77.4886 187.837 78.7063 188.068 79.5847C189.328 84.248 187.518 85.9934 186.106 86.1253C184.695 86.2573 184.275 87.6936 181.869 87.0301C179.462 86.3666 180.361 85.7144 177.568 84.1688C177.32 84.0255 177.064 83.8936 176.824 83.7692Z" fill="white"/>
    </g>
    <path opacity="0.6" d="M161.978 78.9705L163.746 78.5935C163.81 78.5808 163.876 78.5817 163.939 78.5961C164.003 78.6105 164.062 78.638 164.111 78.6765L165.468 79.7659C165.526 79.8071 165.595 79.8337 165.668 79.8431C165.742 79.8525 165.816 79.8444 165.885 79.8195C165.954 79.7946 166.014 79.7539 166.059 79.7015C166.105 79.649 166.134 79.5867 166.144 79.5209L166.283 77.8923C166.287 77.8333 166.307 77.7761 166.343 77.726C166.378 77.676 166.427 77.6347 166.484 77.6058L168.055 76.784C168.116 76.7471 168.166 76.6962 168.198 76.6367C168.231 76.5771 168.245 76.511 168.24 76.4448C168.235 76.3787 168.21 76.3149 168.169 76.2599C168.128 76.205 168.071 76.1608 168.005 76.1318L166.325 75.5098C166.265 75.4861 166.212 75.4503 166.171 75.4051C166.129 75.3599 166.1 75.3067 166.085 75.2497L165.699 73.655C165.678 73.5914 165.64 73.5337 165.587 73.4878C165.534 73.4418 165.468 73.4091 165.397 73.3931C165.325 73.377 165.25 73.3782 165.18 73.3964C165.109 73.4145 165.044 73.4491 164.993 73.4967L163.813 74.7407C163.771 74.7861 163.717 74.8212 163.656 74.843C163.595 74.8647 163.529 74.8723 163.464 74.8651L161.654 74.703C161.58 74.7005 161.507 74.7156 161.442 74.7466C161.376 74.7776 161.321 74.8235 161.282 74.8797C161.243 74.936 161.221 75.0005 161.219 75.0667C161.216 75.133 161.233 75.1987 161.268 75.2572L162.2 76.637C162.234 76.6878 162.253 76.745 162.258 76.8039C162.262 76.8628 162.251 76.9219 162.225 76.9763L161.495 78.4842C161.472 78.5469 161.468 78.6138 161.483 78.6783C161.498 78.7429 161.531 78.8027 161.58 78.8519C161.629 78.9012 161.692 78.938 161.761 78.9588C161.831 78.9796 161.906 78.9836 161.978 78.9705Z" fill="white"/>
    <path opacity="0.6" d="M162.137 72.829L162.83 72.6782C162.856 72.6729 162.882 72.6729 162.907 72.6781C162.933 72.6833 162.957 72.6937 162.977 72.7084L163.51 73.1381C163.533 73.1558 163.56 73.1675 163.59 73.1719C163.619 73.1762 163.649 73.1732 163.677 73.163C163.704 73.1528 163.728 73.1359 163.745 73.1142C163.763 73.0924 163.773 73.0668 163.775 73.0401L163.83 72.403C163.831 72.3797 163.84 72.3571 163.853 72.3373C163.867 72.3176 163.887 72.3013 163.909 72.2899L164.527 71.9657C164.553 71.9522 164.574 71.9324 164.587 71.9088C164.601 71.8851 164.607 71.8584 164.605 71.8317C164.603 71.805 164.593 71.7794 164.575 71.7578C164.557 71.7362 164.534 71.7194 164.506 71.7094L163.846 71.4643C163.823 71.4554 163.801 71.4416 163.785 71.4239C163.768 71.4062 163.756 71.3852 163.75 71.3626L163.599 70.733C163.592 70.7071 163.577 70.6834 163.557 70.6645C163.536 70.6457 163.51 70.6324 163.481 70.6261C163.452 70.6198 163.422 70.6209 163.394 70.6291C163.366 70.6373 163.341 70.6524 163.321 70.6727L162.855 71.1627C162.838 71.1799 162.816 71.1933 162.792 71.2018C162.768 71.2103 162.742 71.2137 162.717 71.2118L162.007 71.1477C161.977 71.145 161.947 71.1498 161.92 71.1617C161.894 71.1735 161.871 71.1919 161.855 71.2147C161.84 71.2374 161.831 71.2637 161.831 71.2905C161.831 71.3173 161.84 71.3436 161.856 71.3663L162.229 71.9129C162.242 71.9331 162.249 71.9558 162.249 71.9789C162.249 72.002 162.242 72.0247 162.229 72.0449L161.94 72.633C161.926 72.6585 161.922 72.6871 161.926 72.715C161.931 72.7429 161.945 72.769 161.966 72.7899C161.987 72.8109 162.014 72.8258 162.045 72.8327C162.075 72.8397 162.107 72.8384 162.137 72.829Z" fill="white"/>
    <path d="M184.54 80.8558C184.617 80.6989 184.749 80.5686 184.915 80.4843C185.082 80.4001 185.274 80.3664 185.464 80.3884C185.599 80.4187 185.724 80.4767 185.83 80.5578C185.935 80.6389 186.019 80.7409 186.073 80.8558C186.176 81.0877 186.214 81.339 186.182 81.5872C186.137 82.1182 185.916 82.6249 185.548 83.0423L185.149 82.7294C184.907 82.4638 184.708 82.1695 184.557 81.8548C184.48 81.6977 184.439 81.5284 184.436 81.3569C184.434 81.1853 184.469 81.015 184.54 80.8558Z" fill="#263238"/>
    <path d="M185.657 86.2878C183.599 86.122 181.512 85.0513 180.567 83.3662C182.003 84.6643 183.742 85.6618 185.657 86.2878Z" fill="#263238"/>
    <path d="M167.626 71.0948C167.316 72.3426 167.773 73.5377 168.643 73.7714C169.512 74.0051 170.474 73.1871 170.785 71.943C171.096 70.699 170.642 69.5002 169.768 69.2664C168.895 69.0327 167.937 69.8507 167.626 71.0948Z" fill="#263238"/>
    <path d="M167.66 68.4106C167.712 68.4221 167.765 68.4237 167.817 68.4153C167.869 68.4068 167.919 68.3885 167.963 68.3616C168.362 68.1033 168.827 67.9382 169.315 67.8809C169.803 67.8237 170.3 67.8761 170.76 68.0336C170.806 68.0538 170.857 68.065 170.909 68.0666C170.96 68.0681 171.012 68.0599 171.06 68.0425C171.107 68.0251 171.151 67.9989 171.187 67.9655C171.223 67.9322 171.25 67.8924 171.268 67.8489C171.304 67.7564 171.3 67.6555 171.258 67.5652C171.217 67.4749 171.139 67.4014 171.041 67.3588C170.463 67.151 169.836 67.0766 169.217 67.1424C168.599 67.2083 168.009 67.4123 167.501 67.7358C167.417 67.7948 167.361 67.8801 167.345 67.9746C167.328 68.0691 167.352 68.1657 167.412 68.2447C167.469 68.3263 167.557 68.3856 167.66 68.4106Z" fill="#263238"/>
    <path d="M168.815 70.9825C168.744 71.4085 168.84 71.7741 169.025 71.7968C169.21 71.8194 169.416 71.4952 169.483 71.0654C169.55 70.6356 169.458 70.2737 169.273 70.2511C169.088 70.2285 168.882 70.5527 168.815 70.9825Z" fill="white"/>
    <path d="M167.883 69.7942C168.231 69.666 168.542 69.4662 168.891 69.338C169.059 69.2609 169.245 69.2207 169.434 69.2207C169.624 69.2207 169.81 69.2609 169.978 69.338L169.138 70.092C168.968 70.2238 168.769 70.3209 168.553 70.3763C168.337 70.4318 168.11 70.4443 167.888 70.4131C167.666 70.3819 167.455 70.3076 167.268 70.1955C167.081 70.0834 166.924 69.9362 166.807 69.764C166.971 69.8443 167.154 69.8888 167.341 69.8941C167.528 69.8993 167.713 69.8651 167.883 69.7942Z" fill="#263238"/>
    <path d="M163.09 52.004C163.201 51.8285 163.354 51.6772 163.538 51.5612C163.721 51.4451 163.932 51.3672 164.153 51.333C164.386 51.35 164.611 51.4171 164.809 51.5287C165.007 51.6402 165.173 51.7929 165.291 51.9739C168.588 56.1207 167.971 59.408 168.231 62.4088L162.914 64.7612C161.482 62.8753 160.731 60.6398 160.762 58.3577C160.794 56.0756 161.607 53.8574 163.09 52.004Z" fill="#86C240"/>
    <g opacity="0.4">
    <path d="M163.09 52.005C163.201 51.8295 163.354 51.6782 163.538 51.5622C163.721 51.4461 163.932 51.3682 164.153 51.334C164.386 51.351 164.611 51.4181 164.809 51.5297C165.007 51.6412 165.173 51.7939 165.291 51.9749C168.588 56.1217 167.971 59.409 168.231 62.4098L162.914 64.7622C161.482 62.8763 160.731 60.6407 160.762 58.3587C160.794 56.0766 161.607 53.8584 163.09 52.005Z" fill="white"/>
    </g>
    <g opacity="0.6">
    <path d="M164.22 53.4532C164.363 53.2684 164.548 53.0762 164.779 53.0762C164.905 53.0879 165.025 53.1288 165.128 53.1949C165.231 53.261 165.314 53.35 165.367 53.4532C167.047 55.7867 166.043 59.0062 166.152 60.7139C164.657 58.5877 162.62 55.5492 164.22 53.4532Z" fill="white"/>
    </g>
    <path d="M171.553 60.5998C171.953 60.6701 172.31 60.8707 172.555 61.1631C172.8 61.4554 172.916 61.8187 172.881 62.1832L173.086 62.2058C173.086 62.2058 173.225 60.9354 174.846 61.0748L174.867 60.8713C174.475 60.8118 174.123 60.6196 173.884 60.3341C173.645 60.0486 173.537 59.6917 173.582 59.3369L173.38 59.3105C173.38 59.3105 173.33 60.4981 171.574 60.4604L171.553 60.5998Z" fill="white"/>
    <path d="M175.254 58.9448C175.425 58.9749 175.578 59.061 175.682 59.1863C175.787 59.3116 175.836 59.4673 175.821 59.6234H175.909C175.919 59.5454 175.948 59.4702 175.992 59.4026C176.037 59.335 176.096 59.2764 176.167 59.2307C176.239 59.1849 176.32 59.153 176.405 59.1368C176.491 59.1207 176.579 59.1208 176.665 59.1371V59.0503C176.497 59.0244 176.346 58.9415 176.243 58.8188C176.141 58.6961 176.095 58.5429 176.115 58.3906H176.026C176.026 58.3906 176.005 58.8996 175.254 58.8845V58.9448Z" fill="white"/>
    <path d="M175.686 65.482C175.858 65.5121 176.011 65.598 176.116 65.7232C176.222 65.8485 176.272 66.0042 176.257 66.1606H176.341C176.352 66.083 176.381 66.0082 176.426 65.941C176.471 65.8738 176.53 65.8157 176.601 65.7704C176.673 65.725 176.753 65.6934 176.839 65.6775C176.924 65.6616 177.012 65.6618 177.097 65.6781V65.5914C176.929 65.5654 176.778 65.4825 176.676 65.3598C176.574 65.2371 176.528 65.0839 176.547 64.9316H176.459C176.459 64.9316 176.459 65.4406 175.686 65.4255V65.482Z" fill="white"/>
    <g opacity="0.3">
    <path d="M159.68 81.0093C158.445 80.2736 157.463 79.2438 156.844 78.0353C156.224 76.8268 155.992 75.4873 156.173 74.167C154.653 75.4148 154.157 77.4769 154.632 79.2751C155.106 81.0734 156.438 82.6228 158.042 83.799" fill="black"/>
    </g>
    <path d="M121.46 111.421C121.737 111.598 129.898 119.304 132.149 120.276C134.4 121.249 146.925 119.775 150.062 119.07C153.199 118.365 154.186 116.593 156.047 118.154C157.908 119.715 159.68 124.94 159.827 126.21C159.974 127.481 158.827 128.472 159.281 129.343C159.475 129.785 159.794 130.175 160.205 130.474C160.302 130.691 160.304 130.933 160.212 131.152C160.119 131.37 159.938 131.549 159.705 131.654C158.844 132.148 157.336 131.699 157.236 132.121C157.135 132.544 158.769 139.71 158.769 139.71C158.769 139.71 161.23 139.669 162.591 138.078C163.951 136.487 162.805 137.064 164.073 135.216C165.342 133.369 167.219 134.338 167.013 130.938C166.807 127.537 162.099 117.849 162.154 115.304C162.208 112.759 163.305 114.55 162.208 112.756C161.112 110.961 159.625 109.819 157.92 109.789C156.215 109.759 156.295 110.611 154.497 110.58C152.7 110.55 145.459 109.894 145.287 110.06C145.114 110.226 142.267 107.218 142.267 107.218C142.267 107.218 127.987 101.782 124.707 105.205C121.426 108.628 121.46 111.421 121.46 111.421Z" fill="#86C240"/>
    <path d="M157.265 132.11C157.265 132.11 155.039 132.034 154.926 132.068C154.812 132.102 154.052 132.856 153.489 137.508C152.926 142.16 154.909 143.114 154.909 143.114L158.798 139.699L157.265 132.11Z" fill="#263238"/>
    <g opacity="0.3">
    <path d="M144.909 99.2363C143.637 100.621 142.908 102.343 142.834 104.137C142.788 106.046 143.398 107.922 144.581 109.509C145.115 107.594 145.5 105.648 145.732 103.685C145.904 102.163 145.62 100.627 144.909 99.2363Z" fill="black"/>
    </g>
    <path opacity="0.4" d="M121.46 111.421C121.737 111.598 129.898 119.304 132.149 120.276C134.4 121.249 146.925 119.775 150.062 119.07C153.199 118.365 154.186 116.593 156.047 118.154C157.908 119.715 159.68 124.94 159.827 126.21C159.974 127.481 158.827 128.472 159.281 129.343C159.475 129.785 159.794 130.175 160.205 130.474C160.302 130.691 160.304 130.933 160.212 131.152C160.119 131.37 159.938 131.549 159.705 131.654C158.844 132.148 157.336 131.699 157.236 132.121C157.135 132.544 158.769 139.71 158.769 139.71C158.769 139.71 161.23 139.669 162.591 138.078C163.951 136.487 162.805 137.064 164.073 135.216C165.342 133.369 167.219 134.338 167.013 130.938C166.807 127.537 162.099 117.849 162.154 115.304C162.208 112.759 163.305 114.55 162.208 112.756C161.112 110.961 159.625 109.819 157.92 109.789C156.215 109.759 156.295 110.611 154.497 110.58C152.7 110.55 145.459 109.894 145.287 110.06C145.114 110.226 142.267 107.218 142.267 107.218C142.267 107.218 127.987 101.782 124.707 105.205C121.426 108.628 121.46 111.421 121.46 111.421Z" fill="white"/>
    <path opacity="0.3" d="M130.121 118.93L121.46 111.421L126.328 119.941C127.61 119.661 128.876 119.324 130.121 118.93Z" fill="black"/>
    <path d="M132.296 65.9949C132.704 65.999 133.096 66.139 133.395 66.3877C133.695 66.6363 133.881 66.976 133.917 67.3407H134.123C134.123 67.3407 134.01 66.0665 135.631 65.9459V65.7423C135.23 65.7458 134.844 65.6106 134.551 65.3649C134.259 65.1192 134.083 64.7819 134.06 64.4229H133.854C133.854 64.4229 134.043 65.599 132.309 65.8403L132.296 65.9949Z" fill="white"/>
    <path d="M121.88 73.3342C122.123 73.3481 122.351 73.4427 122.52 73.5995C122.69 73.7563 122.788 73.9641 122.796 74.1824H122.922C122.921 74.0735 122.945 73.9656 122.993 73.8655C123.041 73.7655 123.112 73.6756 123.201 73.6015C123.29 73.5273 123.395 73.4707 123.509 73.435C123.624 73.3994 123.746 73.3856 123.867 73.3945V73.2738C123.63 73.2633 123.406 73.172 123.241 73.0186C123.077 72.8652 122.983 72.6612 122.981 72.4482H122.859C122.859 72.4482 122.926 73.1532 121.884 73.2475L121.88 73.3342Z" fill="white"/>
    <path d="M129.772 63.9326C130.02 63.945 130.254 64.0413 130.426 64.2022C130.598 64.3631 130.696 64.5766 130.7 64.7997H130.822C130.822 64.6908 130.847 64.5831 130.896 64.4833C130.945 64.3835 131.016 64.2939 131.105 64.2199C131.194 64.146 131.299 64.0893 131.414 64.0535C131.529 64.0177 131.65 64.0035 131.771 64.0118V63.8912C131.534 63.8816 131.31 63.7913 131.145 63.6386C130.979 63.4859 130.885 63.2823 130.881 63.0693H130.759C130.759 63.0693 130.83 63.7743 129.789 63.8723L129.772 63.9326Z" fill="white"/>
    <path d="M138.747 63.0083C138.919 63.0375 139.072 63.1227 139.177 63.2473C139.283 63.3719 139.333 63.5271 139.319 63.6831H139.403C139.413 63.6054 139.442 63.5306 139.487 63.4635C139.532 63.3963 139.591 63.3382 139.662 63.2928C139.734 63.2475 139.814 63.2158 139.9 63.2C139.985 63.1841 140.073 63.1843 140.159 63.2005V63.1138C139.99 63.0879 139.839 63.005 139.737 62.8823C139.635 62.7596 139.589 62.6064 139.608 62.4541H139.52C139.52 62.4541 139.52 62.963 138.747 62.948V63.0083Z" fill="white"/>
    <path d="M131.561 90.3176C131.969 90.3217 132.361 90.4617 132.66 90.7103C132.96 90.959 133.146 91.2986 133.182 91.6634H133.388C133.376 91.4813 133.407 91.299 133.478 91.1281C133.548 90.9571 133.658 90.8012 133.799 90.6701C133.94 90.5391 134.11 90.4357 134.299 90.3666C134.487 90.2975 134.689 90.2641 134.892 90.2685V90.065C134.494 90.0676 134.11 89.9336 133.819 89.6904C133.527 89.4472 133.351 89.1132 133.325 88.7568H133.119C133.119 88.7568 133.308 89.933 131.569 90.1743L131.561 90.3176Z" fill="white"/>
    <path d="M126.643 94.4114C126.885 94.4262 127.113 94.5211 127.282 94.6777C127.451 94.8344 127.55 95.0417 127.558 95.2597H127.684C127.683 95.1507 127.708 95.0428 127.756 94.9428C127.804 94.8428 127.875 94.7529 127.963 94.6788C128.052 94.6046 128.157 94.5479 128.272 94.5123C128.387 94.4767 128.508 94.4629 128.629 94.4718V94.3511C128.393 94.3415 128.169 94.2511 128.004 94.0983C127.84 93.9455 127.746 93.7419 127.743 93.5293H127.617C127.617 93.5293 127.689 94.2343 126.647 94.3323L126.643 94.4114Z" fill="white"/>
    <path d="M64.9028 109.163C65.1457 109.178 65.3739 109.273 65.5437 109.429C65.7135 109.586 65.8128 109.793 65.8226 110.012H65.9444C65.9434 109.903 65.9677 109.795 66.0158 109.695C66.0638 109.595 66.1345 109.505 66.2235 109.431C66.3124 109.357 66.4175 109.3 66.5322 109.264C66.6468 109.229 66.7685 109.215 66.8894 109.224V109.103C66.652 109.094 66.4274 109.004 66.2617 108.851C66.0961 108.699 66.0021 108.494 65.999 108.281H65.8772C65.8772 108.281 65.9486 108.986 64.9028 109.084V109.163Z" fill="white"/>
    <path d="M136.664 76.8626C136.907 76.8773 137.135 76.972 137.305 77.1286C137.475 77.2852 137.574 77.4925 137.584 77.7108H137.706C137.705 77.6021 137.73 77.4945 137.778 77.3947C137.827 77.295 137.897 77.2053 137.986 77.1312C138.075 77.0572 138.18 77.0005 138.294 76.9647C138.408 76.9288 138.53 76.9146 138.651 76.9229V76.8023C138.413 76.7936 138.189 76.7036 138.023 76.5507C137.857 76.3978 137.763 76.1937 137.76 75.9805H137.638C137.638 75.9805 137.71 76.6854 136.668 76.7834L136.664 76.8626Z" fill="white"/>
    <path d="M104.916 48.9659C104.58 48.5786 104.29 48.1603 104.051 47.7181C103.665 46.7002 104.471 45.4562 103.887 44.5363C103.677 44.2083 103.312 43.9708 103.106 43.6353C102.921 43.2471 102.826 42.8288 102.829 42.4063C102.716 41.4053 102.363 40.438 101.793 39.5717C101.223 38.7053 100.45 37.9604 99.5277 37.3887L98.9355 40.6232C97.9643 44.1087 97.4956 47.6917 97.5411 51.2843L103.841 50.7038C104.252 50.7051 104.65 50.571 104.958 50.3268C105.328 49.9649 105.198 49.3806 104.916 48.9659Z" fill="#263238"/>
    <path d="M85.8064 72.7165C85.8064 72.7165 85.945 74.8842 85.8484 77.2404C85.7182 80.539 86.4952 82.4088 93.0136 82.5182C104.95 82.733 103.967 76.9463 103.068 71.8457L85.8064 72.7165Z" fill="#86C240"/>
    <path d="M95.7773 82.1034L101.8 84.6292C101.8 84.6292 100.12 88.8666 99.8513 90.661C99.4565 93.4281 98.7383 103.331 98.7383 103.331L101.876 102.676C101.876 102.676 107.756 88.09 108.516 85.7677C109.247 83.5058 109.776 81.8396 108.634 80.4183C107.491 78.9971 101.032 75.7588 101.032 75.7588L95.7773 82.1034Z" fill="#B97964"/>
    <path d="M99.9477 83.9922C96.2811 83.3965 92.8413 83.2382 89.3175 82.16C88.3809 81.866 86.2347 77.606 86.4951 76.1735C87.4107 71.1407 98.9019 73.3536 98.9019 73.3536C98.9019 73.3536 104.097 76.9765 106.55 78.3675L99.9477 83.9922Z" fill="#86C240"/>
    <path d="M102.459 101.201L101.464 101.183C101.346 101.188 101.231 101.22 101.131 101.277C101.031 101.334 100.949 101.413 100.893 101.507C100.301 102.385 99.8763 102.042 99.2715 101.198C98.8767 101.137 98.7549 101.65 98.7213 101.79L97.9107 104.836C97.872 104.949 97.8785 105.071 97.9291 105.18C97.9797 105.29 98.0712 105.38 98.1879 105.435C98.2279 105.45 98.2707 105.457 98.3139 105.458L101.594 105.514L106.189 105.597C107.449 105.62 107.84 104.244 107.029 103.995C104.723 103.373 103.308 102.63 102.606 101.854C102.455 101.718 102.594 101.62 102.459 101.201Z" fill="#263238"/>
    <path d="M104.597 102.121C104.655 102.073 104.7 102.014 104.731 101.949C104.761 101.884 104.776 101.814 104.774 101.744C104.78 101.707 104.777 101.67 104.764 101.635C104.751 101.6 104.728 101.569 104.698 101.544C104.391 101.291 103.136 101.921 102.993 102C102.984 102.003 102.977 102.009 102.971 102.015C102.965 102.022 102.961 102.029 102.959 102.038C102.953 102.052 102.953 102.068 102.959 102.083C102.965 102.097 102.977 102.11 102.993 102.117C103.293 102.204 103.605 102.256 103.921 102.271C104.16 102.303 104.403 102.249 104.597 102.121ZM104.618 101.661C104.631 101.671 104.641 101.685 104.646 101.7C104.652 101.716 104.652 101.732 104.648 101.747C104.646 101.847 104.601 101.942 104.522 102.011C104.232 102.245 103.551 102.132 103.186 102.049C103.711 101.789 104.45 101.514 104.618 101.649V101.661Z" fill="#86C240"/>
    <path d="M103.031 102.121C103.409 101.952 104.207 101.273 104.173 100.904C104.17 100.852 104.146 100.804 104.106 100.768C104.065 100.732 104.012 100.71 103.955 100.708C103.274 100.606 102.951 101.985 102.951 102.042C102.944 102.052 102.941 102.064 102.941 102.076C102.941 102.088 102.944 102.1 102.951 102.11H102.993L103.031 102.121ZM103.929 100.821C104.055 100.821 104.055 100.888 104.055 100.907C104.085 101.13 103.505 101.699 103.094 101.933C103.182 101.612 103.451 100.802 103.883 100.802L103.929 100.821Z" fill="#86C240"/>
    <path d="M102.274 102.777C102.258 102.78 102.241 102.78 102.224 102.777C102.2 102.765 102.181 102.745 102.173 102.721C102.164 102.697 102.166 102.671 102.178 102.649C102.268 102.483 102.399 102.339 102.562 102.226C102.724 102.114 102.913 102.036 103.114 102C103.128 101.998 103.142 101.999 103.156 102.001C103.17 102.004 103.183 102.01 103.194 102.017C103.205 102.024 103.215 102.034 103.222 102.044C103.229 102.055 103.234 102.067 103.236 102.08C103.24 102.104 103.233 102.129 103.216 102.149C103.2 102.168 103.175 102.181 103.148 102.185C102.979 102.216 102.82 102.283 102.684 102.379C102.549 102.475 102.44 102.599 102.367 102.739C102.356 102.752 102.342 102.762 102.326 102.768C102.31 102.775 102.292 102.778 102.274 102.777Z" fill="#86C240"/>
    <path d="M102.879 103.316C102.863 103.319 102.845 103.319 102.829 103.316C102.817 103.31 102.806 103.302 102.797 103.292C102.789 103.282 102.782 103.271 102.778 103.259C102.774 103.247 102.773 103.235 102.775 103.223C102.776 103.21 102.78 103.198 102.787 103.187C102.876 103.021 103.007 102.876 103.169 102.763C103.332 102.651 103.522 102.574 103.723 102.539C103.749 102.539 103.773 102.547 103.792 102.562C103.811 102.577 103.824 102.598 103.827 102.62C103.831 102.642 103.825 102.665 103.812 102.684C103.798 102.703 103.777 102.717 103.753 102.724C103.588 102.754 103.433 102.817 103.299 102.908C103.165 102.999 103.056 103.117 102.98 103.252C102.974 103.271 102.96 103.287 102.942 103.299C102.924 103.311 102.902 103.317 102.879 103.316Z" fill="#86C240"/>
    <path d="M103.64 103.772H103.589C103.577 103.766 103.566 103.758 103.558 103.749C103.549 103.739 103.542 103.728 103.538 103.716C103.535 103.704 103.533 103.691 103.535 103.679C103.536 103.667 103.54 103.655 103.547 103.644C103.635 103.478 103.765 103.333 103.927 103.22C104.089 103.107 104.278 103.03 104.48 102.996C104.493 102.993 104.507 102.994 104.521 102.997C104.535 102.999 104.548 103.005 104.559 103.012C104.57 103.019 104.58 103.029 104.587 103.04C104.594 103.05 104.599 103.062 104.601 103.075C104.605 103.099 104.598 103.124 104.581 103.144C104.565 103.163 104.54 103.177 104.513 103.18C104.344 103.211 104.185 103.277 104.05 103.372C103.914 103.468 103.805 103.591 103.732 103.731C103.722 103.744 103.708 103.755 103.692 103.762C103.676 103.77 103.658 103.773 103.64 103.772Z" fill="#86C240"/>
    <path d="M100.296 53.6181L107.533 46.8626L110.704 38.0977L114.064 38.6669C114.064 38.6669 112.464 47.9332 110.838 50.1197C109.213 52.3062 103.82 58.4322 103.82 58.4322L100.296 53.6181Z" fill="#B97964"/>
    <path d="M111.116 39.0248C110.48 38.7677 109.965 38.3197 109.658 37.7582C109.305 36.9213 108.772 36.3407 108.558 35.7036C108.344 35.0665 109.083 35.1042 109.473 35.4397C109.864 35.7752 110.423 36.5971 110.658 36.2917C110.893 35.9863 111.187 32.8046 111.565 32.4163C111.943 32.028 112.077 32.552 112.077 32.552C112.077 32.552 112.149 31.8395 112.523 31.7302C112.896 31.6209 112.997 32.0845 112.997 32.0845C112.997 32.0845 113.064 31.6058 113.417 31.7076C113.77 31.8093 113.812 34.6782 113.892 34.7913C113.892 34.7913 113.619 33.0647 114.051 32.8574C114.484 32.65 114.694 33.6113 114.891 34.3653C115.052 35.1865 114.993 36.0303 114.719 36.827C114.408 37.777 114.232 39.1417 113.228 39.3151C112.508 39.3835 111.78 39.2835 111.116 39.0248Z" fill="#B97964"/>
    <g opacity="0.2">
    <path d="M113.06 32.1945C112.985 33.0088 112.938 33.8269 112.926 34.6374C113.163 34.6453 113.399 34.6705 113.631 34.7128C113.749 34.7354 113.669 34.8824 113.556 34.8636C112.828 34.7434 112.08 34.7665 111.363 34.9314C111.242 34.9578 111.225 34.807 111.363 34.7806C111.545 34.7402 111.728 34.7087 111.914 34.6864C111.91 34.6798 111.909 34.6728 111.909 34.6657C111.909 34.6585 111.91 34.6515 111.914 34.6449C111.87 34.0043 111.912 33.3614 112.04 32.7298C112.065 32.6318 112.25 32.6318 112.229 32.7298C112.101 33.3511 112.058 33.9842 112.103 34.6148C112.103 34.6374 112.334 34.7882 112.313 34.8033C112.552 34.7769 112.544 34.6336 112.779 34.6374C112.779 33.8231 112.833 33.0126 112.913 32.1945C112.896 32.089 113.081 32.0965 113.06 32.1945Z" fill="black"/>
    </g>
    <g opacity="0.2">
    <path d="M112.838 38.1763C112.759 37.7498 112.524 37.3588 112.171 37.0652C111.817 36.7717 111.365 36.5923 110.885 36.5553C110.775 36.5553 110.792 36.3781 110.885 36.3819C111.403 36.4224 111.891 36.6173 112.272 36.9357C112.652 37.254 112.903 37.6775 112.985 38.1386C112.994 38.1483 113 38.1598 113.003 38.1721C113.006 38.1845 113.005 38.1973 113.001 38.2094C112.997 38.2214 112.99 38.2324 112.98 38.2413C112.97 38.2501 112.957 38.2566 112.944 38.26C112.93 38.2635 112.916 38.2639 112.902 38.2611C112.888 38.2583 112.876 38.2525 112.865 38.2442C112.855 38.2359 112.847 38.2253 112.842 38.2134C112.837 38.2016 112.835 38.1888 112.838 38.1763Z" fill="black"/>
    </g>
    <path opacity="0.2" d="M113.967 34.8709C113.942 34.8703 113.917 34.8617 113.898 34.8465C113.879 34.8314 113.866 34.8107 113.862 34.788C113.788 34.2492 113.762 33.7058 113.787 33.1632C113.788 33.1508 113.792 33.1387 113.798 33.1277C113.804 33.1166 113.813 33.1067 113.823 33.0987C113.834 33.0906 113.846 33.0845 113.859 33.0807C113.872 33.0769 113.886 33.0755 113.9 33.0765C113.928 33.0793 113.953 33.0914 113.971 33.1103C113.989 33.1292 113.998 33.1535 113.997 33.1783C113.973 33.707 113.998 34.2367 114.072 34.7616C114.076 34.7861 114.069 34.8108 114.052 34.8306C114.036 34.8503 114.011 34.8634 113.984 34.8672L113.967 34.8709Z" fill="black"/>
    <path d="M99.4814 53.4256L105.009 48.9658L110.12 52.5585C110.12 52.5585 104.198 58.9672 103.056 59.9474C101.913 60.9276 99.4814 53.4256 99.4814 53.4256Z" fill="#86C240"/>
    <path opacity="0.4" d="M99.4814 53.4256L105.009 48.9658L110.12 52.5585C110.12 52.5585 104.198 58.9672 103.056 59.9474C101.913 60.9276 99.4814 53.4256 99.4814 53.4256Z" fill="white"/>
    <path d="M85.0964 74.096C85.3731 72.7522 85.5025 71.3873 85.4828 70.0208C85.6088 64.366 85.9028 58.387 86.1674 56.4493C86.2766 55.6954 86.684 53.5692 88.9142 53.0565C91.1444 52.5438 94.3742 52.6531 100.183 52.9019C101.326 54.9697 102.293 57.1121 103.077 59.3106C103.077 59.3106 103.497 63.6648 103.791 66.4734L104.589 72.8557C103.295 74.5484 96.4364 75.7623 85.0964 74.096Z" fill="#86C240"/>
    <path opacity="0.4" d="M85.0964 74.096C85.3731 72.7522 85.5025 71.3873 85.4828 70.0208C85.6088 64.366 85.9028 58.387 86.1674 56.4493C86.2766 55.6954 86.684 53.5692 88.9142 53.0565C91.1444 52.5438 94.3742 52.6531 100.183 52.9019C101.326 54.9697 102.293 57.1121 103.077 59.3106C103.077 59.3106 103.497 63.6648 103.791 66.4734L104.589 72.8557C103.295 74.5484 96.4364 75.7623 85.0964 74.096Z" fill="white"/>
    <path opacity="0.2" d="M103.257 59.8534C103.233 59.8532 103.209 59.8456 103.19 59.832C103.171 59.8183 103.158 59.7993 103.152 59.778L101.955 54.6737C101.952 54.6615 101.952 54.649 101.955 54.6369C101.958 54.6247 101.963 54.6132 101.971 54.6028C101.978 54.5925 101.988 54.5836 101.999 54.5767C102.011 54.5698 102.024 54.5649 102.037 54.5625C102.051 54.56 102.065 54.5599 102.078 54.5623C102.092 54.5646 102.105 54.5694 102.116 54.5762C102.128 54.583 102.137 54.5918 102.145 54.6021C102.153 54.6123 102.158 54.6238 102.161 54.636L103.358 59.7403C103.363 59.7648 103.358 59.79 103.343 59.811C103.328 59.832 103.305 59.8472 103.278 59.8534H103.257Z" fill="black"/>
    <path d="M92.2408 47.7412C92.6272 48.8156 92.4802 48.7025 92.3836 49.8259C92.2786 51.0474 92.1316 52.691 92.1316 52.691C92.2828 52.9738 93.736 53.9125 95.0128 54.3422C97.1464 55.0547 97.9528 54.5797 97.7428 52.9511C97.6465 52.4373 97.7272 51.9094 97.9742 51.4378C98.2211 50.9663 98.6224 50.5736 99.1246 50.3123C101.493 48.9325 92.2408 47.7412 92.2408 47.7412Z" fill="#B97964"/>
    <path d="M99.9309 37.8564C99.9309 37.8564 102.451 39.4549 101.674 42.1428C100.897 44.8307 96.4785 39.7376 96.4785 39.7376L99.9309 37.8564Z" fill="#263238"/>
    <path d="M88.931 44.0916C90.4304 47.5222 91.0856 49.6031 93.929 50.768C98.213 52.5323 103.072 49.3995 102.892 45.6033C102.753 42.1878 100.321 37.1588 95.5334 36.9741C90.7454 36.7894 87.44 40.6723 88.931 44.0916Z" fill="#B97964"/>
    <path d="M96.4492 41.5661C96.4726 41.5267 96.4842 41.4825 96.4828 41.4379C96.4668 41.3817 96.4274 41.3331 96.3727 41.3023C96.318 41.2714 96.2521 41.2606 96.1888 41.272C95.8126 41.3359 95.4595 41.4813 95.1602 41.6955C94.8608 41.9096 94.6242 42.1862 94.471 42.501C94.4596 42.5272 94.4541 42.5552 94.4549 42.5833C94.4557 42.6115 94.4628 42.6392 94.4757 42.6648C94.4886 42.6904 94.5071 42.7135 94.5301 42.7326C94.5531 42.7518 94.5801 42.7666 94.6096 42.7762C94.6698 42.7939 94.7353 42.7905 94.7929 42.7667C94.8505 42.7429 94.896 42.7006 94.9204 42.648C95.0508 42.4005 95.2456 42.1847 95.4882 42.0188C95.7308 41.8528 96.0143 41.7415 96.3148 41.6943C96.3757 41.668 96.4236 41.6223 96.4492 41.5661Z" fill="#263238"/>
    <path d="M101.342 40.3484C101.384 40.3331 101.419 40.307 101.445 40.2734C101.47 40.2399 101.483 40.2003 101.483 40.1599C101.483 40.1194 101.47 40.0799 101.445 40.0463C101.419 40.0128 101.384 39.9867 101.342 39.9714C100.995 39.827 100.614 39.7594 100.232 39.7745C99.8497 39.7896 99.4771 39.8869 99.1454 40.0581C99.1187 40.0727 99.0955 40.092 99.0772 40.1148C99.0588 40.1376 99.0458 40.1635 99.0387 40.1909C99.0317 40.2182 99.0308 40.2466 99.0362 40.2743C99.0415 40.302 99.0529 40.3285 99.0698 40.3521C99.1063 40.398 99.1605 40.43 99.2219 40.4418C99.2833 40.4537 99.3474 40.4446 99.4016 40.4162C99.6688 40.2823 99.9683 40.2088 100.274 40.2023C100.58 40.1957 100.883 40.2562 101.157 40.3785C101.189 40.3847 101.221 40.3853 101.253 40.3801C101.285 40.3749 101.315 40.3641 101.342 40.3484Z" fill="#263238"/>
    <path d="M99.4646 44.0654L100.842 44.6309C100.842 44.6309 100.649 45.1172 99.5822 45.464L99.4646 44.0654Z" fill="#A24E3F"/>
    <path d="M96.7852 38.1431C96.7852 38.1431 94.4206 36.1602 93.505 36.2997C92.4099 36.5032 91.3736 36.9081 90.4614 37.4888C89.5492 38.0695 88.7808 38.8134 88.2046 39.6737C86.6506 42.1165 86.4532 46.908 86.4448 47.6733C86.4448 49.4866 86.281 51.8767 86.281 51.8767L92.6104 51.9558C93.5134 50.365 92.1568 46.0108 92.8456 45.4227C94.6936 43.8431 95.4412 42.1241 96.004 41.1967C96.613 40.1901 96.844 38.3391 96.844 38.3391L99.8932 38.833L101.351 39.964C100.982 39.229 100.562 38.5163 100.091 37.8302C99.2884 36.6729 95.9872 35.9114 94.6978 36.1149C93.4084 36.3185 93.6016 36.6993 93.6016 36.6993L96.7852 38.1431Z" fill="#263238"/>
    <path d="M92.9925 45.5959C92.9925 45.5959 91.5645 43.7788 90.5607 44.6232C89.5569 45.4677 90.5607 48.7701 92.2785 48.4459C93.9963 48.1217 94.0215 46.527 92.9925 45.5959Z" fill="#B97964"/>
    <path d="M100.233 46.5611C100.224 47.0829 100.091 47.597 99.8427 48.0691H99.5403C98.1711 48.0691 97.5369 47.6544 97.2471 47.1982C97.041 46.841 96.9787 46.4308 97.0707 46.0371C97.8015 46.4141 99.0699 46.5272 99.7671 46.5536C99.9222 46.5646 100.078 46.5671 100.233 46.5611Z" fill="#263238"/>
    <path d="M99.7629 46.5536L99.6327 46.9947C98.3391 46.9947 97.4277 46.8212 97.0245 46.4706C97.0165 46.3249 97.032 46.1789 97.0707 46.0371C97.7931 46.4329 99.0615 46.5272 99.7629 46.5536Z" fill="white"/>
    <path d="M99.5403 48.0681C98.1711 48.0681 97.5369 47.6534 97.2429 47.1973C97.7669 47.2084 98.2845 47.3028 98.7717 47.4762C99.0889 47.5989 99.357 47.8053 99.5403 48.0681Z" fill="#A24E3F"/>
    <path opacity="0.2" d="M92.0054 47.5748C91.9828 47.5743 91.9609 47.5677 91.9424 47.5559C91.3124 47.1111 90.905 46.2365 91.346 45.5918C91.3615 45.5708 91.3854 45.5559 91.4128 45.5503C91.4402 45.5447 91.4689 45.5488 91.493 45.5617C91.5161 45.5749 91.5326 45.5957 91.5389 45.6196C91.5452 45.6436 91.5408 45.6688 91.5266 45.6898C91.157 46.2289 91.5266 47.0131 92.0726 47.4051C92.0919 47.4227 92.1026 47.4464 92.1026 47.4711C92.1026 47.4958 92.0919 47.5195 92.0726 47.5371C92.065 47.5473 92.0551 47.5559 92.0435 47.5624C92.0319 47.5689 92.0189 47.5731 92.0054 47.5748Z" fill="black"/>
    <path d="M95.4957 44.3596C95.5629 44.7366 95.8359 44.9854 96.1005 44.9402C96.3651 44.8949 96.5205 44.5632 96.4533 44.2088C96.3861 43.8545 96.1089 43.5868 95.8443 43.6283C95.5797 43.6697 95.4411 43.9977 95.4957 44.3596Z" fill="#263238"/>
    <path d="M99.6999 43.2696C99.7713 43.6465 100.044 43.8953 100.305 43.8501C100.565 43.8049 100.725 43.4731 100.657 43.0961C100.59 42.7192 100.317 42.4779 100.053 42.5156C99.7881 42.5533 99.6201 42.9076 99.6999 43.2696Z" fill="#263238"/>
    <path d="M85.4072 59.4424C85.4072 59.4424 85.4492 65.6174 85.256 66.8275C85.1762 67.3327 85.7516 69.4325 87.2132 70.1035C91.2914 71.9885 98.5028 74.4652 98.6288 74.1335L99.3806 71.5361L91.3754 66.8464L91.8962 60.121L85.4072 59.4424Z" fill="#B97964"/>
    <path d="M99.2 71.7888C99.6223 71.311 100.216 70.9793 100.88 70.8501C101.838 70.7408 102.56 70.4279 103.291 70.3939C104.022 70.36 103.791 70.9707 103.345 71.2233C102.9 71.4759 101.909 71.7586 102.174 72.0263C102.438 72.2939 105.689 73.2628 106.004 73.6699C106.319 74.0771 105.739 74.0658 105.739 74.0658C105.739 74.0658 106.466 74.2882 106.491 74.6275C106.516 74.9668 106.008 74.9517 106.008 74.9517C106.008 74.9517 106.491 75.1138 106.319 75.4078C106.147 75.7019 103.119 75.0648 102.98 75.1063C102.98 75.1063 104.853 75.2684 104.967 75.6793C105.08 76.0902 104.034 76.0563 103.198 76.0299C102.308 75.9778 101.444 75.7361 100.678 75.3249C99.7628 74.8499 98.3768 74.39 98.4398 73.5078C98.5258 72.886 98.7875 72.2943 99.2 71.7888Z" fill="#B97964"/>
    <path d="M84.1431 63.9625C84.1431 63.9625 83.3283 53.505 88.9143 53.0299C94.2315 52.5776 94.1223 63.774 94.1223 63.774L84.1431 63.9625Z" fill="#86C240"/>
    <path opacity="0.4" d="M84.1431 63.9625C84.1431 63.9625 83.3283 53.505 88.9143 53.0299C94.2315 52.5776 94.1223 63.774 94.1223 63.774L84.1431 63.9625Z" fill="white"/>
    <path d="M94.3113 36.525C93.2739 35.9746 91.9215 36.2687 90.8883 36.8266C89.8551 37.3845 88.9941 38.1724 87.9483 38.7115C87.1587 39.0885 86.1927 39.4089 85.8483 40.1554C85.5291 40.8189 85.8231 41.6068 85.6005 42.3042C85.1805 43.6274 83.1141 44.1288 82.7781 45.4746C82.4967 46.583 83.5635 47.7365 83.1981 48.8185C82.9671 49.531 82.1523 50.0927 82.2363 50.8316C82.2865 51.0758 82.4113 51.3027 82.5966 51.4871C82.782 51.6715 83.0207 51.806 83.2863 51.8758C83.819 52.0079 84.3744 52.0501 84.9243 52.0003L90.8043 51.7778C90.8043 51.7778 89.4897 46.926 89.3259 46.9901C89.1621 47.0542 91.2201 41.8556 91.2201 41.8556L94.3113 36.525Z" fill="#263238"/>
    <path d="M91.4972 44.4042C91.4972 44.4042 90.4472 42.4325 91.7114 39.7522C92.9756 37.0718 93.8702 36.3254 93.8702 36.3254C93.6877 36.245 93.4854 36.2074 93.2822 36.2161C93.2822 36.2161 90.3422 38.8889 90.2498 41.7502C90.1574 44.6115 90.5606 44.6228 90.5606 44.6228L91.4972 44.4042Z" fill="#86C240"/>
    <path d="M95.3193 33.8869C95.1455 33.7598 94.9282 33.6904 94.704 33.6904C94.4798 33.6904 94.2625 33.7598 94.0887 33.8869C93.9198 34.0195 93.7834 34.1821 93.688 34.3644C93.5925 34.5468 93.5402 34.7448 93.5343 34.9462C93.4712 35.3754 93.4712 35.8101 93.5343 36.2392C93.2917 35.6637 92.8326 35.1823 92.2365 34.8783C92.0937 34.784 91.9243 34.7276 91.7475 34.7156C91.5708 34.7036 91.3938 34.7365 91.2369 34.8105C90.9177 35.0216 90.9387 35.4514 91.0101 35.8057C91.0405 36.0297 91.1085 36.2483 91.2117 36.4541C91.2636 36.5576 91.339 36.6503 91.433 36.7262C91.527 36.8022 91.6376 36.8597 91.7577 36.8952C92.0239 36.9385 92.2983 36.911 92.5473 36.816L94.4289 36.2845C94.7585 36.2203 95.0613 36.0739 95.3025 35.8623C95.4892 35.6178 95.5914 35.3293 95.5965 35.0329C95.649 34.8354 95.6514 34.6299 95.6034 34.4315C95.5554 34.2332 95.4583 34.047 95.3193 33.8869Z" fill="#86C240"/>
    <path d="M79.3886 50.0969C81.0686 49.9876 81.392 48.3213 81.371 47.1037C81.371 46.2253 81.2576 45.2187 81.9254 44.4648C82.4168 43.9257 83.1854 43.7108 83.744 43.2132C84.3026 42.7156 84.3992 42.0219 84.6344 41.3735C84.8826 40.7388 85.3879 40.2112 86.0498 39.8957C87.3098 39.2285 88.6538 38.8138 89.6744 37.8261C89.813 37.6941 89.5904 37.4943 89.4518 37.6263C88.4144 38.629 87.0452 39.0098 85.7852 39.7072C85.3453 39.9391 84.9669 40.2543 84.6764 40.6308C84.2564 41.2227 84.2564 41.9578 83.8742 42.5761C83.4752 43.2547 82.652 43.5072 82.0304 43.9785C81.5275 44.3703 81.2005 44.913 81.1106 45.5053C80.972 46.2592 81.1106 47.0132 81.0476 47.7672C80.9846 48.6531 80.5394 49.7313 79.3886 49.8067C79.1912 49.8067 79.187 50.1045 79.3886 50.0894V50.0969Z" fill="#263238"/>
    <path opacity="0.2" d="M85.3064 63.9812L92.5598 63.8115L92.5556 64.5089L85.3064 64.5843V63.9812Z" fill="black"/>
    </svg>
    