<svg width="210" height="154" viewBox="0 0 210 154" fill="none" xmlns="http://www.w3.org/2000/svg">
<path d="M210 135.183H0V135.286H210V135.183Z" fill="#EBEBEB"/>
<path d="M188.958 141.815H175.047V141.919H188.958V141.815Z" fill="#EBEBEB"/>
<path d="M169.76 141.815H140.02V141.919H169.76V141.815Z" fill="#EBEBEB"/>
<path d="M123.619 137.991H115.559V138.094H123.619V137.991Z" fill="#EBEBEB"/>
<path d="M36.4345 138.682H22.0327V138.785H36.4345V138.682Z" fill="#EBEBEB"/>
<path d="M66.3603 138.682H40.1733V138.785H66.3603V138.682Z" fill="#EBEBEB"/>
<path d="M94.5583 140.422H79.0981V140.525H94.5583V140.422Z" fill="#EBEBEB"/>
<path d="M99.5401 116.794H18.4423C17.807 116.793 17.1981 116.544 16.7493 116.103C16.3004 115.661 16.0483 115.063 16.0483 114.44V2.53372C16.0539 1.91365 16.3084 1.32077 16.7566 0.883851C17.2049 0.44693 17.8106 0.201258 18.4423 0.200195H99.5401C100.176 0.200195 100.786 0.44822 101.236 0.889706C101.686 1.33119 101.938 1.92998 101.938 2.55433V114.44C101.938 114.749 101.876 115.055 101.756 115.341C101.635 115.626 101.459 115.886 101.236 116.104C101.013 116.323 100.749 116.496 100.458 116.615C100.167 116.733 99.8551 116.794 99.5401 116.794ZM18.4423 0.282652C17.8349 0.283744 17.2527 0.521391 16.8235 0.943429C16.3944 1.36547 16.1533 1.93741 16.1533 2.53372V114.44C16.1533 115.036 16.3944 115.608 16.8235 116.03C17.2527 116.452 17.8349 116.69 18.4423 116.691H99.5401C100.148 116.689 100.73 116.451 101.159 116.029C101.589 115.607 101.831 115.036 101.833 114.44V2.53372C101.831 1.93737 101.589 1.36606 101.159 0.944374C100.73 0.522687 100.148 0.284824 99.5401 0.282652H18.4423Z" fill="#EBEBEB"/>
<path d="M190.39 116.794H109.288C108.653 116.792 108.044 116.543 107.595 116.102C107.146 115.661 106.892 115.063 106.89 114.44V2.53372C106.897 1.91328 107.152 1.3204 107.601 0.883593C108.05 0.446786 108.656 0.201246 109.288 0.200195H190.39C191.021 0.202341 191.626 0.448492 192.073 0.885297C192.521 1.3221 192.775 1.91437 192.78 2.53372V114.44C192.781 114.748 192.719 115.054 192.6 115.339C192.48 115.625 192.304 115.884 192.082 116.103C191.86 116.321 191.596 116.495 191.306 116.613C191.016 116.732 190.705 116.793 190.39 116.794ZM109.288 0.282652C108.681 0.284824 108.099 0.522687 107.669 0.944374C107.24 1.36606 106.997 1.93737 106.995 2.53372V114.44C106.997 115.036 107.24 115.607 107.669 116.029C108.099 116.451 108.681 116.689 109.288 116.691H190.39C190.998 116.689 191.58 116.451 192.009 116.029C192.439 115.607 192.681 115.036 192.684 114.44V2.53372C192.681 1.93737 192.439 1.36606 192.009 0.944374C191.58 0.522687 190.998 0.284824 190.39 0.282652H109.288Z" fill="#EBEBEB"/>
<path d="M135.84 8.35547H27.0142V72.9932H135.84V8.35547Z" fill="#E6E6E6"/>
<path d="M135.105 8.35547H25.3174V72.9932H135.105V8.35547Z" fill="#F5F5F5"/>
<path d="M132.052 11.583H28.3623V69.7561H132.052V11.583Z" fill="#FAFAFA"/>
<path d="M123.85 69.7559L101.527 11.5869H92.127L114.45 69.7559H123.85Z" fill="white"/>
<path d="M111.786 69.7559L89.459 11.5869H82.9868L105.314 69.7559H111.786Z" fill="white"/>
<path d="M72.3448 69.7559L50.0176 11.5869H43.5454L65.8684 69.7559H72.3448Z" fill="white"/>
<path d="M54.4736 11.5869H50.8364V69.76H54.4736V11.5869Z" fill="#E6E6E6"/>
<path d="M112.018 11.5869H108.38V69.76H112.018V11.5869Z" fill="#E6E6E6"/>
<path d="M53.8136 9.18359H49.2188V71.8094H53.8136V9.18359Z" fill="#F5F5F5"/>
<path d="M111.363 9.18066H106.769V71.8064H111.363V9.18066Z" fill="#F5F5F5"/>
<path d="M28.6898 11.5869H28.3672V69.76H28.6898V11.5869Z" fill="#E6E6E6"/>
<path d="M139.142 4.19531H24.049C23.824 4.19531 23.6416 4.37436 23.6416 4.59523V4.61996C23.6416 4.84083 23.824 5.01988 24.049 5.01988H139.142C139.367 5.01988 139.549 4.84083 139.549 4.61996V4.59523C139.549 4.37436 139.367 4.19531 139.142 4.19531Z" fill="#E6E6E6"/>
<path d="M135.84 5.7629C135.98 5.76078 136.113 5.70536 136.212 5.6084C136.311 5.51144 136.367 5.38054 136.369 5.24343V3.97772C136.369 3.83956 136.314 3.707 136.215 3.60893C136.116 3.51085 135.981 3.45521 135.84 3.45412C135.771 3.45357 135.702 3.46663 135.637 3.49254C135.573 3.51845 135.514 3.5567 135.465 3.60505C135.416 3.65339 135.377 3.71088 135.35 3.77415C135.324 3.83743 135.31 3.90522 135.311 3.97359V5.2393C135.31 5.30768 135.324 5.37547 135.35 5.43875C135.377 5.50202 135.416 5.55951 135.465 5.60785C135.514 5.6562 135.573 5.69444 135.637 5.72036C135.702 5.74627 135.771 5.75933 135.84 5.75878V5.7629Z" fill="#E6E6E6"/>
<path d="M29.962 5.76289C30.0317 5.76344 30.1007 5.75037 30.1652 5.72446C30.2296 5.69855 30.2882 5.66031 30.3375 5.61196C30.3867 5.56361 30.4257 5.50613 30.4521 5.44285C30.4785 5.37958 30.4918 5.31178 30.4912 5.24341V3.9777C30.4923 3.90933 30.4796 3.84143 30.4537 3.77795C30.4278 3.71447 30.3893 3.65668 30.3404 3.60795C30.2916 3.55922 30.2333 3.52052 30.1691 3.4941C30.1048 3.46769 30.0359 3.45409 29.9662 3.4541C29.8255 3.45519 29.6909 3.51083 29.5918 3.60891C29.4926 3.70699 29.437 3.83955 29.437 3.9777V5.24341C29.4391 5.37982 29.495 5.51012 29.5929 5.60697C29.6908 5.70383 29.8231 5.7597 29.962 5.76289Z" fill="#E6E6E6"/>
<path opacity="0.6" d="M133.892 4.60742H24.1582V50.7295H133.892V4.60742Z" fill="#EBEBEB"/>
<path d="M182.729 21.5605H154.95V49.4432H182.729V21.5605Z" fill="#E0E0E0"/>
<path d="M181.999 21.5605H153.275V49.4432H181.999V21.5605Z" fill="#F5F5F5"/>
<path d="M179.587 24.7227H155.677V46.2768H179.587V24.7227Z" fill="white"/>
<path d="M182.561 84.9912H174.787V132.866H182.561V84.9912Z" fill="#F0F0F0"/>
<path d="M181.067 132.864H95.4248V135.177H181.067V132.864Z" fill="#F0F0F0"/>
<path d="M174.783 84.9951H93.9331V132.869H174.783V84.9951Z" fill="#F5F5F5"/>
<path d="M182.561 82.9746H174.787V84.9948H182.561V82.9746Z" fill="#E6E6E6"/>
<path d="M174.783 82.9746H93.9331V84.9948H174.783V82.9746Z" fill="#F0F0F0"/>
<path d="M171.994 101.724H96.73V89.252H171.994V101.724ZM97.234 101.208H171.469V89.7426H97.2508L97.234 101.208Z" fill="#E0E0E0"/>
<path d="M171.994 128.626H96.73V104.788H171.994V128.626ZM97.234 128.115H171.469V105.312H97.2508L97.234 128.115Z" fill="#E0E0E0"/>
<path d="M161.851 89.4932H106.869V91.134H161.851V89.4932Z" fill="#E0E0E0"/>
<path d="M161.851 105.044H106.869V106.685H161.851V105.044Z" fill="#E0E0E0"/>
<path d="M153.388 82.1006H123.509V82.9746H153.388V82.1006Z" fill="#E0E0E0"/>
<path d="M153.388 82.0999H123.509L126.382 65.3076H156.261L153.388 82.0999Z" fill="#E0E0E0"/>
<path d="M152.834 82.0999H122.955L125.828 65.3076H155.707L152.834 82.0999Z" fill="#EBEBEB"/>
<path d="M124.089 80.7812L126.534 66.5039C126.548 66.4158 126.594 66.3356 126.663 66.2781C126.733 66.2205 126.821 66.1894 126.912 66.1905H154.212C154.262 66.1894 154.311 66.1981 154.358 66.2161C154.404 66.234 154.446 66.2609 154.482 66.295C154.517 66.3292 154.546 66.37 154.565 66.4151C154.584 66.4602 154.594 66.5086 154.594 66.5575C154.598 66.5806 154.598 66.6043 154.594 66.6275L152.15 80.9049C152.136 80.993 152.09 81.0732 152.02 81.1307C151.951 81.1882 151.863 81.2193 151.772 81.2182H124.472C124.422 81.2193 124.372 81.2107 124.326 81.1927C124.28 81.1748 124.238 81.1479 124.202 81.1137C124.166 81.0795 124.138 81.0387 124.119 80.9937C124.099 80.9486 124.089 80.9002 124.089 80.8513C124.085 80.8281 124.085 80.8044 124.089 80.7812Z" fill="#FAFAFA"/>
<path d="M146.626 82.1006H116.748V82.9746H146.626V82.1006Z" fill="#F0F0F0"/>
<path d="M71.0089 77.6592H55.0195C51.4159 77.6592 48.1651 80.7224 47.3167 84.9195L44.6413 98.1125H39.1519C36.5353 98.1125 34.2841 100.31 33.7927 103.353L33.0619 107.888C31.9573 108.073 31.0081 109.071 30.7393 110.394H63.7513C67.3507 110.394 70.5973 107.335 71.4457 103.142L75.2845 84.1774C75.9607 80.7637 73.9195 77.6592 71.0089 77.6592ZM38.5639 107.805H34.5025L35.1829 103.662C35.5483 101.423 37.2115 99.7947 39.1393 99.7947H44.2927L43.6795 103.015C43.0957 105.789 40.9453 107.805 38.5639 107.805Z" fill="#E6E6E6"/>
<path d="M63.0581 110.357H64.2173L66.4139 135.181H65.2547L63.0581 110.357Z" fill="#E0E0E0"/>
<path d="M58.7075 110.357H59.8667L62.0633 135.181H60.9041L58.7075 110.357Z" fill="#E0E0E0"/>
<path d="M35.7708 110.357H34.6116L32.415 135.181H33.5742L35.7708 110.357Z" fill="#E0E0E0"/>
<path d="M40.1224 110.357H38.9632L36.7666 135.181H37.9258L40.1224 110.357Z" fill="#E0E0E0"/>
<path d="M105 153.799C149.974 153.799 186.434 151.709 186.434 149.132C186.434 146.554 149.974 144.465 105 144.465C60.0251 144.465 23.5659 146.554 23.5659 149.132C23.5659 151.709 60.0251 153.799 105 153.799Z" fill="#F5F5F5"/>
<path opacity="0.1" d="M104.868 55.3324L105.288 53.5967C105.31 53.5317 105.318 53.4632 105.313 53.3951C105.307 53.3269 105.288 53.2605 105.257 53.1996C105.225 53.1387 105.181 53.0846 105.128 53.0402C105.075 52.9958 105.014 52.9622 104.948 52.9412C104.889 52.9206 104.826 52.9121 104.763 52.9164H98.3748C97.329 47.2764 93.612 43.1329 94.683 36.2808C96.783 33.0403 89.223 20.9975 83.7336 28.2372C76.623 28.6948 83.2002 41.7889 69.672 45.1408C59.7222 47.6145 54.2664 53.271 52.0698 58.0287C52.9058 58.4861 53.847 58.7259 54.804 58.7255H55.056C55.9118 56.8514 57.0801 55.1306 58.5126 53.6338C57.7681 55.2912 57.1271 56.9916 56.5932 58.7255H105.485L105.607 56.0374C105.615 55.9523 105.606 55.8665 105.58 55.785C105.554 55.7034 105.512 55.6277 105.456 55.5621C105.401 55.4966 105.332 55.4425 105.255 55.4031C105.178 55.3637 105.093 55.3397 105.007 55.3324C104.961 55.3283 104.914 55.3283 104.868 55.3324Z" fill="#86C240"/>
<path d="M90.114 57.7692C89.274 64.0359 88.3248 76.3962 70.8486 77.6206C59.307 78.4246 54.246 67.6558 46.98 64.1431C47.6226 58.9978 50.0292 53.836 50.1132 53.6299C47.5607 56.3499 45.825 59.7104 45.0984 63.3392C44.2572 63.0307 43.392 62.7894 42.5112 62.6177C42.5112 57.7692 47.7402 48.4846 61.2726 45.1369C74.805 41.7891 68.2236 28.695 75.3342 28.2333C80.832 20.9936 88.3836 33.0364 86.2836 36.2769C84.9312 44.939 91.227 49.2638 90.114 57.7692Z" fill="#263238"/>
<path d="M96.7126 58.0084C96.6794 57.7888 96.5866 57.5821 96.444 57.4098C96.3013 57.2375 96.1141 57.1061 95.9018 57.0294C95.6896 56.9526 95.4603 56.9334 95.2379 56.9736C95.0155 57.0138 94.8082 57.1121 94.6378 57.2581L92.5378 59.0061C92.4178 59.1617 92.337 59.3428 92.302 59.5349C92.2669 59.7269 92.2787 59.9243 92.3362 60.1111L92.71 61.3108C93.6947 61.3725 94.6817 61.2321 95.608 60.8985C96.0336 60.7584 96.3943 60.4738 96.6253 60.0959C96.8562 59.718 96.9423 59.2717 96.868 58.8371L96.7126 58.0084Z" fill="#FFB573"/>
<path d="M84.8388 50.7977C84.9228 51.2512 85.0362 51.8078 85.1454 52.3232C85.2546 52.8385 85.3764 53.3663 85.5024 53.8857C85.7544 54.9288 86.0442 55.9471 86.3424 56.9779C86.6406 58.0086 87.0186 58.9733 87.405 59.9381C87.7995 60.8651 88.2526 61.767 88.7616 62.6385L87.678 61.7933C87.9022 61.934 88.172 61.9869 88.434 61.9417C88.9237 61.8686 89.3952 61.7064 89.8242 61.4635C90.3743 61.1752 90.8984 60.8414 91.3908 60.4658C91.9074 60.0865 92.4408 59.6412 92.9112 59.2289L93.012 59.1465C93.2308 58.9622 93.5072 58.8572 93.7953 58.8488C94.0833 58.8404 94.3656 58.9293 94.5951 59.1005C94.8245 59.2717 94.9872 59.5149 95.0561 59.7896C95.1249 60.0643 95.0958 60.3539 94.9734 60.6101C94.623 61.3359 94.201 62.0264 93.7134 62.6715C93.2213 63.3373 92.6581 63.9496 92.0334 64.4979C91.3145 65.132 90.4773 65.6234 89.568 65.945C89.028 66.134 88.4611 66.2384 87.888 66.2542C87.2667 66.2699 86.6473 66.1806 86.0568 65.9904C85.6562 65.8603 85.3088 65.6074 85.0656 65.2689L84.9732 65.1452C84.2335 64.1153 83.579 63.0289 83.016 61.8964C82.4784 60.7989 82.003 59.673 81.5922 58.5239C81.1864 57.3943 80.8388 56.2453 80.5506 55.0814C80.4078 54.5042 80.2692 53.9228 80.1306 53.3374C79.992 52.752 79.9122 52.183 79.8198 51.5234C79.7409 50.8881 79.9157 50.2476 80.3077 49.7363C80.6997 49.225 81.2783 48.8827 81.922 48.7813C82.5657 48.6799 83.2243 48.8273 83.7596 49.1925C84.2949 49.5578 84.6652 50.1124 84.7926 50.74L84.8388 50.7977Z" fill="#FFB573"/>
<path d="M55.574 137.222C54.923 134.336 55.0868 133.655 54.5576 132.068C54.28 131.17 53.8817 130.311 53.3732 129.516C52.9112 128.692 53.7932 128.003 54.6668 127.892C55.3514 127.809 56.0738 127.78 56.9138 127.648L58.7282 130.971C57.7706 132.163 57.0062 135.094 57.3464 137.312C57.5816 138.912 55.8344 138.38 55.574 137.222Z" fill="#86C240"/>
<path d="M84.8395 68.4639C84.8395 68.4639 85.3183 92.8999 85.8265 106.439C87.1621 114.45 59.0977 131.131 59.0977 131.131C58.4971 131.411 56.9053 128.356 56.9305 127.647C56.9305 127.647 69.0013 110.195 76.1917 105.982C68.2117 84.3574 70.3957 68.4639 70.3957 68.4639H84.8395Z" fill="#263238"/>
<path opacity="0.2" d="M70.3786 68.4639H79.4884C79.4884 68.4639 77.6656 92.3515 75.637 104.481C68.3164 83.6276 70.3786 68.4639 70.3786 68.4639Z" fill="black"/>
<path opacity="0.2" d="M64.7464 117.29C68.203 113.056 72.2014 108.632 75.4144 106.472C74.9566 110.66 74.4862 115.715 74.125 120.902C71.1052 123.247 67.972 125.437 65.3512 127.172C64.9168 123.896 64.7147 120.594 64.7464 117.29Z" fill="black"/>
<path d="M60.8401 130.529C60.4747 130.785 59.8237 131.251 59.3533 131.609C59.3168 131.638 59.2748 131.659 59.2297 131.672C59.1847 131.685 59.1376 131.689 59.091 131.683C59.0445 131.678 58.9995 131.663 58.9588 131.641C58.918 131.618 58.8822 131.588 58.8535 131.551C57.9512 130.333 57.1653 129.036 56.5057 127.676C56.4708 127.609 56.459 127.533 56.4718 127.458C56.4847 127.384 56.5216 127.316 56.5771 127.264L57.7531 126.118C57.8214 126.052 57.9134 126.015 58.0093 126.015C58.1051 126.015 58.1971 126.052 58.2655 126.118L58.3033 126.163L60.9283 130.03C60.9563 130.068 60.9763 130.112 60.987 130.158C60.9978 130.204 60.9991 130.251 60.9909 130.298C60.9827 130.344 60.9651 130.389 60.9392 130.428C60.9133 130.468 60.8796 130.502 60.8401 130.529Z" fill="#86C240"/>
<path opacity="0.3" d="M60.8401 130.529C60.4747 130.785 59.8237 131.251 59.3533 131.609C59.3168 131.638 59.2748 131.659 59.2297 131.672C59.1847 131.685 59.1376 131.689 59.091 131.683C59.0445 131.678 58.9995 131.663 58.9588 131.641C58.918 131.618 58.8822 131.588 58.8535 131.551C57.9512 130.333 57.1653 129.036 56.5057 127.676C56.4708 127.609 56.459 127.533 56.4718 127.458C56.4847 127.384 56.5216 127.316 56.5771 127.264L57.7531 126.118C57.8214 126.052 57.9134 126.015 58.0093 126.015C58.1051 126.015 58.1971 126.052 58.2655 126.118L58.3033 126.163L60.9283 130.03C60.9563 130.068 60.9763 130.112 60.987 130.158C60.9978 130.204 60.9991 130.251 60.9909 130.298C60.9827 130.344 60.9651 130.389 60.9392 130.428C60.9133 130.468 60.8796 130.502 60.8401 130.529Z" fill="white"/>
<path d="M74.3687 151.196C71.3027 151.196 71.5169 151.151 69.7865 151.093C68.3081 151.039 67.9679 151.221 66.7793 151.196C65.7881 151.175 65.7377 150.244 65.9393 149.172C66.0443 148.632 66.2207 147.976 66.3593 147.11H71.0213C71.4453 147.75 72.0097 148.29 72.6731 148.688C73.3365 149.087 74.0822 149.335 74.8559 149.415C76.5233 149.625 75.5993 151.196 74.3687 151.196Z" fill="#86C240"/>
<path d="M80.4876 68.4639C80.4876 68.4639 75.666 94.5202 73.8978 106.332C72.0456 118.734 69.7566 138.865 71.0166 147.107C70.3362 147.519 67.8078 147.54 66.3546 147.107C66.3546 147.107 58.9836 118.82 65.1408 106.88C61.638 77.8515 66.8208 76.3426 68.2488 68.4639H80.4876Z" fill="#263238"/>
<path d="M71.2102 145.388C71.2743 145.959 71.381 146.526 71.5294 147.082C71.5443 147.123 71.5504 147.167 71.5473 147.21C71.5442 147.254 71.5321 147.296 71.5116 147.335C71.4911 147.374 71.4627 147.408 71.4282 147.435C71.3937 147.463 71.3538 147.483 71.311 147.494C71.2957 147.497 71.2801 147.497 71.2648 147.494C69.5848 147.762 67.0648 147.375 66.2794 147.235C66.2052 147.219 66.1368 147.184 66.0813 147.133C66.0258 147.082 65.9854 147.018 65.9644 146.946L65.5654 145.359C65.5504 145.318 65.5439 145.275 65.5464 145.232C65.549 145.189 65.5604 145.147 65.58 145.108C65.5997 145.07 65.6271 145.035 65.6607 145.008C65.6943 144.98 65.7333 144.959 65.7754 144.946C65.8131 144.942 65.8511 144.942 65.8888 144.946L70.828 145.037C70.9227 145.044 71.012 145.083 71.0814 145.147C71.1508 145.21 71.1962 145.295 71.2102 145.388Z" fill="#86C240"/>
<path opacity="0.3" d="M71.2102 145.388C71.2743 145.959 71.381 146.526 71.5294 147.082C71.5443 147.123 71.5504 147.167 71.5473 147.21C71.5442 147.254 71.5321 147.296 71.5116 147.335C71.4911 147.374 71.4627 147.408 71.4282 147.435C71.3937 147.463 71.3538 147.483 71.311 147.494C71.2957 147.497 71.2801 147.497 71.2648 147.494C69.5848 147.762 67.0648 147.375 66.2794 147.235C66.2052 147.219 66.1368 147.184 66.0813 147.133C66.0258 147.082 65.9854 147.018 65.9644 146.946L65.5654 145.359C65.5504 145.318 65.5439 145.275 65.5464 145.232C65.549 145.189 65.5604 145.147 65.58 145.108C65.5997 145.07 65.6271 145.035 65.6607 145.008C65.6943 144.98 65.7333 144.959 65.7754 144.946C65.8131 144.942 65.8511 144.942 65.8888 144.946L70.828 145.037C70.9227 145.044 71.012 145.083 71.0814 145.147C71.1508 145.21 71.1962 145.295 71.2102 145.388Z" fill="white"/>
<path d="M80.9119 45.6387C83.9695 46.2035 84.6163 47.4321 86.8675 51.9878C86.1871 54.9893 82.5331 57.6237 82.5331 57.6237C82.5331 57.6237 75.8677 49.5141 80.9119 45.6387Z" fill="white"/>
<path d="M68.2486 68.4627C65.38 72.3052 62.2552 78.4441 62.23 91.6372C77.14 98.2337 84.2338 98.2337 87.7786 96.5846C85.2208 86.4094 84.8386 68.4627 84.8386 68.4627C82.4572 65.8901 68.2486 68.4627 68.2486 68.4627Z" fill="#86C240"/>
<path opacity="0.2" d="M78.3041 80.0488C76.9979 84.7901 78.3377 89.5313 79.4885 90.5827C78.6989 87.8451 78.3041 80.0488 78.3041 80.0488Z" fill="black"/>
<path d="M85.7589 51.3266C85.8093 52.9262 85.6497 54.8598 85.2843 58.6693C85.0365 61.8934 85.8555 68.024 84.8223 68.4734C82.2099 69.1908 75.3513 68.8609 68.2491 68.4734C67.9173 63.8558 68.0391 60.673 65.0655 50.3659C64.7475 49.4108 64.829 48.3708 65.2922 47.4747C65.7553 46.5786 66.5621 45.8998 67.5351 45.5876C67.8077 45.5003 68.0895 45.4436 68.3751 45.4185C69.0345 45.3526 69.7317 45.2949 70.4457 45.2619C72.9498 45.0846 75.4637 45.0846 77.9679 45.2619C78.7869 45.3361 79.6479 45.435 80.4459 45.5463C81.877 45.7553 83.1896 46.4462 84.1589 47.5007C85.1281 48.5552 85.6938 49.9077 85.7589 51.3266Z" fill="white"/>
<path d="M73.1092 38.1113C73.5292 40.5397 72.4246 43.6895 70.8496 45.2727C70.8496 45.2727 73.1428 44.9346 78.0106 47.8907C79.4218 45.9076 78.376 45.2727 78.376 45.2727C77.0698 45.0253 77.0698 44.0894 77.5822 42.2836L73.1092 38.1113Z" fill="#FFB573"/>
<path d="M76.9892 47.2935C75.3848 47.5162 74.8892 49.895 74.8892 49.895C74.8892 49.895 71.0378 47.2193 69.8198 45.3352C70.3041 45.0668 70.7738 44.7737 71.2268 44.457C71.2268 44.457 76.0526 46.3783 76.9892 47.2935Z" fill="#86C240"/>
<path d="M78.5136 47.0374C78.5136 47.0374 79.7736 47.3095 80.4246 49.0493C80.79 45.582 79.1184 45.2646 79.1184 45.2646C78.9078 45.1176 78.6684 45.0153 78.4153 44.9642C78.1622 44.9131 77.901 44.9143 77.6484 44.9677C78.921 45.6274 78.5136 47.0374 78.5136 47.0374Z" fill="#86C240"/>
<path opacity="0.2" d="M77.5815 42.279L74.9565 39.8301C75.0027 40.2424 75.0741 40.7577 75.1707 41.2566C75.4701 42.5331 76.2312 43.6597 77.3127 44.427C77.1867 43.9323 77.3127 43.2273 77.5815 42.279Z" fill="black"/>
<path d="M74.1246 32.5384C73.0956 36.3108 72.579 37.8981 73.7802 40.4872C75.5862 44.408 80.391 45.0223 82.5078 41.7034C84.4188 38.6979 85.7796 33.0455 82.7052 30.1842C82.0665 29.5494 81.2664 29.0938 80.3879 28.8648C79.5093 28.6358 78.5844 28.6417 77.709 28.8818C76.8335 29.122 76.0395 29.5877 75.4092 30.2307C74.779 30.8737 74.3354 31.6704 74.1246 32.5384Z" fill="#FFB573"/>
<path d="M75.6748 28.8626C76.2712 33.3729 82.3192 30.7426 85.9942 35.9662C85.6456 31.5135 81.1936 25.1932 75.6748 28.8626Z" fill="#263238"/>
<path d="M76.0522 28.6953C81.2182 32.0843 75.565 34.8301 71.7472 34.6281C70.4872 30.8845 76.0522 28.6953 76.0522 28.6953Z" fill="#263238"/>
<path opacity="0.2" d="M78.6612 35.3742C78.5008 35.1702 78.3011 34.9993 78.0733 34.8712C77.8456 34.7432 77.5943 34.6605 77.334 34.6279C77.7242 34.9569 78.1746 35.2102 78.6612 35.3742Z" fill="black"/>
<path opacity="0.2" d="M78.4591 35.6582C78.2763 35.5071 78.0621 35.3967 77.8315 35.3348C77.6009 35.2728 77.3593 35.2608 77.1235 35.2996C77.5379 35.5103 77.9931 35.6326 78.4591 35.6582Z" fill="black"/>
<path d="M79.425 35.741C79.3242 36.0544 79.404 36.3718 79.6014 36.446C79.7988 36.5202 80.0424 36.3306 80.1432 36.0337C80.244 35.7369 80.1642 35.4071 79.9668 35.3287C79.7694 35.2504 79.5258 35.4318 79.425 35.741Z" fill="#263238"/>
<path d="M83.1301 37.2292C83.0293 37.5425 83.1091 37.8558 83.3065 37.9342C83.5039 38.0125 83.7265 37.8187 83.8441 37.5219C83.9617 37.225 83.8651 36.8911 83.6677 36.8169C83.4703 36.7427 83.2267 36.9158 83.1301 37.2292Z" fill="#263238"/>
<path d="M83.5796 36.7842L84.3734 36.846C84.3734 36.846 83.8106 37.3078 83.5796 36.7842Z" fill="#263238"/>
<path d="M81.9283 37.3438C81.9629 38.162 82.104 38.9725 82.3483 39.7556C82.1538 39.8092 81.9494 39.8184 81.7507 39.7827C81.552 39.747 81.3642 39.6672 81.2017 39.5495L81.9283 37.3438Z" fill="#ED893E"/>
<path d="M79.1104 40.037C79.2663 40.1314 79.4308 40.2115 79.6018 40.2761C79.6119 40.281 79.623 40.2837 79.6343 40.2842C79.6456 40.2847 79.6568 40.283 79.6674 40.2792C79.678 40.2753 79.6877 40.2694 79.6959 40.2618C79.7041 40.2542 79.7107 40.2451 79.7152 40.2349C79.7234 40.2108 79.7219 40.1846 79.711 40.1615C79.7 40.1385 79.6805 40.1205 79.6564 40.1112C79.2687 39.9629 78.92 39.731 78.6357 39.4328C78.3515 39.1345 78.1391 38.7774 78.0142 38.3879C78.0082 38.3638 77.9932 38.3429 77.9722 38.3291C77.9512 38.3154 77.9257 38.3099 77.9008 38.3137C77.8766 38.3221 77.8565 38.3389 77.8441 38.361C77.8317 38.383 77.828 38.4087 77.8336 38.4332C78.0466 39.1023 78.5005 39.6724 79.1104 40.037Z" fill="#263238"/>
<path d="M72.2389 35.0471C72.2309 35.4199 72.3014 35.7902 72.4459 36.135C72.5904 36.4798 72.8059 36.7915 73.0789 37.0508C73.7887 37.6569 74.6035 36.9065 74.7883 35.8593C74.9605 34.9152 74.7883 33.4598 73.8937 33.2743C72.9991 33.0888 72.2389 34.0411 72.2389 35.0471Z" fill="#FFB573"/>
<path d="M79.3113 33.7006C79.3362 33.707 79.3621 33.7081 79.3875 33.7038C79.4128 33.6996 79.437 33.69 79.4583 33.6759C79.654 33.5457 79.8794 33.4648 80.1145 33.4404C80.3496 33.4159 80.5873 33.4487 80.8065 33.5357C80.8277 33.5464 80.8508 33.5528 80.8746 33.5546C80.8984 33.5564 80.9222 33.5536 80.9449 33.5463C80.9675 33.539 80.9885 33.5274 81.0065 33.5122C81.0246 33.4969 81.0394 33.4783 81.0501 33.4574C81.068 33.409 81.0672 33.3558 81.0479 33.3079C81.0285 33.26 80.9919 33.2208 80.9451 33.1976C80.6698 33.0823 80.3695 33.0366 80.0716 33.0647C79.7737 33.0928 79.4877 33.1938 79.2399 33.3584C79.1988 33.3889 79.1711 33.4336 79.1625 33.4834C79.1539 33.5332 79.1651 33.5844 79.1937 33.6264C79.2223 33.6644 79.2642 33.6908 79.3113 33.7006Z" fill="#263238"/>
<path d="M84.9065 35.9508C84.9281 35.961 84.9518 35.9663 84.9758 35.9663C84.9998 35.9663 85.0235 35.961 85.0451 35.9508C85.0683 35.9405 85.0892 35.9259 85.1066 35.9077C85.124 35.8895 85.1376 35.8681 85.1466 35.8447C85.1556 35.8214 85.1598 35.7965 85.1589 35.7715C85.1581 35.7466 85.1522 35.722 85.1417 35.6993C85.0294 35.4117 84.8514 35.1531 84.6213 34.9437C84.3912 34.7343 84.1151 34.5795 83.8145 34.4913C83.7688 34.4815 83.721 34.4899 83.6817 34.5146C83.6423 34.5394 83.6145 34.5784 83.6045 34.6232C83.5966 34.6738 83.6081 34.7254 83.6368 34.7681C83.6656 34.8107 83.7094 34.8414 83.7599 34.8541C83.9964 34.9285 84.2129 35.0542 84.3932 35.222C84.5735 35.3897 84.7131 35.5951 84.8015 35.823C84.8089 35.8503 84.8221 35.8758 84.8401 35.8978C84.8582 35.9198 84.8808 35.9379 84.9065 35.9508Z" fill="#263238"/>
<path d="M79.8701 35.2959L80.6681 35.3619C80.6681 35.3619 80.1053 35.803 79.8701 35.2959Z" fill="#263238"/>
<path d="M67.5392 51.5845L66.2792 54.1407C65.8592 55.0023 65.4392 55.8681 65.057 56.7298C64.6748 57.5915 64.2968 58.4614 63.9734 59.3148C63.6578 60.1224 63.3941 60.9486 63.1838 61.7885L63.104 60.7702C63.14 60.946 63.2145 61.112 63.3224 61.2567C63.4961 61.5312 63.6973 61.7881 63.923 62.0235C64.4471 62.5971 65.0082 63.1369 65.603 63.6397C66.2162 64.1756 66.863 64.6992 67.535 65.2187C68.207 65.7382 68.8958 66.2535 69.5552 66.7565L69.5972 66.7854C69.8387 66.9626 70.0074 67.2188 70.0729 67.5077C70.1383 67.7966 70.096 68.099 69.9537 68.3599C69.8114 68.6208 69.5785 68.8229 69.2973 68.9297C69.0161 69.0364 68.7053 69.0407 68.4212 68.9416C67.5485 68.6489 66.692 68.3117 65.855 67.9315C65.0116 67.5514 64.1887 67.129 63.3896 66.6658C62.5457 66.1812 61.7437 65.6297 60.9914 65.0167C60.5725 64.6679 60.1821 64.2875 59.8238 63.8788C59.3645 63.3603 59.0058 62.7637 58.7654 62.1183C58.665 61.8468 58.6305 61.556 58.6646 61.269V61.0959C58.8128 59.9897 59.0544 58.8975 59.387 57.8306C59.6852 56.7999 60.0422 55.8228 60.4244 54.8539C60.8066 53.885 61.2224 52.945 61.655 52.0133C62.0876 51.0815 62.5454 50.1827 63.0788 49.2469C63.3973 48.6829 63.9276 48.2633 64.5567 48.0775C65.1857 47.8918 65.8638 47.9545 66.4465 48.2523C67.0292 48.5501 67.4703 49.0594 67.676 49.6719C67.8817 50.2843 67.8356 50.9513 67.5476 51.5309L67.5392 51.5845Z" fill="#FFB573"/>
<path d="M68.2146 45.4424C65.4846 45.4424 64.2876 46.0691 61.272 50.9876C61.944 53.1026 66.27 55.6917 66.27 55.6917C66.27 55.6917 70.9362 49.7878 68.2146 45.4424Z" fill="white"/>
<path d="M72.7727 70.0674L72.634 68.8635C72.6071 68.6399 72.5264 68.4257 72.3986 68.2386C72.2708 68.0515 72.0996 67.8969 71.899 67.7875L69.9965 66.7527C69.6222 66.5494 69.2037 66.4373 68.7761 66.4258C68.3486 66.4143 67.9245 66.5038 67.5394 66.6867L67.0522 66.9134C67.1488 68.9295 68.7616 71.0363 68.7616 71.0363L69.1565 71.6877C69.3121 71.9603 69.5712 72.1614 69.8772 72.2471C70.1833 72.3328 70.5115 72.2962 70.7902 72.1453L72.1132 71.3991C72.3432 71.2641 72.528 71.0662 72.6451 70.8297C72.7622 70.5932 72.8066 70.3283 72.7727 70.0674Z" fill="#FFB573"/>
<path d="M94.004 62.6165H79.6064C79.5368 62.6192 79.4675 62.6085 79.4022 62.5849C79.3369 62.5614 79.277 62.5254 79.2259 62.479C79.1748 62.4327 79.1335 62.3769 79.1044 62.3149C79.0752 62.2529 79.0589 62.1859 79.0562 62.1176C79.056 62.0577 79.0645 61.998 79.0814 61.9403L81.1142 53.5957C81.165 53.4108 81.2732 53.246 81.4237 53.1242C81.5742 53.0023 81.7596 52.9294 81.9542 52.9155H96.3518C96.4213 52.9127 96.4906 52.9234 96.5559 52.947C96.6212 52.9706 96.6811 53.0066 96.7322 53.0529C96.7833 53.0992 96.8246 53.155 96.8537 53.217C96.8829 53.279 96.8993 53.3461 96.902 53.4143C96.9063 53.4758 96.8977 53.5376 96.8768 53.5957L94.8398 61.9403C94.7906 62.125 94.6834 62.2898 94.5334 62.4112C94.3833 62.5326 94.198 62.6044 94.004 62.6165Z" fill="#86C240"/>
<path d="M79.6601 61.9465C79.6465 61.9435 79.6337 61.938 79.6224 61.9302C79.611 61.9224 79.6014 61.9124 79.5939 61.9009C79.5865 61.8894 79.5815 61.8766 79.5791 61.8632C79.5768 61.8498 79.5772 61.836 79.5803 61.8228L81.4787 54.0389C81.5343 53.8284 81.6575 53.641 81.8299 53.5044C82.0023 53.3678 82.2149 53.2892 82.4363 53.2803H96.1409C96.1687 53.2803 96.1954 53.2911 96.2151 53.3105C96.2348 53.3298 96.2459 53.356 96.2459 53.3833C96.2459 53.4107 96.2348 53.4369 96.2151 53.4562C96.1954 53.4756 96.1687 53.4864 96.1409 53.4864H82.4153C82.2417 53.497 82.0758 53.5602 81.9404 53.6673C81.805 53.7743 81.7068 53.92 81.6593 54.0842L79.7651 61.8681C79.7587 61.8906 79.7449 61.9105 79.726 61.9246C79.707 61.9388 79.6839 61.9464 79.6601 61.9465Z" fill="white"/>
<path d="M96.2334 55.3888L96.0444 55.4753C95.7535 55.6044 95.5024 55.8066 95.3166 56.0614C95.1308 56.3162 95.0167 56.6147 94.986 56.9266L94.8726 58.687C94.8587 58.8489 94.8776 59.0119 94.9279 59.1666C94.9783 59.3214 95.0592 59.4649 95.1661 59.5889C95.2729 59.713 95.4037 59.8151 95.5507 59.8896C95.6978 59.964 95.8584 60.0093 96.0234 60.0228H96.2754C96.4809 60.011 96.6748 59.9256 96.8204 59.7827C96.9659 59.6398 97.053 59.4494 97.065 59.2477L97.2078 56.0278C97.2217 55.8536 97.1652 55.681 97.0504 55.5475C96.9356 55.414 96.7718 55.3303 96.5946 55.3145C96.4696 55.3078 96.3451 55.3334 96.2334 55.3888Z" fill="#FFB573"/>
<path d="M140.309 131.158C138.932 125.114 141.683 110.614 142.829 107.332C143.976 104.05 151.935 100.125 156.765 98.0018C161.595 95.8786 170.44 101.659 170.44 101.659C170.44 101.659 161.259 100.715 158.621 102.005C155.984 103.296 150.36 107.249 148.541 110.638C146.723 114.027 140.603 124.066 140.309 131.158Z" fill="#263238"/>
<path d="M123.539 107.852C129.86 108.503 135.042 112.745 136.689 114.036C138.335 115.326 138.99 120.517 139.234 123.613C139.478 126.709 134.4 130.461 134.4 130.461C134.4 130.461 136.794 125.58 136.584 123.865C136.374 122.15 135.236 118.249 133.644 116.547C132.052 114.844 128.604 110.371 123.539 107.852Z" fill="#263238"/>
<path d="M138.558 127.237C139.151 118.769 135.026 113.191 135.618 106.487C136.211 99.7834 143.905 84.8257 144.573 80.5957C145.833 84.3392 140.285 102.344 140.528 107.225C140.772 112.106 143.388 121.956 138.558 127.237Z" fill="#86C240"/>
<path opacity="0.6" d="M138.558 127.237C139.151 118.769 135.026 113.191 135.618 106.487C136.211 99.7834 143.905 84.8257 144.573 80.5957C145.833 84.3392 140.285 102.344 140.528 107.225C140.772 112.106 143.388 121.956 138.558 127.237Z" fill="white"/>
<path d="M132.258 94.4041C133.291 94.5714 134.256 95.0204 135.041 95.6998C135.827 96.3792 136.402 97.2617 136.702 98.2466C136.019 99.0497 135.129 99.6585 134.126 100.009C133.122 100.36 132.04 100.441 130.994 100.242C128.188 99.7308 127.214 98.1806 127.554 96.5851C127.894 94.9896 129.453 93.8929 132.258 94.4041Z" fill="#86C240"/>
<path d="M141.014 98.6068C140.714 99.2193 140.244 99.7369 139.659 100.101C139.074 100.465 138.397 100.662 137.705 100.668C137.309 100.094 137.077 99.4259 137.032 98.7338C136.986 98.0416 137.13 97.3502 137.449 96.7309C138.289 95.0818 139.473 94.7314 140.456 95.2426C141.439 95.7538 141.859 96.9412 141.014 98.6068Z" fill="#86C240"/>
<path d="M139.116 112.91C139.617 113.384 139.971 113.986 140.14 114.648C140.309 115.31 140.284 116.005 140.07 116.654C139.388 116.838 138.668 116.841 137.985 116.66C137.302 116.48 136.68 116.123 136.185 115.627C134.849 114.312 134.9 113.108 135.71 112.358C136.521 111.607 137.781 111.591 139.116 112.91Z" fill="#86C240"/>
<path d="M142.489 120.644C142.156 120.91 141.754 121.08 141.328 121.133C140.902 121.186 140.469 121.121 140.078 120.945C140.012 120.521 140.063 120.088 140.226 119.69C140.388 119.291 140.656 118.943 141.002 118.682C141.922 117.972 142.682 118.088 143.081 118.632C143.48 119.176 143.409 119.935 142.489 120.644Z" fill="#86C240"/>
<path d="M145.11 108.888C144.478 109.613 143.65 110.149 142.721 110.434C141.793 110.719 140.801 110.742 139.86 110.5C139.54 109.583 139.476 108.599 139.675 107.65C139.874 106.701 140.328 105.821 140.99 105.103C142.745 103.169 144.459 103.14 145.61 104.183C146.761 105.226 146.866 106.962 145.11 108.888Z" fill="#86C240"/>
<path d="M138.915 127.517H138.873C138.819 127.507 138.77 127.476 138.739 127.431C138.708 127.386 138.695 127.331 138.705 127.278C141.687 111.99 138.919 98.7146 130.477 87.8221C130.439 87.7829 130.417 87.7304 130.417 87.6757C130.417 87.6211 130.439 87.5686 130.477 87.5294C130.497 87.5102 130.519 87.4949 130.545 87.4845C130.57 87.4741 130.597 87.4687 130.624 87.4688C130.652 87.4687 130.679 87.4741 130.704 87.4845C130.729 87.4949 130.752 87.5102 130.771 87.5294V87.55C139.289 98.5415 142.086 111.924 139.083 127.335C139.079 127.379 139.06 127.421 139.03 127.453C138.999 127.486 138.959 127.508 138.915 127.517Z" fill="#263238"/>
<path d="M131.461 83.0693C132.221 84.0051 132.698 85.1318 132.836 86.3208C132.975 87.5099 132.771 88.7133 132.246 89.7936C131.018 89.963 129.765 89.8065 128.619 89.3404C127.473 88.8742 126.475 88.1154 125.728 87.1426C123.712 84.5535 124.086 82.4715 125.665 81.346C127.244 80.2204 129.437 80.4719 131.461 83.0693Z" fill="#86C240"/>
<path d="M129.799 127.537L129.337 134.019L129.755 134.047L130.217 127.566L129.799 127.537Z" fill="#86C240"/>
<path d="M129.134 136.288L128.938 139.05L129.356 139.079L129.553 136.316L129.134 136.288Z" fill="#86C240"/>
<path d="M149.664 122.991H131.297L129.399 149.151H151.567L149.664 122.991Z" fill="#86C240"/>
<path d="M154.258 146.034C152.217 146.034 150.223 145.44 148.527 144.327C146.83 143.214 145.508 141.633 144.728 139.783C143.947 137.933 143.743 135.897 144.141 133.932C144.539 131.968 145.521 130.164 146.964 128.748C148.406 127.332 150.244 126.367 152.245 125.977C154.246 125.586 156.32 125.787 158.205 126.553C160.09 127.319 161.701 128.617 162.834 130.282C163.968 131.948 164.573 133.905 164.573 135.908C164.569 138.592 163.482 141.166 161.548 143.064C159.614 144.962 156.992 146.03 154.258 146.034ZM154.258 126.607C152.384 126.607 150.552 127.152 148.993 128.174C147.435 129.196 146.221 130.649 145.504 132.349C144.786 134.048 144.599 135.918 144.964 137.722C145.33 139.527 146.232 141.184 147.558 142.485C148.883 143.786 150.571 144.671 152.409 145.03C154.247 145.389 156.152 145.205 157.884 144.501C159.615 143.797 161.095 142.605 162.136 141.075C163.177 139.546 163.733 137.747 163.733 135.908C163.728 133.442 162.729 131.079 160.953 129.336C159.177 127.592 156.769 126.611 154.258 126.607Z" fill="#86C240"/>
<path d="M162.292 26.9097C163.035 26.9097 163.714 27.0351 164.328 27.2858C164.951 27.5279 165.448 27.904 165.82 28.4142C166.191 28.9156 166.377 29.5339 166.377 30.2688V30.4893H165.314V30.2817C165.314 29.6938 165.162 29.2139 164.86 28.8422C164.557 28.4704 164.177 28.2067 163.718 28.051C163.26 27.8868 162.785 27.8046 162.292 27.8046C161.462 27.8046 160.749 27.9862 160.152 28.3493C159.564 28.7038 159.266 29.3307 159.257 30.2299H160.969V31.1377H159.27V39.8271H158.181V31.1377H156.469V30.2299H158.181C158.198 29.0972 158.591 28.2629 159.361 27.7268C160.13 27.1821 161.107 26.9097 162.292 26.9097ZM164.366 33.4463C163.96 33.4463 163.627 33.5327 163.368 33.7056C163.108 33.8699 162.979 34.1336 162.979 34.4968C162.979 34.7648 163.061 34.9896 163.225 35.1712C163.389 35.3527 163.614 35.4824 163.899 35.5603C164.141 35.517 164.384 35.4954 164.626 35.4954C165.464 35.4954 166.121 35.7029 166.597 36.1179C167.081 36.5243 167.375 37.0301 167.479 37.6353H166.441C166.355 37.2981 166.152 37.0042 165.832 36.7534C165.52 36.494 165.11 36.3643 164.6 36.3643C163.994 36.3643 163.519 36.5502 163.173 36.922C162.836 37.2938 162.667 37.7607 162.667 38.3227C162.667 38.8934 162.836 39.3603 163.173 39.7234C163.519 40.0865 163.994 40.2681 164.6 40.2681C165.101 40.2681 165.508 40.1427 165.819 39.892C166.139 39.6499 166.346 39.3603 166.441 39.0231H167.479C167.418 39.4121 167.263 39.7709 167.012 40.0995C166.77 40.4281 166.441 40.6874 166.026 40.8777C165.62 41.0765 165.144 41.176 164.6 41.176C163.977 41.176 163.437 41.0506 162.979 40.7998C162.529 40.5491 162.187 40.2076 161.954 39.7753C161.72 39.343 161.604 38.8545 161.604 38.3097C161.604 37.765 161.725 37.2808 161.967 36.8572C162.218 36.4335 162.563 36.105 163.004 35.8715C162.676 35.7332 162.412 35.53 162.213 35.262C162.014 34.9939 161.915 34.674 161.915 34.3022C161.915 33.7662 162.105 33.3598 162.486 33.0831C162.875 32.7978 163.385 32.6551 164.016 32.6551H165.715V31.1377H160.281V30.2299H168.568V31.1377H166.74V33.4463H164.366ZM168.703 28.2715C168.703 28.4704 168.629 28.6433 168.482 28.7903C168.344 28.9286 168.175 28.9978 167.976 28.9978C167.769 28.9978 167.592 28.9286 167.445 28.7903C167.306 28.6433 167.237 28.4704 167.237 28.2715C167.237 28.0726 167.306 27.904 167.445 27.7657C167.592 27.6187 167.769 27.5452 167.976 27.5452C168.175 27.5452 168.344 27.6187 168.482 27.7657C168.629 27.904 168.703 28.0726 168.703 28.2715ZM172.679 33.4981C171.97 33.4981 171.386 33.684 170.928 34.0558C170.47 34.4276 170.241 34.955 170.241 35.6381C170.241 36.2519 170.422 36.7448 170.785 37.1166C171.157 37.4884 171.654 37.6742 172.277 37.6742C172.579 37.6742 172.869 37.6094 173.146 37.4797C173.431 37.35 173.664 37.1555 173.846 36.8961C174.028 36.6281 174.118 36.2995 174.118 35.9104H175.117V40.0347H174.053V37.5446C173.872 37.8472 173.595 38.0893 173.223 38.2708C172.86 38.4524 172.45 38.5432 171.991 38.5432C171.438 38.5432 170.945 38.4265 170.513 38.193C170.081 37.9596 169.743 37.6224 169.501 37.1814C169.259 36.7405 169.138 36.213 169.138 35.5992C169.138 34.942 169.289 34.3887 169.592 33.9391C169.895 33.4808 170.305 33.1393 170.824 32.9145C171.352 32.6811 171.939 32.5643 172.588 32.5643H173.522V31.1377H167.88V30.2299H176.479L176.466 31.1377H174.598V33.4981H172.679ZM180.284 30.2299V31.1377H178.585V39.8271H177.495V31.1377H175.783V30.2299H177.521V29.6852C177.521 29.1491 177.417 28.7038 177.21 28.3493C177.002 27.9948 176.648 27.8176 176.146 27.8176C175.636 27.8176 175.277 27.9948 175.07 28.3493C174.854 28.7038 174.746 29.1491 174.746 29.6852V30.4893H173.682V29.737C173.682 28.8811 173.881 28.198 174.279 27.6879C174.668 27.1691 175.29 26.9097 176.146 26.9097C177.011 26.9097 177.634 27.1648 178.014 27.6749C178.394 28.185 178.585 28.8724 178.585 29.737V30.2299H180.284Z" fill="#3B3C3D"/>
</svg>
