<svg width="211" height="160" viewBox="0 0 211 160" fill="none" xmlns="http://www.w3.org/2000/svg">
    <path d="M204.337 103.921L127.263 65.3691L71.2052 93.4086L71.238 93.4207L71.2052 93.4086L15.1523 121.448L92.2268 160L147.787 132.209H147.792L204.337 103.921Z" fill="#EBEBEB"/>
    <path d="M52.5898 101.914C80.2261 101.914 102.63 89.8748 102.63 75.0242C102.63 60.1736 80.2261 48.1348 52.5898 48.1348C24.9535 48.1348 2.5498 60.1736 2.5498 75.0242C2.5498 89.8748 24.9535 101.914 52.5898 101.914Z" fill="#EBEBEB"/>
    <path d="M22.6003 15.6576C13.5716 20.1764 0.5 30.8639 0.5 50.1461C0.5 69.4283 11.0155 83.7609 31.1553 90.1693C41.9428 93.595 59.1981 93.7738 70.2952 90.34C81.608 85.3254 89.2296 80.1808 93.3805 70.8059C97.6533 59.9355 90.0035 48.5613 79.6053 42.0553C69.2071 35.5494 70.4453 28.1453 63.0957 20.4528C59.1418 16.3159 53.3213 12.7765 46.2109 12.0938C38.4673 11.3461 29.4809 12.2198 22.6003 15.6576Z" fill="#86C240"/>
    <path opacity="0.6" d="M22.6003 15.6576C13.5716 20.1764 0.5 30.8639 0.5 50.1461C0.5 69.4283 11.0155 83.7609 31.1553 90.1693C41.9428 93.595 59.1981 93.7738 70.2952 90.34C81.608 85.3254 89.2296 80.1808 93.3805 70.8059C97.6533 59.9355 90.0035 48.5613 79.6053 42.0553C69.2071 35.5494 70.4453 28.1453 63.0957 20.4528C59.1418 16.3159 53.3213 12.7765 46.2109 12.0938C38.4673 11.3461 29.4809 12.2198 22.6003 15.6576Z" fill="white"/>
    <path opacity="0.3" d="M27.0985 59.0785C27.0985 59.0785 25.1098 57.0792 23.6558 52.8448C21.231 45.7862 21.1794 32.6971 23.7496 26.057C27.469 16.4383 43.0452 15.9791 43.0452 15.9791C43.0452 15.9791 53.6545 14.9875 59.461 28.0767C65.2675 41.1658 66.5761 44.6809 73.2737 47.8952C76.0409 49.22 79.3147 49.8011 81.8803 51.3941C83.3085 52.2622 84.504 53.387 85.3852 54.6916C86.2664 55.9963 86.8127 57.4502 86.9867 58.9543C87.1608 60.4584 86.9585 61.9774 86.3938 63.4076C85.829 64.8379 84.9151 66.1459 83.7141 67.2424C81.8662 68.9329 79.2959 70.1927 78.3532 72.3789C77.6731 73.9556 77.9967 75.7071 78.3298 77.3651C78.7956 79.703 79.2647 82.0397 79.7368 84.3749C79.8072 84.7163 79.8728 85.0617 79.9244 85.4071C76.8537 87.2459 73.6359 88.8932 70.2954 90.3363C68.1474 90.9887 65.9442 91.4955 63.7056 91.8521C63.3242 89.3435 62.8129 86.8524 62.1719 84.379C61.9468 83.5012 61.5575 82.4853 60.5632 82.213C59.4282 81.9042 58.3306 82.8023 57.7772 83.7125C57.0221 84.9682 56.0418 85.911 54.3299 86.1508C52.0364 86.4799 50.2729 85.1633 48.9783 83.68C46.8959 81.2906 47.6745 77.9909 48.6031 75.3657C49.0206 74.1466 49.3114 72.8828 48.9314 71.6759C48.1294 69.1483 43.4439 68.1893 41.0237 67.2506C37.5061 65.8811 33.9884 64.5076 30.4051 63.2641C19.8005 59.5783 13.342 62.236 13.342 62.236C13.342 62.236 19.4393 57.7741 27.0985 59.0785Z" fill="#86C240"/>
    <path opacity="0.3" d="M65.4502 91.5387C52.5521 92.8431 39.0677 90.0961 28.4819 83.8583C12.2865 74.3046 5.27465 59.1593 8.74073 41.214C11.8081 25.3657 20.9353 16.6369 30.1375 13.0283C28.0975 13.4896 26.1149 14.1239 24.2185 14.922C16.7845 19.6237 10.1712 27.9786 7.63852 41.0596C4.09741 59.399 11.2781 74.8816 27.8675 84.6589C36.0859 89.4216 45.6188 92.2043 55.4882 92.7212C58.8401 92.559 62.1715 92.1635 65.4502 91.5387Z" fill="#86C240"/>
    <path d="M64.0712 67.49C62.9174 68.0833 61.7261 67.1892 60.4926 67.8232C59.6421 68.2624 59.0242 68.9729 58.7712 69.8022C58.6857 70.2265 58.5276 70.6374 58.3022 71.0213C57.9458 71.4521 57.5846 71.8869 57.2375 72.3257C56.6657 73.0145 56.0388 73.6676 55.3615 74.2804C53.7527 75.8083 53.4009 78.0962 53.7246 80.0955C53.8934 81.1439 54.4422 81.4406 55.0472 82.3549C55.46 82.9807 56.2198 83.7162 57.1109 83.6553C58.0021 83.5943 58.6774 82.9319 59.1183 82.3102C59.6624 81.5503 59.5358 81.1927 59.85 80.3556C60.1642 79.5185 60.6239 78.3237 61.4025 77.7751C62.0439 77.298 62.6546 76.7906 63.2317 76.2553C64.3292 75.3125 65.4079 74.3495 66.4773 73.3823C66.5852 73.2848 66.6977 73.1872 66.8056 73.0857C67.8656 72.1998 72.659 69.7697 72.659 69.7697L68.6958 63.0605L64.0712 67.49Z" fill="#FFA8A7"/>
    <path d="M60.1268 67.6202C59.5485 67.5767 58.9713 67.7136 58.4993 68.0063C57.9639 68.7615 57.6068 69.6013 57.4487 70.477C57.1907 71.6961 57.0688 72.1756 56.2621 72.7933C55.1391 73.5476 54.2269 74.5116 53.5933 75.6135C53.0899 76.4692 52.8065 77.4093 52.7628 78.369C52.7191 79.3287 52.916 80.2852 53.3401 81.1726C54.3625 83.4523 55.2865 83.9197 55.9947 84.1472C56.6126 84.2658 57.2529 84.2658 57.8708 84.1472L60.1268 67.6202Z" fill="#263238"/>
    <path d="M64.5121 67.0716L64.0712 67.4779C63.8066 67.6894 63.5605 67.9176 63.3348 68.1606C62.439 69.205 62.8095 71.3425 62.9315 71.9155C63.1396 71.8712 63.3564 71.8664 63.5669 71.9015C63.7774 71.9366 63.9766 72.0106 64.1509 72.1187C64.9858 72.5454 66.3507 73.4028 66.2803 73.797C66.21 74.1912 63.4427 75.8654 62.1107 77.4827C60.7787 79.1001 60.6661 79.9209 60.3143 81.4976C60.0611 82.6152 59.1605 84.5048 57.3126 84.0781C56.3464 83.8668 53.9263 82.351 53.6073 78.7953C53.3259 75.6175 55.7414 73.992 56.9843 73.033C58.2272 72.074 58.3069 71.1515 58.8838 69.4773C59.1371 68.7499 59.2731 68.1728 60.1267 67.6283C61.2758 67.2219 62.4718 67.4251 63.3536 67.2748C64.0431 67.1447 64.2729 66.7587 64.5121 67.0716Z" fill="#37474F"/>
    <path d="M62.9316 71.9277C63.002 72.0874 63.002 72.2639 62.9316 72.4235C62.8435 72.5762 62.7243 72.7138 62.5799 72.8299C62.3172 73.0574 62.0639 73.285 61.8107 73.5207C61.2901 73.9799 60.7882 74.4432 60.3051 74.9267C59.8219 75.406 59.3694 75.908 58.9496 76.4303C58.5272 76.9577 58.1718 77.5231 57.8896 78.1167C58.0533 77.4782 58.3369 76.8672 58.7292 76.3084C59.1104 75.7466 59.55 75.2161 60.0425 74.7236C60.5334 74.2346 61.0564 73.7706 61.609 73.3338C61.881 73.1184 62.1718 72.9274 62.4579 72.708C62.6037 72.618 62.7333 72.5098 62.8425 72.3869C62.9276 72.2459 62.9588 72.0851 62.9316 71.9277Z" fill="#263238"/>
    <path d="M57.7817 77.5025C58.7197 77.6163 60.8725 78.6038 60.9194 79.4003L60.8303 79.6156C61.0339 79.4562 61.1681 79.241 61.2102 79.0061C61.3087 78.5794 60.1456 77.4619 58.0443 77.0596C57.7536 77.0961 57.505 77.4294 57.7817 77.5025Z" fill="#FAFAFA"/>
    <path d="M58.8136 76.0889C59.7516 76.1539 61.7637 77.0114 61.8622 77.8038L61.7496 77.9623C61.8662 77.9158 61.9657 77.8421 62.0369 77.7496C62.1081 77.6571 62.1483 77.5492 62.153 77.4381C62.2234 77.0073 61.1727 75.9264 59.0481 75.6338C58.762 75.711 58.5321 76.0442 58.8136 76.0889Z" fill="#FAFAFA"/>
    <path d="M60.0097 74.7478C60.9478 74.8819 62.927 75.8247 62.9411 76.6252L62.7676 76.7919C62.8804 76.7528 62.9828 76.694 63.0683 76.6192C63.1538 76.5444 63.2207 76.4552 63.2647 76.357C63.4242 75.9263 62.3267 74.7559 60.2818 74.3252C59.991 74.3658 59.7377 74.6869 60.0097 74.7478Z" fill="#FAFAFA"/>
    <path d="M61.0929 73.6467C62.031 73.7808 64.151 74.7683 64.1697 75.5689L63.9868 75.7355C64.2218 75.6437 64.4078 75.4782 64.5074 75.2722C64.6669 74.8414 63.4427 73.6467 61.3697 73.2119C61.0789 73.2647 60.8209 73.5858 61.0929 73.6467Z" fill="#FAFAFA"/>
    <path d="M59.6344 44.3848C59.6767 45.5104 67.6078 47.4528 73.2361 49.0336C79.7086 50.846 82.7854 52.1464 85.168 54.2311C85.8788 54.8052 86.4078 55.5277 86.7042 56.3296C87.0007 57.1314 87.0547 57.9857 86.8612 58.8108C86.561 60.1966 85.1774 62.4356 82.1334 64.5C76.3551 68.4336 73.5597 69.348 69.4698 71.6114C69.4698 71.6114 65.3237 69.2179 64.6811 66.4587L70.4923 60.9768L53.8889 56.6693L59.6344 44.3848Z" fill="#455A64"/>
    <path d="M72.4573 66.7258C72.5558 67.7742 72.6449 68.8877 72.72 69.9158C71.6835 70.4359 70.6375 70.9683 69.4884 71.6063C69.4884 71.6063 65.3423 69.2127 64.6997 66.4535L69.7886 61.6543C71.4958 63.1294 72.1806 63.7837 72.4573 66.7258Z" fill="#37474F"/>
    <path d="M53.9075 56.6641L54.4281 55.7295C54.4281 55.7295 64.043 57.7126 67.3825 58.4034C70.1966 58.9764 70.7782 59.0576 72.2228 57.9645C74.2255 56.4488 75.6185 56.2171 77.0115 56.5016C74.8915 56.721 72.6308 58.7813 70.5109 60.9716L53.9075 56.6641Z" fill="#37474F"/>
    <path d="M58.1334 52.6861L68.2689 60.4071L53.9075 56.6807L58.1756 46.7978L59.3247 46.6719C59.3169 48.7201 58.9142 50.7528 58.1334 52.6861Z" fill="#37474F"/>
    <path d="M65.9615 91.2217C65.7973 92.2417 65.0938 93.7005 65.5487 94.9603C65.86 95.8274 66.5478 96.5559 67.467 96.9921C67.9528 97.177 68.4022 97.4266 68.799 97.7317C69.2212 98.1584 69.648 98.5891 70.0842 99.0158C70.7783 99.6904 71.3224 100.02 71.9087 100.775C73.3157 102.6 75.9282 103.474 78.3483 103.657C79.5511 103.777 80.7695 103.68 81.927 103.372C82.7571 103.145 83.8031 102.628 83.9391 101.799C84.0751 100.97 83.4701 100.202 82.8275 99.6538C82.063 98.9752 80.9983 98.6257 80.0884 98.1421C79.0888 97.5834 78.1909 96.8986 77.4244 96.1103C76.6083 95.2529 73.4471 92.6358 73.2782 89.9822C73.1797 88.4299 72.706 81.29 72.706 81.29L63.9587 82.7855C63.9587 82.7855 66.1303 90.2017 65.9615 91.2217Z" fill="#FFA8A7"/>
    <path d="M65.2298 95.2451C65.0419 95.7602 65.0651 96.3158 65.2954 96.8178C66.0529 97.4804 66.9555 98.0054 67.9501 98.362C69.3196 98.8862 69.859 99.1178 70.3937 99.9874C70.9284 100.857 71.3317 101.804 72.8467 102.889C74.3616 103.974 76.8099 104.628 80.1963 104.307C83.1277 104.027 84.0047 103.007 84.2252 102.73C84.5242 102.262 84.6854 101.737 84.6942 101.202L65.2298 95.2451Z" fill="#263238"/>
    <path d="M65.8864 90.5068C65.9615 90.771 65.9849 91.0554 66.0365 91.3724C66.1189 91.7545 66.3409 92.1035 66.6697 92.368C67.725 93.2295 69.5495 93.453 70.253 93.4774C70.3771 93.0835 70.6732 92.7469 71.0785 92.5387C72.3543 91.7747 73.8551 91.3602 74.3101 91.5187C74.765 91.6772 75.6656 93.7984 77.2509 95.3954C78.8362 96.9925 80.2291 97.6223 82.1803 98.5732C83.381 99.1625 85.4212 100.142 84.4879 101.723C84.0188 102.535 81.2657 103.868 76.9835 103.299C73.1891 102.795 71.6648 100.76 70.8253 99.3982C69.9857 98.0368 68.9492 97.7402 67.1012 96.8137C66.3039 96.4073 65.6613 96.1513 65.2251 95.2451C65.0328 94.1032 65.5019 92.6443 65.5253 91.8235C65.5534 91.153 65.4503 90.6653 65.8864 90.5068Z" fill="#37474F"/>
    <path d="M70.2529 93.4939C70.4586 93.4867 70.6618 93.5348 70.8348 93.6316C71.0077 93.7283 71.142 93.869 71.2191 94.0343C71.478 94.4226 71.7679 94.7946 72.0868 95.1478C73.4994 96.7401 75.1436 98.1674 76.9787 99.3943C74.8306 98.4759 73.3297 96.9967 71.9461 95.355C71.6087 94.9702 71.3075 94.5626 71.0456 94.1359C70.8908 93.7946 70.6844 93.5304 70.2529 93.4939Z" fill="#263238"/>
    <path d="M76.1344 99.1222C76.8473 97.8056 78.639 97.0904 79.5864 97.2367L79.8209 97.3708C79.6815 97.1501 79.46 96.9768 79.1924 96.8791C78.7234 96.6881 76.6409 96.9604 75.6794 98.7768C75.6841 99.041 76.0031 99.3579 76.1344 99.1222Z" fill="#FAFAFA"/>
    <path d="M74.2631 98.0007C74.8588 96.741 76.9694 95.9283 77.9215 96.0258L78.095 96.1761C78.0638 96.0591 77.9975 95.9512 77.9028 95.8634C77.8081 95.7757 77.6884 95.7111 77.5556 95.6763C77.0866 95.5097 74.5586 96.0502 73.8035 97.6797C73.8082 97.9601 74.1505 98.2283 74.2631 98.0007Z" fill="#FAFAFA"/>
    <path d="M72.8422 96.6394C73.2502 95.5707 75.6797 94.5141 76.6225 94.6929L76.796 94.9002C76.7491 94.6712 76.601 94.4672 76.3833 94.3312C75.9143 94.0874 73.2502 94.7986 72.3919 96.2899C72.3872 96.5663 72.7061 96.8751 72.8422 96.6394Z" fill="#FAFAFA"/>
    <path d="M71.8665 95.3834C72.1761 94.2171 74.7369 93.3109 75.6844 93.4897L75.9001 93.7579C75.8875 93.6478 75.8475 93.5413 75.7827 93.4459C75.7179 93.3504 75.6299 93.2683 75.5249 93.2053C75.0559 92.9574 72.4293 93.25 71.421 95.0258C71.4163 95.294 71.7305 95.6028 71.8665 95.3834Z" fill="#FAFAFA"/>
    <path d="M59.6344 44.3848L36.9712 45.8436C36.5022 48.5907 36.2396 52.5243 37.0838 54.8691C37.853 57.0147 39.5696 59.5626 44.3114 61.9846C49.9397 64.8576 56.8671 67.4746 58.1992 68.2183C60.1175 69.2951 60.6756 68.9741 60.746 73.054C60.7929 75.6711 62.289 79.7632 63.1239 82.0998C64.001 84.538 64.9203 87.4029 64.9203 87.4029C65.8583 88.622 71.5804 88.5651 73.2501 86.9437C73.2501 86.9437 72.2323 70.7174 71.6976 67.4015C71.4021 65.5484 71.102 63.8823 68.7287 61.7123C66.6979 59.839 56.5341 52.9388 56.5341 52.9388C56.5341 52.9388 59.2029 49.9845 59.6344 44.3848Z" fill="#455A64"/>
    <path d="M39.7805 47.1476C39.2412 51.7111 38.9175 54.4622 45.8122 57.9733C47.8899 59.0298 50.0334 60.0457 52.144 61.0251C58.3491 63.9347 63.2504 66.2307 63.4615 68.3397C63.5459 69.1525 63.5647 70.0912 63.5881 71.1843C63.6397 73.7851 63.4615 74.5572 64.3667 78.2754C65.1359 81.4288 66.3741 86.0615 66.9463 88.1746C66.7259 88.1461 66.5148 88.1055 66.3178 88.0648C65.7409 85.9477 64.5355 81.4289 63.7945 78.3852C62.8564 74.6181 63.0534 73.8176 63.0018 71.1924C62.9784 70.1034 62.9596 69.1606 62.8799 68.3804C62.6923 66.5598 57.4345 64.0932 51.8672 61.4721C49.7707 60.4887 47.6038 59.4728 45.5167 58.4122C38.2984 54.7548 38.6549 51.6908 39.1943 47.0867C39.2459 46.6518 39.2974 46.1967 39.349 45.7294L39.9447 45.6562C39.8931 46.1764 39.8368 46.6722 39.7805 47.1476Z" fill="#37474F"/>
    <path d="M43.6078 57.246C43.7016 57.1931 45.8684 55.905 45.0992 52.5362C44.255 48.8545 44.4614 47.1599 44.8741 44.6933L44.2925 44.6201C43.7446 47.2788 43.8228 50.006 44.5223 52.6378C45.2165 55.6693 43.3076 56.799 43.2888 56.8112L43.6078 57.246Z" fill="#37474F"/>
    <path d="M73.2078 84.8906C72.3073 86.1341 67.1809 87.0647 64.3855 85.7928L65.0328 88.231C67.134 89.5192 71.2192 89.3282 73.2922 87.5036L73.2078 84.8906Z" fill="#37474F"/>
    <path d="M53.1758 20.9209C57.397 20.9209 60.1032 22.2294 63.438 27.9023C65.7831 31.8928 70.3654 41.7757 70.3654 41.7757L64.1697 44.2424C61.8246 40.5525 59.1136 35.9565 55.8398 29.6781L53.1758 20.9209Z" fill="#263238"/>
    <path d="M59.7516 35.0253C62.1717 31.7337 61.1586 29.3645 60.3238 27.9829C58.6635 25.2196 53.1759 20.9202 53.1759 20.9202C50.4566 20.6922 47.7195 20.6718 44.9961 20.8593C40.4326 21.1315 38.3266 21.7289 38.3266 21.7289C39.926 23.7607 39.9729 26.6053 39.7337 28.3649C39.4945 30.1244 35.5547 33.9728 35.5547 33.9728C35.1533 38.3395 35.1831 42.728 35.6438 47.0903C35.883 49.2522 35.278 50.0446 36.8305 50.8899C45.6199 53.7344 57.5612 50.9752 61.4541 45.9525C61.1962 44.6846 59.6718 42.1082 59.5452 40.7307C59.4692 38.827 59.5381 36.9211 59.7516 35.0253Z" fill="#37474F"/>
    <path d="M53.6167 35.5499C53.6167 35.5499 51.7406 37.5818 47.7492 36.9803C43.7578 36.3789 42.9605 33.7822 42.9605 33.7822C42.9605 33.7822 42.7213 37.151 47.5053 37.8459C52.219 38.492 53.6167 35.5499 53.6167 35.5499Z" fill="#263238"/>
    <path d="M72.5417 34.2734C71.932 34.6797 70.4734 34.4766 66.5805 34.7407C63.363 34.9601 56.1682 35.5534 55.6053 35.269L50.5071 51.8488L51.1684 52.4218C51.1684 52.4218 62.7439 51.3693 64.3901 51.2718C66.0364 51.1742 67.5936 50.971 68.2221 50.1217C68.8505 49.2724 70.6516 45.1722 70.6516 45.1722L75.6936 29.8968L75.1917 29.6367C75.1917 29.6367 74.4647 30.8558 73.7847 32.1074C73.053 33.4769 73.1374 33.8914 72.5417 34.2734Z" fill="#E0E0E0"/>
    <path opacity="0.25" d="M55.6053 35.2686L56.0838 36.1585L51.0699 52.336L50.5071 51.8484L55.6053 35.2686Z" fill="black"/>
    <g opacity="0.25">
    <path d="M53.3354 43.8841C53.7294 42.5295 54.1343 41.1682 54.5502 39.8001L55.7884 35.7364V35.7039H55.8307C56.5623 35.7039 57.2987 35.7242 58.0304 35.7039C58.762 35.6836 59.4937 35.5942 60.2254 35.5332C61.6887 35.4073 63.1521 35.265 64.6154 35.1797C63.8838 35.2325 63.1568 35.3097 62.4251 35.3829L60.2348 35.5901C59.5031 35.6592 58.7714 35.7283 58.0351 35.777C57.2987 35.8258 56.5623 35.777 55.826 35.8014L55.8775 35.7689L54.6112 39.8326C54.2016 41.179 53.7763 42.5295 53.3354 43.8841Z" fill="black"/>
    </g>
    <g opacity="0.25">
    <path d="M75.342 29.8965C74.7557 30.9693 74.1648 32.034 73.5457 33.0905C73.7849 32.5368 74.0573 31.9942 74.3618 31.4651C74.6577 30.9282 74.9849 30.4047 75.342 29.8965Z" fill="black"/>
    </g>
    <path d="M75.8298 29.6934C75.8298 29.6934 74.01 32.7045 73.4846 33.4807C72.9593 34.2569 72.8843 34.5779 71.041 34.8177C69.1978 35.0574 56.0792 36.1587 56.0792 36.1587L50.981 52.6085L51.0888 52.6613L66.0506 51.3203C67.3076 51.2959 68.1472 50.8773 68.4943 49.9833L70.7925 45.3629L75.9517 29.7421L75.8298 29.6934Z" fill="#86C240"/>
    <path opacity="0.15" d="M75.8295 29.6934C75.8295 29.6934 74.0097 32.7045 73.4844 33.4807C73.309 33.8374 73.0352 34.1514 72.6871 34.395L67.1714 51.1537C67.4837 51.0643 67.7668 50.9114 67.9969 50.7078C68.227 50.5042 68.3975 50.2557 68.494 49.9833L70.7922 45.3629L75.9515 29.7421L75.8295 29.6934Z" fill="black"/>
    <path d="M70.9847 34.9071C72.5794 34.7364 72.9593 34.5738 73.5972 33.5173C74.3617 32.2535 75.9423 29.7421 75.9423 29.7421L75.8344 29.6934C75.7218 29.8803 73.9958 32.7289 73.4893 33.4807C72.9827 34.2325 72.8889 34.5779 71.0457 34.8177C69.2024 35.0574 56.0839 36.1587 56.0839 36.1587L50.9856 52.6085L51.0935 52.6613L56.1964 36.2521C56.1964 36.2521 69.0476 35.1143 70.9847 34.9071Z" fill="#86C240"/>
    <path opacity="0.35" d="M70.9847 34.9071C72.5841 34.7526 72.9593 34.5738 73.5972 33.5173C74.3617 32.2535 75.9423 29.7421 75.9423 29.7421L75.8344 29.6934C75.7218 29.8803 73.9958 32.7289 73.4893 33.4807C72.9827 34.2325 72.8889 34.5779 71.0457 34.8177C69.2024 35.0574 56.0839 36.1587 56.0839 36.1587L50.9856 52.6085L51.0935 52.6613L56.1964 36.2521C56.1964 36.2521 68.9445 35.1062 70.9847 34.9071Z" fill="white"/>
    <path d="M56.0839 36.1592L56.1964 36.2526L51.0935 52.6618L50.9856 52.609L56.0839 36.1592Z" fill="#86C240"/>
    <path opacity="0.15" d="M50.9856 52.609L56.0839 36.1592L56.1964 36.2526L51.0935 52.6618L50.9856 52.609Z" fill="black"/>
    <path opacity="0.15" d="M56.1965 36.2524L52.5569 47.9558L56.0511 47.6469L59.6813 35.9395L56.1965 36.2524Z" fill="white"/>
    <path opacity="0.15" d="M72.6262 34.5615L68.6958 46.5047L65.4126 46.8054L69.0616 35.0857L69.3993 35.0573L70.994 34.9069C71.5592 34.8877 72.1143 34.7703 72.6262 34.5615Z" fill="white"/>
    <path opacity="0.25" d="M68.4377 35.1504L66.9322 40.0146L58.7524 40.742L60.2908 35.89L68.4377 35.1504Z" fill="black"/>
    <path opacity="0.35" d="M58.5884 41.2754L66.7682 40.5439L64.8076 46.8508L56.6091 47.5944L58.5884 41.2754Z" fill="black"/>
    <path opacity="0.25" d="M52.1579 49.2402L61.8526 48.334L58.7946 50.7681L51.4731 51.4468L52.1579 49.2402Z" fill="black"/>
    <path d="M62.2044 48.3211L67.6357 47.8213L66.9556 50.036L61.5103 50.5277L62.2044 48.3211Z" fill="white"/>
    <path opacity="0.35" d="M60.807 41.584C61.6513 41.6815 61.8905 42.0269 61.5106 42.5186C61.1306 43.0103 61.3089 43.4898 61.262 44.071C61.2151 44.6521 60.7507 44.8106 60.793 45.3266C60.8352 45.8427 61.2104 46.3507 59.6673 47.5942C58.1242 48.8377 57.0126 49.7195 55.6103 49.9552C54.3282 50.1051 53.0337 50.1609 51.7408 50.1218L51.0654 49.9796L52.7867 44.4082C54.152 44.6536 55.571 44.536 56.8578 44.071C58.355 43.4822 59.6985 42.6361 60.807 41.584Z" fill="black"/>
    <path d="M38.3267 21.7295C34.6308 22.5016 33.4254 23.355 32.478 27.1179C31.4743 31.1247 30.2126 38.4068 30.0672 43.2061C30.0203 44.799 29.7811 45.8759 34.2368 47.0178C39.0785 48.1854 44.0115 49.0478 48.9969 49.5982C50.2258 49.6876 52.9414 49.8949 53.8935 49.7933C56.8906 49.4804 58.4899 47.9321 59.428 47.1275C59.9486 46.6805 60.4551 46.136 60.4411 45.502C60.4129 45.2996 60.4129 45.0949 60.4411 44.8925C60.5324 44.7055 60.6455 44.5271 60.7788 44.3601C60.9006 44.1594 60.9435 43.9297 60.9007 43.7059C60.8347 43.5121 60.7892 43.3135 60.7647 43.1126C60.7647 42.7062 61.2337 42.4096 61.4026 42.0357C61.4352 41.982 61.4498 41.9215 61.4448 41.861C61.4448 41.7269 61.2619 41.6456 61.1071 41.6172C60.3977 41.5437 59.6809 41.6875 59.0809 42.0235C57.2048 43.0273 56.975 44.2707 54.3156 44.3358C53.6778 44.3358 52.8148 44.3561 52.9789 43.8237L53.3072 42.755C51.7876 43.0273 50.1976 44.1123 48.95 44.3358C47.8384 44.5349 38.0781 41.3937 38.0781 41.3937L40.4607 32.5226C40.4607 32.5226 41.9991 24.2693 38.3267 21.7295Z" fill="#FFA8A7"/>
    <path d="M38.3267 21.7295C36.2677 21.7295 34.4619 22.0912 32.9564 23.8792C31.4508 25.6672 31.5071 27.5812 31.1413 29.8975C30.7754 32.2138 29.8702 37.33 29.5607 40.4224C29.2511 43.5149 29.2042 45.2745 29.8515 46.0303C30.4987 46.7862 31.6572 47.2494 36.0519 48.2979C38.9083 48.9765 42.8481 49.8664 43.7298 48.8993L42.2852 48.6636C41.9428 47.661 41.9428 46.594 42.2852 45.5914C42.834 43.7221 44.0065 43.1939 44.0065 43.1939L44.9071 43.4499C44.9071 42.6859 44.6726 42.7062 43.2186 42.182C41.6755 41.6293 38.8473 40.8085 38.8473 40.8085C38.8473 40.8085 40.184 35.1803 40.775 32.5795C41.3659 29.9788 41.8397 23.0502 38.3267 21.7295Z" fill="#263238"/>
    <path d="M72.9545 38.8291C72.691 39.4148 72.3594 39.9757 71.9649 40.5033C71.6835 40.93 71.7257 41.4298 72.054 41.5517L71.1628 44.2785C71.1628 44.2785 71.6037 44.3191 72.5183 43.3926C73.4329 42.4661 74.0567 40.7471 74.2303 39.8125C74.4038 38.8778 74.5304 37.2117 73.6158 36.8135L72.9545 38.8291Z" fill="#FFA8A7"/>
    <path d="M43.3639 18.0145C43.1951 17.1123 41.713 14.5766 40.8593 13.1381C40.0057 11.6995 38.7863 6.91251 42.1726 5.2464C42.2992 4.08012 44.1659 2.01983 49.4659 2.2921C54.4469 2.55217 58.4383 5.54304 57.4393 9.31414L43.3639 18.0145Z" fill="#37474F"/>
    <path d="M56.3792 6.81543C56.8998 7.38028 58.3303 9.70064 57.5893 13.9066C56.8764 17.9702 55.7695 19.104 54.2264 19.5957C53.3587 19.8761 52.1814 19.8355 50.6008 19.5957L50.3945 21.3797C51.6796 23.4725 52.5004 25.419 52.3128 27.0688C47.1535 25.805 44.7005 23.8666 42.74 21.8064L43.4952 16.2066C43.4952 16.2066 42.5571 16.9828 40.9812 15.7677C39.6914 14.7681 39.2693 13.0938 40.3011 12.2079C40.5735 11.9951 40.8997 11.8406 41.2535 11.7569C41.6073 11.6731 41.9788 11.6624 42.3383 11.7256C42.6977 11.7889 43.035 11.9243 43.3231 12.121C43.6112 12.3176 43.842 12.5701 43.997 12.8581C43.997 12.8581 44.9679 13.1995 45.7887 11.8585C46.3421 10.9563 46.8252 9.80224 47.0738 6.87232C51.7593 8.46935 56.0696 7.71757 56.3792 6.81543Z" fill="#FFA8A7"/>
    <path d="M43.0355 15.7418C43.3827 15.4824 43.4215 15.0282 43.1221 14.7274C42.8227 14.4265 42.2985 14.393 41.9512 14.6524C41.604 14.9118 41.5652 15.366 41.8646 15.6668C42.164 15.9676 42.6882 16.0012 43.0355 15.7418Z" fill="#455A64"/>
    <path d="M40.7376 11.2331C40.8777 11.2418 41.0145 11.2744 41.1401 11.329C41.2657 11.3836 41.3776 11.4591 41.4695 11.5512C41.5615 11.6433 41.6315 11.7501 41.6757 11.8657C41.7199 11.9812 41.7374 12.1032 41.7272 12.2246C41.7132 12.4168 41.6295 12.6003 41.488 12.7488C41.4462 12.7909 41.3872 12.8174 41.3234 12.8227C41.2596 12.828 41.1959 12.8117 41.1456 12.7773C41.0981 12.7412 41.0686 12.6905 41.0633 12.6359C41.0581 12.5813 41.0775 12.5271 41.1175 12.4847C41.1928 12.4017 41.2385 12.3014 41.2488 12.1962C41.2531 12.0646 41.1988 11.9367 41.0971 11.8389C40.9954 11.7412 40.8541 11.6811 40.7027 11.6712C40.5512 11.6612 40.4012 11.7022 40.2836 11.7856C40.1661 11.869 40.0902 11.9884 40.0716 12.119C40.0665 12.2039 40.0842 12.2888 40.1232 12.3669C40.0164 12.4916 39.9296 12.6283 39.8652 12.7732C39.7224 12.6359 39.6302 12.4646 39.6007 12.2815C39.5711 12.0984 39.6054 11.9118 39.6992 11.7458C39.793 11.5797 39.942 11.4417 40.1271 11.3497C40.3121 11.2576 40.5247 11.2156 40.7376 11.229V11.2331Z" fill="#86C240"/>
    <path d="M46.5815 12.8903C46.4079 13.443 46.9708 14.0525 47.8338 14.2598C48.6968 14.467 49.541 14.1866 49.7099 13.638C49.8787 13.0894 49.3253 12.4758 48.4623 12.2686C47.5993 12.0613 46.755 12.3498 46.5815 12.8903Z" fill="#F28F8F"/>
    <path d="M55.7885 14.0816C55.9339 14.6383 56.7594 14.9512 57.6365 14.7846C58.5136 14.618 59.1045 14.0247 58.9591 13.472C58.8137 12.9194 57.9929 12.6024 57.1159 12.769C56.2388 12.9356 55.6478 13.5249 55.7885 14.0816Z" fill="#F28F8F"/>
    <path d="M49.9725 15.4385L52.7256 16.3122C52.6692 16.4752 52.5749 16.6266 52.4484 16.7569C52.322 16.8872 52.1661 16.9937 51.9903 17.0698C51.8146 17.1459 51.6227 17.1901 51.4265 17.1996C51.2303 17.2091 51.034 17.1836 50.8495 17.1249C50.4791 16.9976 50.1805 16.7504 50.0168 16.4356C49.853 16.1208 49.8372 15.7632 49.9725 15.4385Z" fill="#9E6767"/>
    <path d="M51.4969 17.1777C51.4994 16.8676 51.3613 16.5689 51.1121 16.3462C50.8629 16.1235 50.5227 15.9945 50.1649 15.9871C50.0743 15.9809 49.9834 15.9809 49.8928 15.9871C49.9187 16.2311 50.023 16.4639 50.1937 16.6593C50.3645 16.8546 50.5949 17.0047 50.859 17.0924C51.0608 17.1643 51.2794 17.1936 51.4969 17.1777Z" fill="#F28F8F"/>
    <path d="M56.9374 10.6152L55.4319 10.1153C55.4658 10.0299 55.5193 9.95132 55.5892 9.88427C55.6591 9.81721 55.7439 9.76308 55.8385 9.72513C55.9331 9.68718 56.0356 9.66618 56.1398 9.6634C56.244 9.66063 56.3478 9.67612 56.445 9.70897C56.6454 9.77659 56.8083 9.90831 56.8999 10.0769C56.9915 10.2455 57.005 10.4382 56.9374 10.6152Z" fill="#263238"/>
    <path d="M50.1273 9.63897L48.6171 10.1266C48.5756 10.0429 48.5543 9.95265 48.5544 9.86151C48.5546 9.77037 48.5762 9.68022 48.6179 9.59655C48.6596 9.51288 48.7205 9.43745 48.797 9.37488C48.8735 9.3123 48.9639 9.26389 49.0626 9.2326C49.2664 9.16912 49.4905 9.1759 49.6887 9.25153C49.8868 9.32716 50.0439 9.46586 50.1273 9.63897Z" fill="#263238"/>
    <path d="M52.8616 11.1104L52.5896 14.9099L55.0051 14.7717L52.8616 11.1104Z" fill="#F28F8F"/>
    <path d="M50.6011 19.5956C48.9314 19.3924 45.3668 17.9701 44.8462 16.7754C44.9446 17.5535 45.3866 18.2685 46.0797 18.7707C47.6181 19.7338 50.4979 20.4733 50.4979 20.4733L50.6011 19.5956Z" fill="#F28F8F"/>
    <path d="M49.1752 11.4883C49.1448 11.6522 49.1888 11.82 49.2982 11.9564C49.4075 12.0928 49.5735 12.1872 49.7614 12.2198C49.8528 12.2368 49.9472 12.2376 50.0389 12.222C50.1306 12.2065 50.2177 12.1749 50.2949 12.1293C50.3721 12.0837 50.4378 12.025 50.488 11.9567C50.5382 11.8884 50.5718 11.812 50.5869 11.7321C50.6184 11.5685 50.5747 11.4007 50.4651 11.2648C50.3555 11.1288 50.1888 11.0354 50.0006 11.0047C49.9096 10.9877 49.8156 10.9867 49.7241 11.002C49.6327 11.0173 49.5458 11.0485 49.4687 11.0937C49.3915 11.1389 49.3257 11.1972 49.2753 11.265C49.2249 11.3328 49.1908 11.4088 49.1752 11.4883Z" fill="#263238"/>
    <path d="M55.0143 11.8703C54.9839 12.0343 55.0279 12.2021 55.1373 12.3384C55.2466 12.4748 55.4126 12.5692 55.6006 12.6018C55.6919 12.6182 55.786 12.6186 55.8775 12.6028C55.9689 12.587 56.0558 12.5554 56.1328 12.5099C56.2099 12.4644 56.2755 12.4059 56.3259 12.3379C56.3763 12.2699 56.4103 12.1938 56.426 12.1142C56.4577 11.9501 56.4141 11.7818 56.3046 11.6451C56.195 11.5085 56.0283 11.4143 55.8398 11.3827C55.7485 11.3663 55.6543 11.3659 55.5628 11.3817C55.4714 11.3975 55.3845 11.4291 55.3075 11.4746C55.2304 11.5201 55.1648 11.5786 55.1144 11.6466C55.064 11.7146 55.03 11.7907 55.0143 11.8703Z" fill="#263238"/>
    <path d="M42.1727 5.23056C42.1727 5.23056 42.7121 6.66098 47.074 6.85603C47.074 6.85603 47.8432 9.07074 52.3786 9.51774C52.3786 9.51774 51.192 8.73752 51.2342 7.74192C51.2342 7.74192 52.3786 8.82285 55.4085 9.00978C58.9825 9.22922 59.0809 11.0782 58.9262 11.9925C58.9262 11.9925 60.6006 10.1598 59.3483 6.70974C58.096 3.25967 52.9039 0.752379 48.1762 1.16281C48.1762 1.16281 49.2268 0.541069 51.5813 0.561388C50.5724 0.166223 49.4729 -0.0248669 48.3662 0.0025909C47.2594 0.0300487 46.1744 0.275335 45.1932 0.719871C40.8454 2.70701 42.1727 5.23056 42.1727 5.23056Z" fill="#86C240"/>
    <path d="M52.3176 27.053C49.3229 27.3076 46.3117 26.7389 43.7111 25.4275C40.0527 23.5867 38.3314 21.7255 38.3314 21.7255L36.9243 22.0587C36.9138 21.6221 37.0775 21.1957 37.3876 20.8515C37.6978 20.5073 38.1355 20.2663 38.6269 20.1691C40.3857 19.8399 40.7515 18.9988 41.3566 18.7184C41.9616 18.438 43.1482 18.7184 43.1482 18.7184L42.7355 21.7865C45.3182 24.2634 48.6308 26.0841 52.3176 27.053Z" fill="#263238"/>
    <path d="M52.3175 27.0522C52.3175 26.0769 52.022 24.102 50.3992 21.3631L50.6055 19.5791C50.7914 19.6145 50.9793 19.6417 51.1684 19.6604C51.5014 19.7335 51.7171 20.0667 52.1064 20.1277C52.5111 20.1675 52.9102 20.2424 53.2977 20.3512C53.5921 20.4623 53.8337 20.6573 53.9825 20.9039C53.9825 20.9039 53.6167 26.1338 52.3175 27.0522Z" fill="#263238"/>
    <path d="M44.0067 43.1934C44.9459 43.3637 45.8634 43.6141 46.7458 43.9411C46.7458 43.9411 45.5967 44.3474 45.0995 46.3224C44.6023 48.2973 45.0995 49.1101 45.0995 49.1101C44.1446 49.056 43.2003 48.906 42.2854 48.6631C41.8281 47.6436 41.7884 46.519 42.1728 45.4771C42.7919 43.5835 44.0067 43.1934 44.0067 43.1934Z" fill="#455A64"/>
    <path d="M113.731 15.6094L117.465 25.8092L114.003 27.4835L118.468 32.1201L115.246 33.2905L119.284 39.642L109.149 32.0185L112.784 30.8116L106.077 25.6792L110.973 23.5132L105.157 18.523L113.731 15.6094Z" fill="#F0F0F0"/>
    <path d="M128.74 39.7681L125.856 40.142L125.101 45.059L123.365 38.3499L125.659 37.9069L124.374 32.7217L129.148 32.9777L128.74 39.7681Z" fill="#F5F5F5"/>
    <path d="M105.312 33.9487L105.106 36.4641L112.526 39.6907L102.554 38.5081L102.658 36.204L96.7151 35.3466L98.8773 31.417L105.312 33.9487Z" fill="#F5F5F5"/>
    <path d="M22.4878 67.9658L34.0727 71.6719L33.4723 75.0651L40.442 74.8538L39.5321 77.7796L47.7963 78.9134L34.6261 81.1687L35.7612 77.9422L26.967 79.3807L27.9989 74.6993L19.8848 75.6137L22.4878 67.9658Z" fill="#F0F0F0"/>
    <path d="M34.0304 84.9765L36.1973 86.6629L43.6922 83.5664L36.4928 89.6619L34.4572 88.1787L30.0296 91.7141L27.7783 87.8251L34.0304 84.9765Z" fill="#EBEBEB"/>
    <path d="M209.351 72.2451L201.246 74.0535L201.382 76.3779L196.701 75.8212L197.081 77.8449L191.415 78.1171L200.116 80.4253L199.609 78.1822L205.425 79.6776L205.101 76.4592L210.5 77.5604L209.351 72.2451Z" fill="#F5F5F5"/>
    <path d="M189.436 72.6505L190.515 74.085L187.973 76.6289L192.682 74.3776L191.908 73.1707L195.524 71.403L193.231 69.4199L189.436 72.6505Z" fill="#F0F0F0"/>
    <path d="M200.486 83.5985L198.554 84.6306L193.301 81.3594L197.851 86.8982L199.652 86.0042L202.484 89.247L204.83 86.5324L200.486 83.5985Z" fill="#F0F0F0"/>
    <path d="M95.1392 47.05L92.4798 47.5701L91.4667 49.7604L90.0784 47.7286L87.3628 47.5701L89.1591 45.7983L88.4931 43.5105L90.993 44.4451L93.3006 43.1895L93.0473 45.5383L95.1392 47.05Z" fill="#F0F0F0"/>
    <path d="M14.533 102.825L11.8736 103.341L10.8605 105.531L9.47223 103.503L6.75659 103.345L8.55295 101.573L7.88694 99.2851L10.3868 100.216L12.6944 98.96L12.4411 101.309L14.533 102.825Z" fill="#F0F0F0"/>
    <path d="M140.522 46.0665L138.857 46.3916L138.224 47.761L137.351 46.4891L135.649 46.3916L136.774 45.2822L136.357 43.8477L137.923 44.4329L139.373 43.6445L139.213 45.1156L140.522 46.0665Z" fill="#F0F0F0"/>
    <path d="M208.886 97.9229L207.221 98.248L206.583 99.6175L205.716 98.3456L204.009 98.248L205.139 97.1346L204.721 95.7042L206.288 96.2893L207.733 95.501L207.573 96.972L208.886 97.9229Z" fill="#F0F0F0"/>
    <path d="M198.085 61.9806L195.43 62.5008L194.417 64.687L193.029 62.6593L190.308 62.5008L192.109 60.729L191.443 58.4411L193.943 59.3758L196.251 58.1201L195.998 60.4689L198.085 61.9806Z" fill="#F0F0F0"/>
    </svg>
    